<svg width="328" height="279" viewBox="0 0 328 279" fill="none" xmlns="http://www.w3.org/2000/svg">
<path d="M327.075 61.278C327.075 76.0538 307.045 88.032 282.338 88.032C257.631 88.032 237.602 76.0538 237.602 61.278C237.602 46.5021 257.631 34.5239 282.338 34.5239C307.045 34.5239 327.075 46.5021 327.075 61.278Z" fill="#FCF9F9"/>
<path d="M262.163 54.2605L262.163 67.8568H220.382L262.163 54.2605Z" fill="#FCF9F9"/>
<line x1="254.268" y1="55.9535" x2="308.657" y2="55.9535" stroke="#313131"/>
<line x1="254.268" y1="62.0937" x2="308.657" y2="62.0937" stroke="#313131"/>
<line x1="254.268" y1="68.234" x2="281.461" y2="68.234" stroke="#313131"/>
<g clip-path="url(#clip0_63_2)">
<path fill-rule="evenodd" clip-rule="evenodd" d="M232.665 396.419C222.525 403.778 217.666 405.618 204.764 407.372C203.924 407.539 203.088 407.621 202.248 407.707C180.464 410.467 158.003 409.379 136.722 404.444C135.719 404.195 134.629 403.942 133.621 403.692C125.746 401.771 124.906 399.596 117.449 396.587C114.348 395.331 113.258 321.92 117.199 299.258C120.887 277.52 128.594 252.352 139.238 232.617C139.32 232.449 138.82 229.522 138.902 229.354L193.116 229.273C193.116 229.273 192.866 231.194 193.284 231.53C197.557 235.209 218.088 252.601 229.064 282.369C229.064 282.369 233.001 293.489 234.845 305.448C237.107 319.16 232.665 396.419 232.665 396.419Z" fill="#E7F8F8"/>
<path fill-rule="evenodd" clip-rule="evenodd" d="M113.451 124.074C116.302 119.892 122.255 111.11 126.533 99.9034C132.908 83.006 134.838 46.3739 134.92 45.9569C137.771 29.73 143.81 10.7435 166.038 7.23152C167.713 6.98212 169.393 6.8145 171.069 6.8145C172.577 6.8145 174.002 7.73439 174.674 9.0713C174.924 9.65594 175.178 10.073 175.178 10.073L182.643 13.0003C183.147 13.1679 183.651 13.4173 184.151 13.5849C201.933 21.1116 213.339 38.5937 213.675 57.8296C213.843 67.6172 213.925 85.0952 213.675 89.3635C213.003 99.9851 218.37 124.912 224.664 134.193C225.672 135.616 227.515 139.545 229.613 142.222C231.457 144.647 214.347 158.032 187.511 160.792C170.315 162.55 159.666 158.952 138.443 152.513C136.432 151.928 127.623 146.241 121.837 140.718C107.747 127.001 111.103 127.504 113.451 124.074Z" fill="#EFAC14"/>
<path fill-rule="evenodd" clip-rule="evenodd" d="M205.292 65.1887C204.62 66.6933 203.617 67.7808 202.105 68.7007C201.855 68.8683 201.519 69.0359 201.265 69.2035C199.335 70.2052 197.069 70.7939 195.898 70.9616C195.562 72.1308 195.226 72.8872 194.722 74.0565C192.71 78.9094 189.268 83.5906 185.495 87.1026C185.495 87.1026 185.245 101.49 185.663 106.007C186.249 111.948 188.179 114.875 188.265 115.292C188.265 115.292 193.046 123.571 202.355 126.249C202.355 126.249 187.761 132.856 174.76 132.607C162.85 132.357 150.69 126.081 150.69 126.081C153.123 125.243 154.967 124.323 157.483 122.905C159.077 121.985 162.346 118.641 162.346 118.641C162.428 118.305 165.198 114.29 165.28 113.873C165.362 113.706 166.537 112.034 167.459 106.596C168.131 102.749 167.709 96.3097 167.709 96.3097C166.955 96.3914 165.947 96.559 165.194 96.559C157.978 96.8084 153.369 93.1289 150.264 87.4419C149.592 86.1868 149.006 84.8499 148.42 83.4271C146.744 79.077 145.904 73.8929 145.486 68.7906C145.15 64.1053 144.982 57.4167 145.404 51.8932C145.572 50.1352 146.58 41.1039 147.838 37.9273C148.006 37.5102 148.76 35.1676 148.846 34.8323C150.69 30.7357 151.616 28.8101 154.131 25.801C157.065 22.6244 160.42 20.4493 163.944 19.0266C172.331 15.764 183.401 19.6112 189.273 25.9687C190.194 26.9703 191.034 28.0578 191.788 29.1454C193.046 31.071 194.136 33.0784 195.058 35.2493C195.394 36.0875 195.73 36.8397 195.98 37.6738C196.733 40.0982 197.323 42.5267 197.655 45.0329C197.823 46.1204 198.913 52.8949 197.991 53.4795C197.991 53.4795 198.241 53.3119 198.327 53.3119C200.089 52.392 202.101 52.5596 203.191 53.0625C204.28 53.5654 205.12 54.4853 205.624 55.4869C206.128 56.4886 206.546 57.662 206.546 58.9989C206.546 60.8387 206.042 63.6842 205.288 65.1887H205.292Z" fill="#F8BC9A"/>
<path fill-rule="evenodd" clip-rule="evenodd" d="M185.581 87.0208C174.256 94.2123 169.143 96.8084 167.967 96.1379C167.967 96.4732 167.967 96.8902 168.049 97.6425C168.131 99.2329 167.881 105.84 167.881 105.84C167.881 105.84 175.596 108.35 185.495 94.9646C185.495 92.119 185.577 87.1026 185.577 87.0167L185.581 87.0208Z" fill="#F7A77F"/>
<path fill-rule="evenodd" clip-rule="evenodd" d="M197.073 66.5256C198.499 65.8551 199.589 64.8535 200.429 63.6801C200.847 63.0955 201.183 62.425 201.437 61.6727C201.519 61.3374 201.687 61.0022 201.773 60.5852C201.855 60.2499 201.855 59.8329 201.941 59.4977C201.941 59.9147 201.941 60.2499 202.023 60.6669C202.023 61.084 201.941 61.4192 201.855 61.8362C201.687 62.5885 201.351 63.3408 200.847 64.0113C200.007 65.1805 198.667 66.1863 197.073 66.5215" fill="#3A1F28"/>
<path fill-rule="evenodd" clip-rule="evenodd" d="M162.6 96.0521C163.69 96.0521 164.698 96.2197 165.788 96.0521C166.877 95.8845 168.135 95.8027 169.225 95.5492C170.315 95.2998 171.323 95.0463 172.413 94.6293C173.421 94.2941 174.424 93.7912 175.264 93.0389C174.928 93.4559 174.51 93.7912 174.006 94.1264C173.502 94.4617 172.999 94.7111 172.499 94.9646C171.491 95.4674 170.401 95.7168 169.311 95.9662C168.221 96.2156 167.131 96.3832 165.956 96.3832C164.866 96.6326 163.69 96.5509 162.6 96.048" fill="#3A1F28"/>
<path fill-rule="evenodd" clip-rule="evenodd" d="M141.213 69.2035C142.807 72.5478 144.482 75.978 146.748 78.9912C144.146 68.116 144.904 55.0699 145.74 47.7926C146.076 44.947 146.58 42.0197 147.334 39.2601C148.678 34.5748 151.361 27.048 157.147 23.7855C157.147 23.7855 163.94 31.0628 166.205 36.7498C167.295 39.4277 168.639 41.9339 170.233 44.1948C170.737 44.947 171.323 45.7852 171.909 46.5374C172.159 46.8727 172.413 47.1221 172.663 47.4573C172.745 47.6249 172.913 47.7067 172.999 47.8743C173.248 48.1237 173.503 48.459 173.752 48.7125C174.088 49.0477 174.424 49.383 174.76 49.7141C175.096 50.0453 175.346 50.2988 175.682 50.634C175.932 50.8834 176.268 51.1369 176.522 51.3863C176.69 51.5539 176.858 51.7215 177.108 51.8891C178.198 52.809 179.374 53.6472 180.546 54.3994C180.881 54.5671 181.217 54.8164 181.553 54.9841C182.057 55.3193 182.643 55.5687 183.147 55.904C183.397 55.9857 183.565 56.1533 183.819 56.2392C184.237 56.4886 184.741 56.6562 185.245 56.9097C185.413 56.9915 185.581 57.0773 185.749 57.1591C185.999 57.2409 186.253 57.3267 186.589 57.4943H186.671C186.921 57.5761 187.089 57.662 187.343 57.7437C188.015 57.9931 188.601 58.1608 189.272 58.3284C189.608 58.4101 190.026 58.496 190.448 58.5778C190.698 58.6595 191.034 58.6595 191.288 58.7454C191.538 58.8272 191.874 58.8272 192.128 58.913H192.378C192.714 58.9948 192.964 58.9948 193.3 58.9948C193.55 58.4919 193.886 57.9931 194.222 57.572C194.726 56.9015 195.144 56.4027 195.73 55.8999C196.147 55.4829 196.569 55.1476 196.987 54.8982C197.237 54.7306 197.405 54.6488 197.659 54.4812C198.835 53.8107 200.007 53.5613 201.097 53.6431C201.769 53.7248 202.441 53.8925 203.027 54.2277C204.034 54.7306 204.87 55.6505 205.374 56.8198C205.878 57.8214 206.128 59.0766 206.128 60.4993C206.128 61.5868 206.046 62.6744 205.71 63.8436C205.71 64.0113 205.628 64.1789 205.542 64.3465C205.46 64.5141 205.46 64.6818 205.374 64.8494C205.292 65.017 205.292 65.0988 205.206 65.2664C205.038 65.6834 204.87 66.0187 204.702 66.4357C204.03 67.9402 202.773 69.0277 201.433 69.8659C201.183 70.0335 200.929 70.2011 200.679 70.2829C198.749 71.2845 196.651 71.7874 195.48 71.955C195.144 73.1243 194.726 74.2118 194.222 75.2993C192.124 79.9846 189.023 84.3306 185.331 87.8467C186.085 87.7649 186.839 87.5973 187.597 87.5114C187.679 87.5114 187.847 87.5114 187.933 87.4296C203.703 84.5841 215.023 70.5323 214.773 54.4771V54.3095C214.437 34.9877 203.031 17.3421 185.167 9.72953C184.663 9.48014 184.159 9.31251 183.659 9.14489L176.112 6.21759C176.112 6.21759 175.862 5.71472 175.608 5.13008C174.937 3.70731 173.511 2.87328 171.917 2.87328C170.155 2.87328 168.479 3.0409 166.886 3.2903C157.155 4.88068 148.854 10.1506 143.655 18.5973C141.307 22.3627 139.627 26.5451 138.369 30.8093C134.51 42.6861 135.6 57.5761 141.221 69.1994" fill="#EFAC14"/>
<path fill-rule="evenodd" clip-rule="evenodd" d="M166.623 185.788L134.957 237.638L130.769 238.807C128.172 238.136 125.66 237.049 123.48 235.544L123.23 235.377L54.6237 189.382C54.2877 189.632 53.9517 189.885 53.5338 190.053C51.5221 191.222 49.5965 192.477 48.3387 192.812C38.7882 195.654 31.1675 196.574 21.2811 194.82C16.7578 194.068 8.8831 191.475 5.36365 187.964C6.19947 186.708 11.0587 188.131 13.4064 187.714C11.9805 187.129 8.21117 184.537 6.95744 184.035C5.36774 183.45 5.69961 181.357 7.37535 181.524C8.21117 181.606 10.0549 181.86 12.4845 182.277C12.1485 182.109 11.8986 182.027 11.6487 181.86C10.1409 181.189 10.6449 179.1 12.2346 179.349C14.0783 179.684 21.617 181.438 28.066 183.029C30.2456 182.694 32.3393 182.277 34.5149 181.86C30.7455 181.107 25.1324 179.77 24.5465 178.515C23.6246 176.594 42.7256 177.595 47.1628 177.178C48.9205 177.097 50.5962 177.428 52.2719 178.016C53.3618 178.433 54.5335 178.855 55.5373 179.272C55.6193 179.353 55.7053 179.353 55.8733 179.439C56.8771 180.11 59.3067 181.361 59.3067 181.528L124.23 209.628L136.628 175.674C136.628 175.841 136.71 176.009 136.71 176.091L140.23 177.26L143.581 178.262L166.619 185.788H166.623Z" fill="#F8BC9A"/>
<path fill-rule="evenodd" clip-rule="evenodd" d="M206.751 127.169L176.51 159.95C168.971 165.719 165.116 168.396 164.948 168.147C164.698 167.898 161.346 160.62 154.893 146.487L142.245 126C146.601 123.158 145.597 123.158 152.886 122.152C159.92 121.233 201.138 121.65 209.848 123.825" fill="#F8BC9A"/>
<path fill-rule="evenodd" clip-rule="evenodd" d="M231.125 276.273L229.367 278.783C228.695 280.873 227.187 283.301 226.352 283.215C223.586 282.798 220.907 281.711 219.985 278.534C218.981 274.773 217.641 270.758 216.551 267.663C214.626 271.592 209.18 278.702 209.766 277.197C210.438 275.357 211.192 271.428 212.11 267.998C208.926 271.678 204.403 276.359 204.989 275.108C206.079 272.516 207.251 267.916 208.758 264.404C205.239 266.829 200.38 270.091 201.22 269.004C203.817 265.741 208.173 259.973 210.938 256.878C210.352 256.628 209.934 256.542 209.766 256.71C207.423 259.053 198.458 260.054 200.134 259.134C202.646 257.712 207.759 253.28 211.696 250.52C211.864 250.353 213.876 251.689 213.876 251.689C215.72 253.194 217.395 254.866 218.817 256.706C219.403 257.544 222.922 261.808 224.18 264.482L255.175 207.114L198.712 151.92C197.286 150.583 196.115 148.911 195.447 147.071C194.779 145.232 194.443 143.224 194.693 141.217C195.279 136.2 198.88 131.515 204.997 129.258C213.208 126.249 222.758 128.923 227.196 135.362L231.969 142.386L273.936 204.019C275.526 206.194 276.28 208.868 276.198 211.627C276.116 214.305 275.026 216.897 273.264 218.986L231.129 276.269L231.125 276.273Z" fill="#F8BC9A"/>
<path fill-rule="evenodd" clip-rule="evenodd" d="M281.725 213.72C280.721 207.784 276.783 199.337 271.756 190.053C261.034 170.567 240.425 146.736 232.887 139.042C229.953 136.033 226.938 133.105 223.672 130.427C218.981 126.58 215.883 124.99 214.122 124.323C213.536 124.074 212.95 123.906 212.278 123.821L212.196 123.902L206.751 122.815L200.384 122.733C201.388 124.323 189.244 147.153 172.908 154.259C171.483 155.596 169.643 155.931 168.299 155.26C167.463 154.843 167.041 154.005 166.873 153.67C164.444 150.992 163.776 150.575 163.272 149.909C162.1 148.404 160.928 146.564 159.92 144.222C157.909 139.704 156.823 136.11 156.233 133.935C156.233 133.935 155.311 130.84 154.807 128.167L154.639 127.328C154.557 127.079 154.557 126.744 154.557 126.658C154.389 125.738 154.639 125.57 154.475 124.736C154.307 123.816 153.971 123.567 154.139 122.897C154.221 122.729 154.307 122.394 154.307 122.394C154.307 122.394 154.225 122.475 154.057 122.729C154.643 121.977 154.225 122.561 154.393 122.312C154.475 122.144 154.643 121.977 154.811 121.809H152.632C152.632 121.809 151.878 121.809 150.788 121.891C150.202 121.891 149.53 121.973 148.776 122.058C147.854 121.891 146.932 121.891 146.011 122.058C140.901 122.897 135.538 126.658 132.187 132.177C129.003 137.697 126.66 143.551 125.066 149.655C121.714 161.532 119.203 177.084 113.004 201.504L90.8056 191.721L79.9973 223.5L124.144 240.978C126.406 241.898 128.917 241.898 131.097 240.978C133.359 240.058 135.202 238.386 136.206 236.211C155.893 254.69 191.243 247.92 199.786 237.801L211.512 169.394C219.972 179.178 232.288 190.47 250.631 211.038L230.609 231.194L256.744 252.434L283.13 219.567C282.794 217.559 282.294 215.638 281.704 213.712L281.725 213.72Z" fill="#E7F8F8"/>
<path d="M136.214 235.884C136.296 229.027 136.382 222.167 136.464 215.311C136.632 208.455 135.792 201.68 133.867 195.073C133.363 193.401 132.777 191.811 132.191 190.224C131.605 188.638 130.765 187.129 130.179 185.457C128.921 182.195 128.336 178.769 128.254 175.257C128.004 168.233 130.347 161.377 134.621 155.857L134.539 155.939L138.226 145.15L141.995 134.36L138.562 145.232L135.043 156.103V156.184C130.937 161.622 128.762 168.392 129.012 175.167C129.094 178.597 129.765 181.941 130.937 185.118C131.523 186.708 132.277 188.213 132.949 189.885C133.535 191.475 134.207 193.148 134.625 194.82C135.628 198.164 136.3 201.508 136.718 204.939C137.136 208.369 137.222 211.795 137.054 215.225C136.804 222.081 136.55 229.023 136.218 235.88L136.214 235.884Z" fill="#700D55"/>
<path fill-rule="evenodd" clip-rule="evenodd" d="M159.584 60.6465C159.584 61.4846 159.335 62.3228 158.917 63.075C158.749 63.492 158.499 63.8273 158.331 64.1625C158.163 64.4978 157.913 64.9148 157.831 65.2501C157.581 66.0023 158.249 66.5052 158.999 66.8404C159.748 67.1757 160.584 67.4251 161.334 67.8462C160.498 67.5968 159.666 67.5109 158.917 67.1757C158.499 67.0081 158.081 66.8404 157.749 66.5052C157.417 66.1699 157.249 65.5853 157.417 65.1642C157.585 64.7472 157.835 64.3261 158.003 63.9908L158.671 62.9033C159.089 62.2328 159.421 61.4805 159.589 60.6424" fill="#271018"/>
<path fill-rule="evenodd" clip-rule="evenodd" d="M157.581 79.2406C158.581 78.8236 159.666 78.6559 160.752 78.5701C161.838 78.4842 162.838 78.4883 163.837 78.4883C165.841 78.4065 167.672 78.1531 169.426 76.8121C169.176 77.8996 168.258 78.8236 167.258 79.3264C166.259 79.9111 165.091 80.0787 164.005 80.1645C162.92 80.2463 161.838 80.0828 160.752 79.9152C159.584 79.7475 158.585 79.4981 157.581 79.2447" fill="#271018"/>
<path fill-rule="evenodd" clip-rule="evenodd" d="M169.205 155.408C169.45 155.448 169.614 155.653 169.573 155.857C167.074 167.305 164.821 180.183 163.387 194.37C161.994 207.903 161.502 220.454 161.584 231.738C161.584 231.779 161.543 231.902 161.42 232.024C161.338 232.106 161.215 232.147 161.092 232.106C160.846 232.065 160.683 231.861 160.724 231.656C160.765 219.882 161.338 206.921 162.854 192.939C164.288 179.407 166.378 166.978 168.713 155.776C168.795 155.571 169 155.408 169.205 155.408Z" fill="#700D55"/>
<path fill-rule="evenodd" clip-rule="evenodd" d="M154.004 121.842H154.865C155.93 130.182 157.855 136.315 159.289 140.24C160.15 142.488 160.805 144.042 161.584 145.554C164.001 150.174 166.951 153.445 169.041 155.489C168.959 155.816 168.836 156.103 168.754 156.43C165.763 153.772 163.714 151.156 162.444 149.234C159.986 145.554 158.716 142.366 157.937 140.035C157.2 137.868 156.544 135.497 155.93 132.962C154.946 128.956 154.373 125.194 154.004 121.842Z" fill="#700D55"/>
<path fill-rule="evenodd" clip-rule="evenodd" d="M169.327 156.348C169.246 156.062 169.164 155.776 169.082 155.489C173.425 153.527 176.825 151.401 179.202 149.766C179.202 149.766 189.322 142.693 196.328 131.858C197.393 130.223 198.704 127.688 198.909 127.32C199.319 126.543 199.769 125.644 200.179 124.417C200.425 123.763 200.548 123.15 200.671 122.782C201.039 122.782 201.449 122.741 201.818 122.741C200.179 127.238 198.253 130.714 196.655 133.167C193.542 137.991 190.387 141.098 188.011 143.429C184.692 146.658 181.947 148.743 180.963 149.479C180.472 149.847 178.423 151.319 175.596 153.036C173.097 154.426 170.966 155.53 169.327 156.348Z" fill="#700D55"/>
<path fill-rule="evenodd" clip-rule="evenodd" d="M147.125 170.594L145.691 170.322C145.582 163.093 146.154 153.896 148.594 143.5C150.687 134.588 152.62 127.724 155.445 121.763C155.999 121.686 156.333 121.763 157.221 121.763C154.373 127.962 152.371 134.728 150.27 143.674C147.852 153.964 147.473 163.157 147.454 170.594H147.125Z" fill="#313131"/>
<path d="M146.567 183.023C150.98 183.023 154.557 179.446 154.557 175.033C154.557 170.62 150.98 167.042 146.567 167.042C142.154 167.042 138.576 170.62 138.576 175.033C138.576 179.446 142.154 183.023 146.567 183.023Z" fill="#313131"/>
<path d="M146.567 179.472C149.018 179.472 151.006 177.485 151.006 175.033C151.006 172.581 149.018 170.594 146.567 170.594C144.115 170.594 142.127 172.581 142.127 175.033C142.127 177.485 144.115 179.472 146.567 179.472Z" fill="#545454"/>
<path fill-rule="evenodd" clip-rule="evenodd" d="M197.173 153.87H195.32C196.68 150.873 198.94 145.342 198.949 138.142C198.957 130.893 197.649 125.321 196.285 122.32H198.061C199.401 125.476 200.745 130.979 200.724 138.142C200.704 145.178 198.505 150.73 197.173 153.87Z" fill="#313131"/>
<path fill-rule="evenodd" clip-rule="evenodd" d="M200.724 175.418C201.077 163.799 199.473 156.02 196.285 155.501C193.032 154.973 188.572 161.863 185.021 173.955H183.41C186.745 160.974 192.686 152.683 196.381 153.288C200.003 153.881 202.871 163.239 202.318 175.713C201.99 175.614 201.662 175.516 201.335 175.418H200.724Z" fill="#313131"/>
<path fill-rule="evenodd" clip-rule="evenodd" d="M202.261 173.705C202.753 174.98 202.459 176.61 201.609 177.338C200.759 178.077 199.673 177.636 199.187 176.361C198.695 175.086 198.989 173.456 199.839 172.727C200.689 171.989 201.776 172.43 202.261 173.705Z" fill="#313131"/>
<path fill-rule="evenodd" clip-rule="evenodd" d="M186.28 173.705C186.772 174.98 186.478 176.61 185.628 177.338C184.778 178.077 183.692 177.636 183.206 176.361C182.714 175.086 183.008 173.456 183.858 172.727C184.708 171.989 185.795 172.43 186.28 173.705Z" fill="#313131"/>
</g>
<defs>
<clipPath id="clip0_63_2">
<rect width="289.914" height="278.87" fill="white" transform="translate(0.0742188 0.129959)"/>
</clipPath>
</defs>
</svg>
