<svg width="32" height="32" viewBox="0 0 32 32" fill="none" xmlns="http://www.w3.org/2000/svg">
<rect x="1.93945" y="1.33337" width="28.1212" height="29.3333" rx="10" fill="#3F51BA"/>
<path d="M7 7C7 5.34315 8.34315 4 10 4C11.6569 4 13 5.34315 13 7V9.5V13H19C22.3137 13 25 15.6863 25 19V25C25 26.6569 23.6569 28 22 28C20.3431 28 19 26.6569 19 25V24V19H13.5C9.91015 19 7 16.0899 7 12.5V7Z" fill="#050324"/>
<path d="M19 6C19 4.89543 19.8954 4 21 4H25V10C25 11.1046 24.1046 12 23 12H19V6Z" fill="#050324"/>
<path d="M7 22C7 20.8954 7.89543 20 9 20H13V26C13 27.1046 12.1046 28 11 28H7V22Z" fill="#050324"/>
</svg>
