<svg width="354" height="307" viewBox="0 0 354 307" fill="none" xmlns="http://www.w3.org/2000/svg">
<rect x="19" y="75" width="305" height="210" fill="#9CA6CE"/>
<line x1="9" y1="283.5" x2="336" y2="283.5" stroke="#050324" stroke-width="3"/>
<path d="M35.5296 269.127C38.9305 270.986 42.4369 272.79 46.1412 273.94C48.4155 274.645 50.7776 275.086 53.1447 275.054C53.3531 275.425 53.5679 275.784 53.7936 276.15C50.9411 276.198 47.9916 275.246 45.4151 274.307C38.1562 271.661 31.7666 267.262 24.8097 263.973C21.423 262.378 17.8943 261.052 14.1883 260.456C10.2498 259.82 6.36869 260.315 2.43029 260.733C2.48171 260.858 2.56771 260.974 2.70102 261.059C6.54917 263.493 8.68002 267.304 10.7276 271.22C11.7446 273.152 12.9072 274.759 14.6261 276.128C16.0734 277.272 17.608 278.291 19.2595 279.123C26.3679 282.741 34.3158 282.914 41.9496 281.015C44.1519 280.463 46.3155 279.764 48.4278 278.94C50.6241 278.084 52.6181 277.337 54.9602 278.089C54.9798 278.093 54.9993 278.097 55.0276 278.099C56.1942 279.862 57.4728 281.559 58.876 283.167C59.153 283.482 59.7181 283.066 59.4665 282.707C57.6369 280.111 56.0074 277.397 54.5654 274.588C54.5445 274.473 54.5495 274.352 54.6154 274.251C54.5968 274.145 54.6173 274.047 54.6618 273.971C53.881 272.374 53.0529 270.808 52.1214 269.307C51.9872 268.972 51.8443 268.64 51.7078 268.297C51.7765 268.242 51.8474 268.196 51.9007 268.117C53.405 266.177 55.4799 265.668 57.7801 265.137C59.9938 264.628 62.1711 263.981 64.2947 263.2C71.6709 260.463 78.137 255.849 81.9783 248.849C82.8644 247.229 83.5607 245.521 84.1133 243.758C84.7723 241.662 84.8235 239.679 84.5754 237.508C84.0677 233.122 83.671 228.771 85.4813 224.588C85.5445 224.442 85.5449 224.304 85.5172 224.163C82.037 226.04 78.5492 227.818 75.6478 230.56C72.9266 233.143 70.7427 236.223 68.8554 239.447C64.9554 246.084 62.1641 253.316 57.6526 259.597C55.8818 262.069 53.7329 264.825 50.9701 266.338C50.8377 265.975 50.7053 265.613 50.5838 265.256C53.0253 263.893 55.0906 261.907 56.841 259.709C59.2574 256.669 61.135 253.199 62.898 249.749C66.2526 243.182 69.3251 236.245 74.5396 230.88C77.5728 227.761 81.3009 225.596 85.2019 223.738C85.1277 223.702 85.0449 223.668 84.9407 223.659C80.0696 223.342 75.2318 224.311 70.8132 226.38C63.3488 229.87 56.638 235.731 52.8077 243.089C50.9655 246.624 49.8558 250.484 49.4281 254.442C49.1594 256.897 49.2375 259.335 49.4888 261.764C49.0879 260.382 48.7238 258.999 48.4093 257.594C46.3675 248.398 45.9285 238.902 46.3689 229.515C46.6504 223.387 47.3094 217.289 48.1291 211.204C48.2196 211.162 48.3188 211.117 48.4002 211.04C50.0606 209.623 51.9482 209.561 54.0418 209.509C56.0531 209.46 58.0631 209.3 60.0452 209C66.9416 207.952 73.3842 205.11 77.9741 199.724C79.0317 198.475 79.9515 197.124 80.7402 195.696C81.6882 193.995 82.0874 192.282 82.2651 190.359C82.6155 186.458 83.0533 182.609 85.3731 179.309C85.4541 179.195 85.485 179.067 85.4814 178.948C82.1226 179.952 78.7757 180.861 75.7637 182.726C72.9346 184.478 70.4872 186.768 68.2673 189.219C63.6929 194.278 59.9643 200.056 54.9185 204.693C53.058 206.403 50.8676 208.265 48.3987 209.174C48.4482 208.8 48.5001 208.435 48.5496 208.062C50.6082 207.279 52.4879 206.064 54.1938 204.644C56.8395 202.441 59.0935 199.768 61.2456 197.094C65.3382 191.996 69.2506 186.529 74.7415 182.81C77.9427 180.646 81.5612 179.434 85.2789 178.529C85.2197 178.48 85.1543 178.442 85.0651 178.419C80.8904 177.272 76.5193 177.24 72.3084 178.238C65.2033 179.933 58.3204 183.806 53.6737 189.503C52.5419 190.891 51.5653 192.378 50.722 193.949C51.83 187.169 52.8284 180.288 52.2582 173.488C52.3118 173.446 52.3632 173.395 52.4037 173.339C53.3258 171.996 54.6778 171.585 56.1727 171.154C57.6158 170.737 59.0274 170.236 60.4031 169.634C65.1707 167.556 69.2685 164.268 71.5355 159.503C72.0595 158.404 72.457 157.245 72.7567 156.066C73.1077 154.662 73.0762 153.348 72.8222 151.927C72.3247 149.054 71.9031 146.189 72.9456 143.373C72.9834 143.27 72.9779 143.179 72.9551 143.093C70.726 144.456 68.4919 145.765 66.686 147.682C64.9806 149.49 63.6606 151.603 62.5302 153.805C60.1995 158.328 58.6277 163.206 55.8889 167.513C54.8896 169.089 53.6841 170.829 52.1047 171.957C52.0933 171.914 52.1015 171.875 52.0901 171.831C52.0655 171.598 52.0236 171.368 51.9881 171.128C53.2987 170.173 54.4087 168.947 55.3526 167.617C56.8332 165.518 57.9421 163.165 58.9796 160.821C60.9491 156.365 62.7161 151.667 65.9586 147.939C67.8459 145.769 70.2242 144.2 72.7285 142.829C72.6762 142.806 72.6239 142.783 72.5525 142.792C69.3196 142.765 66.1711 143.585 63.3283 145.11C58.5366 147.693 54.3233 151.806 52.0636 156.81C51.1185 158.907 50.5718 161.149 50.351 163.435C49.2105 159.418 47.6942 155.52 46.0033 151.695C46.0875 151.663 46.1693 151.623 46.2467 151.566L46.4436 150.839C45.8353 150.39 45.3252 149.821 44.8775 149.209C44.0844 147.495 43.2589 145.799 42.4335 144.103C40.8335 139.571 40.2298 134.785 38.9127 130.168C38.2392 127.785 37.3582 125.457 36.0464 123.353C34.6526 121.113 32.7212 119.394 30.8021 117.616C30.7685 117.699 30.7371 117.791 30.7557 117.897C31.2155 120.872 30.239 123.588 29.1802 126.306C28.6571 127.655 28.3652 128.933 28.4308 130.376C28.4937 131.598 28.654 132.804 28.9462 133.984C30.2283 139.1 33.5998 143.129 37.8602 146.112C39.085 146.972 40.378 147.741 41.7069 148.436C43.0882 149.153 44.328 149.825 44.971 151.32C45.0133 151.41 45.062 151.49 45.1234 151.547C47.4374 157.353 49.3587 163.317 50.2182 169.496C50.3516 170.459 50.4395 171.425 50.5079 172.387C50.0336 170.339 49.2937 168.371 48.2412 166.55C45.4788 161.815 40.8631 158.15 35.8357 156.081C32.8589 154.85 29.6356 154.368 26.4205 154.724C26.3577 154.732 26.2995 154.756 26.2522 154.787C28.8892 155.886 31.4074 157.201 33.5154 159.169C37.1216 162.546 39.3649 167.029 41.7915 171.261C43.0615 173.487 44.4051 175.712 46.0963 177.642C47.3257 179.047 48.7589 180.278 50.4168 181.099C50.3964 181.372 50.3737 181.637 50.3423 181.904C48.3996 181.02 46.8421 179.212 45.5559 177.591C42.3841 173.582 40.3095 168.897 37.5335 164.637C36.1853 162.57 34.6497 160.599 32.7715 158.977C30.775 157.257 28.4138 156.187 26.0562 155.061C26.0421 155.147 26.0498 155.247 26.0921 155.338C27.4222 158.038 27.2955 160.927 27.0911 163.837C26.9898 165.278 27.0927 166.581 27.591 167.948C28.0129 169.094 28.5252 170.197 29.1604 171.241C31.9069 175.74 36.3261 178.588 41.2801 180.167C42.7123 180.622 44.1736 180.977 45.6404 181.247C47.1745 181.527 48.5589 181.8 49.6127 183.03C49.7756 183.227 49.9866 183.292 50.1946 183.274C49.6182 188.528 48.5842 193.763 47.7403 198.949C47.4002 201.062 47.0515 203.178 46.7246 205.307C46.679 204.783 46.6139 204.255 46.5315 203.731C45.983 200.243 44.8462 196.873 43.063 193.821C39.3655 187.465 33.1755 182.56 26.4157 179.774C22.4234 178.126 18.0923 177.473 13.7926 177.958C13.7039 177.972 13.6371 177.999 13.5638 178.036C17.0966 179.519 20.4811 181.28 23.2997 183.912C28.143 188.441 31.149 194.453 34.3915 200.134C36.1001 203.113 37.9042 206.104 40.1673 208.697C41.7157 210.471 43.5001 212.053 45.5561 213.157C45.5107 213.511 45.4652 213.865 45.4198 214.219C43.0107 212.967 41.0615 210.689 39.4404 208.639C35.1893 203.27 32.4053 196.978 28.6833 191.266C26.871 188.49 24.8176 185.851 22.2952 183.677C19.6172 181.369 16.4579 179.936 13.2954 178.421C13.2795 178.536 13.2854 178.664 13.3478 178.796C15.1251 182.422 14.9608 186.292 14.6951 190.198C14.5651 192.127 14.6954 193.886 15.3598 195.707C15.9209 197.242 16.6071 198.725 17.4657 200.125C21.1527 206.161 27.0756 209.981 33.7229 212.094C35.6383 212.699 37.5955 213.182 39.575 213.539C41.6328 213.912 43.4844 214.275 44.9013 215.936C44.9827 216.034 45.0856 216.109 45.1838 216.166C44.3242 223.223 43.7794 230.317 43.8957 237.394C42.6506 233.858 40.8446 230.544 38.4477 227.654C33.1606 221.263 25.3734 216.927 17.3439 215.075C12.591 213.979 7.66168 214.038 2.95633 215.369C2.86125 215.394 2.78393 215.452 2.72161 215.496C6.9313 216.495 11.0173 217.832 14.6398 220.251C20.8551 224.41 25.3087 230.549 29.9588 236.275C32.4049 239.282 34.9592 242.279 37.9644 244.742C39.984 246.41 42.2348 247.832 44.6866 248.684C44.7416 249.104 44.814 249.519 44.88 249.945C41.9524 249.006 39.3494 246.808 37.15 244.808C31.4291 239.613 27.1879 233.123 21.9878 227.449C19.4603 224.694 16.6881 222.134 13.4833 220.177C10.0797 218.097 6.29261 217.088 2.49782 215.98C2.50602 216.116 2.53378 216.257 2.62433 216.39C5.26336 220.095 5.78788 224.44 6.21322 228.829C6.42452 231.001 6.88647 232.931 7.96397 234.847C8.86855 236.458 9.90645 237.977 11.1163 239.378C16.3296 245.418 23.6145 248.584 31.4009 249.723C33.6489 250.046 35.9122 250.217 38.1783 250.259C40.5354 250.294 42.6695 250.361 44.5472 251.946C44.762 252.13 44.9926 252.199 45.2247 252.202C45.4304 253.405 45.673 254.608 45.9329 255.805C46.576 258.705 47.3706 261.583 48.3335 264.398C45.9448 261.819 43.164 259.612 40.0648 257.951C32.7576 254.033 23.901 252.973 15.7722 254.29C10.9581 255.068 6.42068 257.002 2.57078 260.002C2.49345 260.06 2.44024 260.138 2.4043 260.213C6.67343 259.542 10.9644 259.235 15.2333 260.107C22.558 261.599 29.0099 265.603 35.4777 269.141L35.5296 269.127Z" fill="#27255C"/>
<path d="M41.0211 137.756C41.5768 140.253 42.198 142.788 43.231 145.132C44.0473 146.969 45.1248 148.71 46.6372 150.031C46.6708 149.948 46.7068 149.874 46.7404 149.791L46.7654 149.71L46.7741 149.708C47.7033 147.55 48.5106 145.35 48.8543 143.005C49.2403 140.398 49.1705 137.745 48.5879 135.181C47.3659 129.837 44.0511 124.97 39.8539 121.491C37.372 119.436 34.4447 118.007 31.2696 117.392C31.2023 117.382 31.1482 117.387 31.0876 117.403C33.272 119.24 35.2958 121.24 36.7146 123.75C39.1594 128.051 39.9624 132.997 41.0124 137.758L41.0211 137.756Z" fill="#27255C"/>
<path d="M62.2319 274.051C64.033 272.034 66.0743 270.211 68.1762 268.581C72.7085 265.073 77.7636 262.347 82.819 259.697C88.0858 256.936 93.4266 254.307 98.8216 251.812C103.897 249.462 109.114 247.421 114.155 245.011C118.886 242.751 123.529 240.089 127.02 236.1C127.169 235.928 127.411 236.169 127.27 236.344C123.496 240.787 118.508 243.841 113.312 246.363C108.275 248.812 103.138 251.044 98.1043 253.484C92.836 256.046 87.6282 258.725 82.4829 261.54C77.5295 264.247 72.5388 267.054 68.1604 270.657C67.0137 271.602 65.9326 272.6 64.9087 273.647C65.0944 273.631 65.2915 273.61 65.4607 273.588C69.8338 272.973 74.3381 273.429 78.7607 273.089C90.6358 272.173 102.604 269.305 112.042 261.796C118.217 256.875 121.409 250.664 125.385 244.026C126.844 241.579 128.323 239.158 129.953 236.813C130.789 235.61 132.21 234.436 132.741 233.111C128.832 230.775 120.46 233.743 116.361 234.384C107.607 235.761 98.499 239.259 90.8866 243.72C83.4317 248.088 77.5788 253.592 72.0816 260.251C71.3551 261.135 70.5383 262.032 69.7071 262.944C72.4231 258.571 74.9417 254.068 77.2368 249.453C77.0953 249.325 77.0264 249.129 77.1432 248.917C78.8016 245.835 80.8612 242.996 82.4978 239.897C84.1168 236.819 85.5653 233.639 86.7812 230.373C91.1548 218.651 93.0786 206.29 94.8136 193.954C96.5445 181.655 98.0127 169.323 101.722 157.429C101.778 157.251 102.057 157.317 102 157.495C100.142 164.24 98.9138 171.173 97.8914 178.087C96.0528 190.498 95.024 203.022 92.4348 215.314C91.151 221.431 89.456 227.433 87.1782 233.246C86.2333 235.657 85.1668 238.014 83.9705 240.312C84.0926 240.187 84.2065 240.06 84.3286 239.935C94.948 229.023 105.451 218.324 112.182 204.385C115.011 198.54 114.065 192.085 113.891 185.842C113.721 179.817 112.731 174.775 110.635 169.121C109.2 165.247 107.732 161.389 106.113 157.578C105.013 154.993 104.757 152.276 103.866 149.712C102.361 150.627 101.06 152.953 99.7922 154.326C97.3087 157.007 94.7099 159.616 92.3492 162.399C87.1216 168.562 81.4006 174.957 78.754 182.753C77.0699 187.708 75.6732 193.036 74.9601 198.23C74.1135 204.443 75.6652 211.001 76.5474 217.12C77.3526 222.709 77.8509 228.411 77.9193 234.048C77.9695 237.7 78.0555 241.536 76.8267 245.014C73.5994 251.751 69.9524 258.294 65.9125 264.597C61.9677 270.745 57.5321 276.483 52.667 281.901C56.2662 274.877 59.637 268.695 61.2777 260.78C63.0599 252.18 62.8572 244.185 60.313 235.744C57.9957 228.04 54.6936 220.339 49.8532 213.872C47.8042 211.141 44.7111 206.233 41.3847 204.9C41.0704 205.871 41.6754 207.119 41.7734 208.177C42.0201 210.691 41.8067 213.45 41.6663 215.962C41.3313 222.149 39.8468 228.068 39.6582 234.318C39.2742 246.94 42.3182 258.689 47.5386 269.981C48.5046 272.063 50.6913 275.517 51.5491 278.779C52.318 276.104 52.4462 273.294 52.559 270.526C52.9648 260.514 52.01 250.498 50.024 240.685C49.0462 235.864 47.6868 231.129 46.5846 226.337C45.5044 221.639 44.7168 216.918 44.6088 212.1C44.6023 211.965 44.8129 211.958 44.8195 212.093C45.2107 217.726 46.5047 223.299 47.9603 228.742C49.2619 233.607 50.7472 238.437 51.8538 243.344C52.9752 248.312 53.7055 253.391 54.1213 258.475C54.5372 263.56 54.6066 268.762 54.1891 273.848C53.9762 276.428 53.5672 279 52.5081 281.388C52.2614 281.949 51.9762 282.486 51.6495 283.008C51.6495 283.008 51.6464 283.016 51.6433 283.025C51.6402 283.033 51.6371 283.041 51.6226 283.055C51.3197 283.538 50.9866 284.001 50.6098 284.428C50.3614 284.714 50.0631 284.982 49.7596 285.238C49.7221 285.593 50.1101 285.974 50.4613 285.717C54.8894 282.464 58.6317 278.435 62.0027 274.108C62.068 274.085 62.1386 274.073 62.2122 274.053L62.2319 274.051Z" fill="#F6F8FD"/>
<path fill-rule="evenodd" clip-rule="evenodd" d="M141.501 283.72L182.21 168.72C182.875 166.636 181.212 163.868 178.515 162.564L178.054 162.339C175.357 161.039 172.605 161.676 171.94 163.756L138.078 282.065C137.443 284.054 140.866 285.709 141.501 283.72Z" fill="#3A1F28"/>
<path fill-rule="evenodd" clip-rule="evenodd" d="M246.579 283.72L205.871 168.72C205.206 166.636 206.868 163.868 209.565 162.564L210.027 162.339C212.724 161.039 215.475 161.676 216.141 163.756L250.002 282.065C250.637 284.054 247.214 285.709 246.579 283.72Z" fill="#3A1F28"/>
<path fill-rule="evenodd" clip-rule="evenodd" d="M220.27 159.428H166.886C165.305 159.428 164.023 160.753 164.023 162.387V176.83C164.023 178.464 165.305 179.789 166.886 179.789H220.27C221.852 179.789 223.133 178.464 223.133 176.83V162.387C223.133 160.753 221.852 159.428 220.27 159.428Z" fill="#3A1F28"/>
<path fill-rule="evenodd" clip-rule="evenodd" d="M166.701 35.5634C166.323 34.9829 166.001 34.372 165.749 33.7352C165.271 32.5221 165.032 31.2186 165.088 29.8669C165.167 28.043 165.766 26.3448 166.766 24.8757C166.688 24.6335 166.601 24.3991 166.492 24.1695C165.475 25.4393 164.74 26.9725 164.449 28.6365C164.076 30.7762 164.497 32.7431 165.493 34.2247C165.832 34.7316 166.236 35.1822 166.701 35.5634ZM204.857 18.4076C204.818 18.4423 204.779 18.4813 204.74 18.5159C204.818 18.616 204.887 18.7152 204.961 18.8153C206.73 17.5498 207.287 15.4794 206.17 13.7764C205.892 13.3519 205.531 12.9841 205.114 12.6808C205.027 12.6154 204.944 12.5591 204.852 12.5032C204.635 12.3641 204.405 12.2385 204.166 12.1345C204.166 12.1822 204.157 12.2302 204.153 12.2775C204.361 12.4122 204.561 12.5725 204.749 12.7501C204.775 12.7757 204.801 12.7973 204.822 12.8238C204.892 12.8883 204.957 12.962 205.018 13.0313C206.422 14.6256 206.383 16.9567 204.857 18.4076ZM215.84 42.3434C215.784 43.734 215.436 45.0472 214.866 46.2251C214.61 46.7536 214.602 47.3389 214.792 47.8367C216.992 45.09 217.544 41.2911 215.896 37.9938C214.889 35.975 213.224 34.476 211.268 33.6186C214.145 35.4425 215.993 38.7043 215.84 42.3434ZM155.609 46.0301C155.774 41.9838 158.599 38.5527 162.702 36.7331C163.562 36.3519 164.293 35.793 164.871 35.1128C163.389 33.5792 162.671 31.2441 163.128 28.6582C163.489 26.5739 164.545 24.6894 165.988 23.2775C164.841 21.5312 166.292 18.2044 166.379 16.073C166.631 10.0723 174.946 -0.0779796 182.017 0.208383C182.93 0.0693175 183.873 0 184.838 0C187.676 0 190.319 0.610851 192.527 1.66359C194.739 0.31669 197.733 0.342251 200.45 2.01884C203.914 4.15031 205.822 8.26146 205.27 11.901C205.97 12.2649 206.565 12.7718 206.978 13.4C208.247 15.3321 207.365 17.7275 205.013 18.8972C206.013 20.3706 206.509 22.1425 206.335 23.9486C206.491 24.1652 206.648 24.3779 206.804 24.5898C207.712 25.8288 208.816 27.0119 209.104 28.5971C209.312 29.7625 209.086 30.8846 208.865 31.9984C212.402 32.033 215.77 33.9345 217.4 37.2101C219.321 41.0571 218.252 45.5844 215.071 48.3262C215.293 48.6213 215.61 48.8552 216.001 48.9761C217.822 49.5479 219.039 51.2826 220.098 52.9167C222.108 56.0186 220.498 59.51 217.12 63.562C217.511 61.2875 214.54 60.2149 214.293 59.9034C215.804 61.8061 215.764 63.15 215.601 64.4392C215.468 65.4851 211.423 72.408 204.356 73.9044C193.376 76.2291 178.525 74.9918 174.122 73.1731C172.769 72.6147 168.01 72.7061 161.454 66.8939C164.565 69.865 162.688 70.5781 167.527 72.058C166.636 72.2399 167.48 71.9843 166.624 72.1918C162.979 72.2378 158.974 68.4379 157.121 65.2689C154.237 60.3357 156.105 54.8376 157.552 52.1473C156.235 50.3499 155.518 48.2483 155.609 46.0301Z" fill="#2B121A"/>
<path fill-rule="evenodd" clip-rule="evenodd" d="M172.019 28.0521C172.371 28.8172 172.868 29.3747 173.659 29.8777C173.788 29.96 173.955 30.0601 174.09 30.1294C175.107 30.6536 176.279 30.9491 176.892 31.0574C177.075 31.6509 177.236 32.059 177.48 32.64C178.534 35.151 180.292 37.5753 182.255 39.3896C182.255 39.3896 182.396 46.8251 182.161 49.1983C181.857 52.2725 180.837 53.7827 180.796 53.9998C180.796 53.9998 178.326 58.303 173.482 59.6547C173.471 59.6581 181.058 63.0702 187.769 62.9338C193.936 62.8086 200.25 59.5572 200.221 59.5477C198.97 59.1188 198.007 58.6375 196.705 57.9066C195.885 57.4465 194.17 55.6863 194.17 55.6863C194.136 55.5087 192.691 53.4244 192.665 53.2377C192.625 53.1606 192.023 52.2747 191.542 49.4648C191.2 47.4637 191.401 44.12 191.401 44.12C191.801 44.1764 192.3 44.2379 192.696 44.2513C196.437 44.3795 198.803 42.4894 200.416 39.533C200.767 38.8897 201.065 38.1844 201.353 37.4514C202.237 35.2047 202.652 32.5239 202.887 29.8898C203.045 27.4586 203.147 23.9858 202.937 21.1378C202.869 20.212 202.33 15.531 201.696 13.8895C201.614 13.6755 201.234 12.452 201.173 12.2866C200.224 10.172 199.749 9.15042 198.415 7.61247C197.046 6.03999 195.287 4.87799 193.457 4.17183C189.093 2.48658 183.361 4.45871 180.34 7.7511C179.862 8.27097 179.423 8.82984 179.027 9.41426C178.358 10.3981 177.802 11.4595 177.35 12.5599C177.176 12.9801 177.02 13.4043 176.876 13.8336C176.467 15.077 176.181 16.3632 176.007 17.659C175.928 18.2092 175.363 21.7279 175.815 22.0268C175.803 22.0177 175.67 21.9596 175.644 21.9466C174.718 21.4658 173.699 21.5537 173.143 21.821C172.587 22.0883 172.138 22.561 171.874 23.0886C171.61 23.6163 171.416 24.2293 171.403 24.9268C171.387 25.8019 171.668 27.2875 172.019 28.0521Z" fill="#F8BC9A"/>
<path fill-rule="evenodd" clip-rule="evenodd" d="M182.254 39.3992C188.108 43.1106 190.793 44.4463 191.401 44.12C191.399 44.2946 191.38 44.5303 191.361 44.883C191.316 45.7264 191.447 49.1368 191.447 49.1368C191.447 49.1368 187.463 50.4153 182.311 43.5114C182.303 42.0328 182.256 39.4165 182.254 39.3992Z" fill="#F7A77F"/>
<path fill-rule="evenodd" clip-rule="evenodd" d="M176.276 28.7505C175.555 28.4027 174.953 27.8975 174.522 27.2615C174.304 26.947 174.13 26.6026 173.995 26.2409C173.93 26.0593 173.871 25.8735 173.831 25.6829C173.795 25.4914 173.768 25.2964 173.724 25.0989C173.706 25.2969 173.706 25.4979 173.697 25.7019C173.707 25.9042 173.739 26.1061 173.789 26.3037C173.89 26.6996 174.065 27.0766 174.295 27.4166C174.757 28.092 175.481 28.6102 176.276 28.7505Z" fill="#3A1F28"/>
<path fill-rule="evenodd" clip-rule="evenodd" d="M194.145 44.0728C193.586 44.0663 193.079 44.1581 192.513 44.084C191.947 44.0095 191.306 43.9523 190.752 43.8232C190.195 43.7145 189.648 43.559 189.117 43.367C188.585 43.1751 188.069 42.9308 187.625 42.5638C187.804 42.7904 188.033 42.9745 188.269 43.1457C188.514 43.3021 188.771 43.4437 189.036 43.562C189.568 43.8011 190.131 43.9584 190.695 44.091C191.264 44.2001 191.837 44.2894 192.415 44.3197C192.992 44.3518 193.59 44.3227 194.145 44.0728Z" fill="#3A1F28"/>
<path fill-rule="evenodd" clip-rule="evenodd" d="M206.168 13.779C205.89 13.3545 205.529 12.9862 205.111 12.683C205.025 12.6175 204.942 12.5612 204.851 12.5053C204.634 12.3663 204.403 12.2406 204.164 12.1367C204.164 12.1843 204.156 12.2324 204.151 12.2796C204.36 12.4144 204.56 12.5747 204.746 12.7518C204.773 12.7778 204.799 12.7995 204.82 12.8259C204.89 12.8905 204.955 12.9641 205.017 13.0334C206.42 14.6277 206.381 16.9589 204.855 18.4098C204.816 18.4449 204.777 18.4834 204.738 18.5181C204.816 18.6182 204.886 18.7174 204.96 18.817C206.729 17.552 207.284 15.4816 206.168 13.779ZM205.577 19.8715C206.396 21.5407 205.212 23.5639 203.348 23.5474H203.074C203.04 22.8291 203.031 22.0645 202.958 21.3341C202.867 20.4459 202.817 19.651 202.674 18.8408C202.509 18.9275 202.473 18.9777 202.291 19.0384C202.291 19.0423 202.286 19.0466 202.282 19.0466C202.212 19.0683 202.143 19.086 202.073 19.1077C202.043 19.1159 202.013 19.125 201.982 19.1333C201.874 19.1597 201.761 19.1814 201.643 19.1987C201.621 19.203 201.604 19.2069 201.582 19.2113C201.461 19.2286 201.335 19.2333 201.213 19.2416C200.804 19.268 200.4 19.2416 200.004 19.1597C199.779 19.112 199.557 19.0557 199.344 18.973C199.4 18.9686 199.457 18.96 199.513 18.9513C200.052 18.8738 200.518 18.6615 200.896 18.3621C201.474 17.8947 201.831 17.2145 201.851 16.4603C201.856 16.3606 201.856 16.2571 201.847 16.1527C201.834 16.014 201.812 15.8758 201.778 15.7372C201.765 15.6891 201.752 15.6419 201.734 15.5938C201.722 15.5462 201.708 15.4989 201.691 15.4508C201.678 15.4123 201.661 15.3772 201.648 15.3425C201.626 15.2862 201.604 15.226 201.578 15.174C201.56 15.1394 201.539 15.1047 201.522 15.0696C201.508 15.044 201.495 15.022 201.482 14.9964C201.465 14.9656 201.452 14.9357 201.435 14.9093C201.413 14.8747 201.391 14.8443 201.369 14.8097C201.335 14.7624 201.3 14.71 201.265 14.6624L201.187 14.5714C201.165 14.5415 201.143 14.5151 201.122 14.4895C201.117 14.4804 201.109 14.4722 201.105 14.4679C201.043 14.3851 200.987 14.3028 200.93 14.2291C200.939 14.2556 200.943 14.2811 200.948 14.3076C201.052 14.7191 201.083 15.1567 201.022 15.5678C201.013 15.6419 201 15.7108 200.991 15.7844C200.917 16.209 200.791 16.634 200.582 17.0408C200.496 17.2102 200.391 17.3791 200.27 17.5394C200.057 17.8124 199.792 18.0545 199.479 18.2148C199.048 18.4488 198.54 18.5099 198.118 18.3669C198.114 18.3712 198.114 18.3712 198.11 18.3669C198.057 18.3496 198.009 18.3279 197.962 18.3058C198.431 18.1719 198.779 17.9163 199.026 17.6213C199.261 17.3185 199.414 16.9806 199.522 16.6037C199.631 16.2354 199.687 15.8412 199.731 15.4296C199.735 15.4253 199.735 15.4162 199.735 15.4123C199.774 15.0484 199.74 14.697 199.631 14.3465C199.57 14.1598 199.487 13.9735 199.383 13.7877C199.201 14.3115 198.735 14.7915 198.543 14.9561C197.816 15.5799 196.824 15.7649 196.798 15.771C196.772 15.7775 196.917 15.5557 197.2 15.2134C197.483 14.8708 197.877 14.353 197.997 13.6616C197.697 14.2556 197.323 14.8227 196.88 15.356C195.863 16.5902 194.489 17.6603 192.864 18.4795H192.859C192.824 18.4752 192.724 18.5315 192.707 18.5614C192.199 18.8127 191.668 19.0384 191.116 19.2333V19.2377C190.66 19.4062 187.1 20.2298 185.749 20.29C185.449 20.3034 185.145 20.3116 184.836 20.3116C183.745 20.3116 182.684 20.2207 181.667 20.0478C181.663 20.0517 181.655 20.0478 181.65 20.0431C181.094 19.9568 180.55 19.8351 180.02 19.6965C179.985 19.8351 179.959 19.9694 179.933 20.108C179.937 20.1124 179.937 20.1124 179.942 20.1167C180.963 21.2647 181.376 22.7338 181.206 24.1587C181.098 25.0771 180.746 25.9783 180.159 26.7581C180.051 26.7845 179.942 26.81 179.833 26.8317C180.337 25.9484 180.577 24.9563 180.533 23.9724C180.498 23.0804 180.233 22.1966 179.729 21.4164C179.725 21.4467 179.72 21.4775 179.716 21.5078C179.707 21.5988 179.694 21.6854 179.685 21.7716C179.968 22.4436 180.142 23.1579 180.151 23.8424C180.155 24.319 180.081 24.7786 179.916 25.2028C179.672 25.8271 179.164 26.3426 178.916 26.9621C178.873 27.0661 178.838 27.1744 178.812 27.287C178.786 27.4079 178.773 27.5292 178.777 27.6509C178.786 28.4173 179.312 29.1711 180.055 29.3968C179.116 29.1109 177.877 28.7032 177.369 27.7766C177.291 27.6332 177.239 27.4945 177.208 27.3563C177.173 27.2 177.165 27.0483 177.178 26.901C177.243 26.1039 177.899 25.3631 178.347 24.7002C178.495 24.4836 178.551 24.2583 178.542 24.0287C178.121 23.6172 177.647 23.1796 177.46 23.1103C176.895 22.9028 176.369 22.5471 175.913 22.0662C174.987 21.5858 173.827 21.4463 173.157 21.8106C172.488 22.175 172.225 22.4626 171.955 22.9279C171.945 22.9448 171.761 23.3087 171.743 23.352C171.531 23.8398 171.428 24.2809 171.405 24.8896C171.385 24.8874 171.402 25.0633 171.382 25.0611C167.786 24.6842 165.434 21.2773 166.141 17.7426C166.261 17.1452 166.357 16.5768 166.377 16.0751C166.629 10.0745 174.944 -0.0754745 182.015 0.210455C182.928 0.0713894 183.871 0.0020752 184.836 0.0020752C187.674 0.0020752 190.317 0.612923 192.525 1.66566C194.737 0.318762 197.732 0.344323 200.448 2.02091C203.912 4.15238 205.82 8.26405 205.268 11.9032C205.968 12.2671 206.563 12.7739 206.976 13.4017C208.245 15.3343 207.363 17.7296 205.012 18.8993C205.223 19.2108 205.412 19.5357 205.577 19.8715Z" fill="#2B121A"/>
<path fill-rule="evenodd" clip-rule="evenodd" d="M258.928 277.115C259.331 276.889 259.724 276.622 260.098 276.325C260.114 276.31 260.129 276.29 260.145 276.285C260.212 276.24 260.259 276.201 260.316 276.151C260.327 276.136 260.342 276.126 260.353 276.111C259.529 273.707 258.627 270.935 257.984 268.926C262.261 245.411 265.768 214.95 269.838 191.398C270.471 187.73 274.072 161.093 274.808 153.463C275.147 149.96 273.605 146.541 270.759 144.457C267.748 142.251 246.878 132.625 238.757 129.902C228.613 126.5 217.208 123.328 207.23 116.587C207.218 116.585 198.53 117.402 198.426 117.403C186.398 117.548 192.665 135.472 195.379 147.153C196.066 150.106 196.768 152.748 197.431 154.606C198.09 156.451 199.885 157.637 201.847 157.539C201.858 157.538 201.869 157.538 201.881 157.538C203.082 157.473 204.281 157.414 205.48 157.359C205.49 157.357 205.509 157.352 205.526 157.353C226.109 156.354 256.135 154.687 256.135 154.687C250.077 182.337 253.367 266.296 253.367 266.296L251.523 269.541C251.613 269.61 251.719 269.693 251.824 269.777C252.986 271.124 256.053 274.648 258.525 277.33C258.659 277.262 258.793 277.194 258.928 277.115Z" fill="#F8BC9A"/>
<path fill-rule="evenodd" clip-rule="evenodd" d="M251.983 273.118C251.983 273.118 253.893 275.471 255.999 278.028C256.251 278.332 256.505 278.642 256.758 278.952C257.022 279.258 257.269 279.569 257.526 279.867C261.719 280.242 267.887 279.983 267.852 279.961C268.073 279.957 268.047 279.844 267.696 279.605C266.393 278.701 263.39 278.441 260.571 275.936C260.501 275.997 260.432 276.058 260.354 276.113C260.345 276.126 260.328 276.138 260.318 276.15C260.258 276.199 260.211 276.24 260.147 276.287C260.129 276.292 260.117 276.308 260.097 276.324C259.6 276.716 259.07 277.06 258.524 277.334C256.058 274.654 252.988 271.126 251.824 269.777C251.717 269.691 251.611 269.612 251.524 269.541C251.204 269.288 251.024 269.137 251.024 269.137L250.078 280.171C250.078 280.171 250.513 279.684 251.398 279.961L251.983 273.118Z" fill="#050324"/>
<path fill-rule="evenodd" clip-rule="evenodd" d="M173.983 152.733C177.036 158.066 182.481 161.714 188.67 162.726C190.458 163.021 202.482 160.375 216.443 160.38C223.585 160.376 229.753 160.389 232.33 160.461L233.79 160.341C229.333 181.055 228.882 266.56 228.882 266.56L227.245 269.388C228.459 270.817 231.322 274.163 233.642 276.721C234.182 276.455 234.702 276.123 235.196 275.747C235.217 275.731 235.229 275.713 235.248 275.708C235.308 275.663 235.356 275.626 235.414 275.57C235.418 275.564 235.431 275.556 235.436 275.555C234.712 273.365 233.959 270.968 233.401 269.184C233.836 266.917 250.5 184.054 252.282 178.2C253.916 172.828 255.023 163.52 256.678 158.158C257.569 155.262 256.902 152.112 254.917 149.826L254.601 149.462L254.595 149.459C254.482 149.374 254.368 149.284 254.255 149.204L254.259 149.198C251.28 146.904 248.315 144.607 244.812 143.23C242.006 142.123 239.194 141.028 236.37 139.951C231.688 138.171 226.972 136.44 222.211 134.797C216.782 132.927 216.941 134.006 211.404 132.742C207.572 125.852 199.787 121.711 191.491 122.304C190.26 122.395 189.023 122.59 187.782 122.893C182.16 124.267 177.587 127.653 174.722 132.046C174.388 132.548 174.083 133.063 173.797 133.593C172 136.941 171.14 140.757 171.464 144.642C171.552 145.65 171.716 146.67 171.966 147.684C172.411 149.497 173.093 151.184 173.983 152.733Z" fill="#F8BC9A"/>
<path fill-rule="evenodd" clip-rule="evenodd" d="M227.04 269.736C227.128 269.802 227.231 269.885 227.334 269.968C228.469 271.304 231.452 274.795 233.859 277.457C233.992 277.389 234.126 277.32 234.257 277.247C234.658 277.025 235.045 276.771 235.418 276.479C235.435 276.464 235.446 276.447 235.465 276.442C235.531 276.395 235.574 276.358 235.634 276.308C235.641 276.296 235.66 276.286 235.667 276.274L235.672 276.273C235.594 276.039 235.515 275.801 235.434 275.558C235.429 275.559 235.421 275.566 235.417 275.573C235.357 275.623 235.309 275.661 235.249 275.706C235.229 275.711 235.218 275.729 235.196 275.745C234.705 276.123 234.182 276.457 233.642 276.722C231.323 274.162 228.458 270.817 227.243 269.388L227.04 269.736Z" fill="#F8BC9A"/>
<path fill-rule="evenodd" clip-rule="evenodd" d="M224.812 276.778C224.812 276.778 225.332 276.939 226.203 277.221L227.243 272.521C227.243 272.521 232.732 279.667 232.98 279.962C232.98 279.962 242.773 279.963 242.728 279.577C242.692 279.555 242.659 279.527 242.629 279.509C242.844 279.502 242.822 279.394 242.474 279.155C241.203 278.254 238.418 277.853 235.666 275.367C235.598 275.425 235.529 275.483 235.45 275.539C235.446 275.545 235.438 275.552 235.434 275.558C235.429 275.559 235.421 275.566 235.417 275.573C235.357 275.623 235.309 275.661 235.249 275.706C235.229 275.711 235.218 275.729 235.196 275.745C234.705 276.122 234.182 276.456 233.642 276.722C231.322 274.162 228.458 270.817 227.243 269.388C227.2 269.336 227.156 269.285 227.119 269.238C227.014 269.15 226.907 269.073 226.822 269.001C226.512 268.747 226.336 268.599 226.336 268.599L224.812 276.778Z" fill="#050324"/>
<path fill-rule="evenodd" clip-rule="evenodd" d="M255.971 136.351C258.264 135.843 211.944 119.412 211.944 119.412C211.944 119.412 206.955 112.938 206.785 111.998C206.785 111.998 196.841 112.709 186.904 113.343L181.046 113.909C178.389 114.282 177.6 115.823 176.165 118.081C170.344 127.246 168.172 144.898 171.129 151.059C181.5 172.663 221.302 161.041 222.042 160.381C240.384 144.048 250.426 137.578 255.971 136.351Z" fill="#2528A1"/>
<path fill-rule="evenodd" clip-rule="evenodd" d="M253.873 172.447C254.067 171.823 258.593 157.129 256.792 153.331C255.001 149.554 247.618 144.54 247.304 144.328L247.061 144.687C247.136 144.738 254.659 149.847 256.399 153.516C258.128 157.163 253.505 172.167 253.458 172.319L253.873 172.447Z" fill="#462831"/>
<path fill-rule="evenodd" clip-rule="evenodd" d="M194.813 73.8883V73.8931C194.817 73.929 194.826 73.9697 194.835 74.0061C196.651 83.9413 200.885 93.1483 203.353 102.93C203.979 105.422 204.674 107.907 205.183 110.435C205.431 111.666 205.67 112.883 205.93 114.032C206.187 115.177 206.469 116.249 206.817 117.19C206.817 117.194 206.817 117.199 206.822 117.204C206.848 117.412 206.891 117.616 206.948 117.824C206.956 117.86 206.97 117.901 206.978 117.937C208.025 121.669 211.429 124.135 215.154 123.845C216.162 123.768 217.174 123.66 218.183 123.524C230.422 121.868 233.734 122.122 249.616 118.67C251.906 118.172 256.027 117.507 259.721 116.951C259.795 116.869 259.873 116.788 259.947 116.706C260.147 116.747 260.329 116.769 260.49 116.774C265.623 116.959 269.509 116.394 274.107 114.24C276.237 113.24 279.701 110.897 280.939 108.662C280.327 108.142 278.171 109.485 276.958 109.598C277.554 109.133 279.045 107.323 279.606 106.898C280.279 106.382 279.805 105.373 279.032 105.667C278.649 105.807 277.758 106.21 276.624 106.726C276.75 106.612 276.872 106.504 276.993 106.4C277.632 105.839 277.093 104.861 276.341 105.21C275.485 105.608 272.029 107.526 269.078 109.178L269.07 109.182C267.966 109.291 266.858 109.386 265.745 109.431C267.501 108.535 270.052 107.119 270.17 106.391C270.352 105.278 261.099 108.309 258.825 108.716C258.126 108.838 257.356 109.223 256.622 109.707C252.328 110.259 246.739 112.422 243.252 112.29C234.921 111.978 227.48 110.159 219.056 111.092C218.265 111.177 217.466 111.272 216.662 111.372C216.653 109.974 216.566 108.535 216.436 107.101V107.096C216.375 106.468 216.31 105.839 216.236 105.214C215.744 100.944 214.962 96.89 214.675 94.3292C213.676 85.484 212.659 76.6345 211.338 67.8353C210.724 63.7495 207.934 60.7728 204.723 59.646C203.362 59.1712 201.927 59.0265 200.554 59.2751C200.55 59.2708 200.545 59.2708 200.541 59.2751H200.537L197.29 67.5727L194.813 73.8883Z" fill="#F8BC9A"/>
<path fill-rule="evenodd" clip-rule="evenodd" d="M169.591 60.036L192.405 83.558L194.287 79.9184L199.01 68.3504C199.01 68.3504 203.589 59.5191 202.489 59.27C201.389 59.0213 198.807 58.8753 198.118 58.8212C194.071 58.5045 175.725 58.1497 172.109 59.5837L169.591 60.036Z" fill="#F8BC9A"/>
<path fill-rule="evenodd" clip-rule="evenodd" d="M162.393 62.7951L163.41 66.1158L170.916 90.61C173.128 84.3802 175.293 78.1322 177.292 71.8253C177.605 70.8393 177.766 69.8481 177.792 68.8802L167.4 60.7499C166.118 60.8859 165.831 59.3926 164.536 60.3158C163.644 60.9535 162.953 61.813 162.393 62.7951Z" fill="#F8BC9A"/>
<path fill-rule="evenodd" clip-rule="evenodd" d="M198.337 131.216C198.859 131.18 199.381 131.143 199.902 131.112C200.05 131.098 200.198 131.089 200.345 131.08C200.241 131.03 200.132 130.98 200.024 130.935C199.654 130.768 199.259 130.614 198.85 130.465L198.337 131.216Z" fill="#F8BC9A"/>
<path fill-rule="evenodd" clip-rule="evenodd" d="M198.337 131.215C198.858 131.18 199.38 131.143 199.901 131.111C200.049 131.098 200.197 131.089 200.345 131.08C204.826 130.79 209.324 130.537 213.805 130.668C215.161 130.691 216.461 132.365 216.665 132.175C214.657 134.084 212.228 135.5 209.589 136.663L230.082 133.993L234.711 133.306C234.994 133.288 235.28 133.233 235.559 133.134C236.258 132.899 236.889 132.406 237.358 131.727L247.276 119.172L254.452 110.087L262.067 100.446C262.936 99.1749 263.04 97.6547 262.588 96.433C262.48 96.1388 262.346 95.8629 262.176 95.6094C262.141 95.5553 262.106 95.5011 262.067 95.4513C261.467 94.6412 260.559 94.1213 259.455 94.1798L224.158 95.9807C223.132 96.0305 222.159 96.6093 221.507 97.5594L216.235 105.214L211.567 111.996L207.26 118.258L207.134 118.434L203.052 124.361C203.052 124.366 203.048 124.366 203.048 124.366L200.792 127.646L198.85 130.465L198.337 131.215Z" fill="#050324"/>
<path fill-rule="evenodd" clip-rule="evenodd" d="M161.597 60.1935L162.392 62.7946L163.409 66.1158L170.916 90.6099L172.046 94.3019L178.087 114.032L178.052 114.091C178.091 114.05 178.797 116.626 178.797 116.626L206.279 116.156L207.06 97.6815C209.829 94.9037 211.58 90.791 211.58 86.2079C211.58 82.4752 210.419 79.064 208.494 76.4218C208.446 76.3542 208.399 76.2862 208.342 76.2229L204.722 59.646L204.482 58.5464L200.762 58.7093L200.541 59.2703V59.2751C200.541 59.2751 198.361 63.4674 188.579 63.684C178.797 63.9007 171.937 59.2751 171.937 59.2751L171.003 58.2614L161.597 60.1935Z" fill="#2528A1"/>
<path fill-rule="evenodd" clip-rule="evenodd" d="M190.517 67.1499C190.767 67.1499 190.97 67.3522 190.97 67.6009C190.97 67.8491 190.767 68.0514 190.517 68.0514C190.268 68.0514 190.065 67.8491 190.065 67.6009C190.065 67.3522 190.268 67.1499 190.517 67.1499ZM190.517 68.4847C191.006 68.4847 191.405 68.0883 191.405 67.6009C191.405 67.1135 191.006 66.7167 190.517 66.7167C190.028 66.7167 189.631 67.1135 189.631 67.6009C189.631 68.0883 190.028 68.4847 190.517 68.4847Z" fill="#050324"/>
<path fill-rule="evenodd" clip-rule="evenodd" d="M191.387 70.6157C191.636 70.6157 191.839 70.818 191.839 71.0667C191.839 71.315 191.636 71.5173 191.387 71.5173C191.138 71.5173 190.935 71.315 190.935 71.0667C190.935 70.818 191.138 70.6157 191.387 70.6157ZM191.387 71.9505C191.876 71.9505 192.274 71.5541 192.274 71.0667C192.274 70.5793 191.876 70.1825 191.387 70.1825C190.898 70.1825 190.5 70.5793 190.5 71.0667C190.5 71.5541 190.898 71.9505 191.387 71.9505Z" fill="#050324"/>
<path fill-rule="evenodd" clip-rule="evenodd" d="M216.665 132.175C214.657 134.084 212.228 135.5 209.589 136.662L230.082 133.993L234.712 133.305C234.994 133.288 235.28 133.233 235.559 133.134C236.258 132.898 236.889 132.405 237.358 131.727L247.276 119.172L254.452 110.087L262.067 100.446C262.936 99.1745 263.04 97.6543 262.588 96.433C262.48 96.1388 262.346 95.8629 262.176 95.6094C261.659 95.2473 261.032 95.0484 260.324 95.0844L225.027 96.8853C224.002 96.9351 223.029 97.5139 222.377 98.464L216.435 107.096V107.101L213.192 111.806L207.938 119.439L207.72 119.751L200.023 130.935L199.901 131.111C200.05 131.098 200.197 131.089 200.345 131.079C204.826 130.79 209.324 130.537 213.805 130.668C215.161 130.69 216.461 132.364 216.665 132.175Z" fill="#739DDC"/>
<path fill-rule="evenodd" clip-rule="evenodd" d="M156.118 123.465C157.048 123.877 157.995 124.262 158.951 124.624C170.564 128.967 173.403 130.767 189.05 135.242C191.305 135.889 195.261 137.255 198.79 138.518C198.798 138.513 198.807 138.513 198.815 138.509C199.816 139.151 201.115 139.689 202.11 139.373C204.666 138.563 207.213 137.717 209.59 136.663C212.229 135.5 214.658 134.084 216.666 132.175C216.462 132.365 215.162 130.691 213.806 130.668C209.325 130.537 204.826 130.79 200.346 131.08C200.198 131.089 200.05 131.098 199.902 131.111C199.381 131.143 198.859 131.179 198.338 131.215L198.85 130.465C198.776 130.437 198.699 130.41 198.62 130.383C199.368 129.492 200.094 128.578 200.793 127.646L203.049 124.366C203.049 124.366 203.053 124.366 203.053 124.361C203.127 124.162 203.14 123.954 203.027 123.782C202.341 123.769 201.727 124.189 201.163 124.597C199.094 126.103 197.077 127.691 195.121 129.361C191.814 128.51 188.302 127.782 186.185 126.547C178.909 122.307 173.086 117.15 165.184 113.973C164.44 113.675 163.689 113.381 162.933 113.087C165.601 107.54 167.357 100.555 168.639 96.9805C168.904 96.2384 169.169 95.4967 169.439 94.7546C169.934 93.3748 170.426 91.9902 170.917 90.6104L163.41 66.1162L162.393 62.795C161.729 63.9487 161.237 65.2653 160.802 66.5685C160.725 66.8037 160.651 67.0389 160.573 67.2698C157.191 77.6257 157.052 88.624 154.796 99.2515C154.261 101.767 153.788 104.305 153.132 106.798C152.497 109.219 151.832 111.585 151.615 113.603V113.607C151.549 113.802 151.497 114.001 151.458 114.209C151.454 114.245 151.445 114.286 151.436 114.326C150.728 118.141 152.68 121.954 156.118 123.465Z" fill="#F8BC9A"/>
<path fill-rule="evenodd" clip-rule="evenodd" d="M231.025 114.148C232.727 114.586 235.507 113.668 237.236 112.096C238.965 110.524 238.987 108.894 237.286 108.455C235.585 108.017 232.804 108.935 231.075 110.507C229.346 112.079 229.324 113.709 231.025 114.148Z" fill="#050324"/>
<path fill-rule="evenodd" clip-rule="evenodd" d="M197.297 35.5802C196.736 35.2899 196.123 35.1964 195.54 35.158C194.953 35.118 194.385 35.1234 193.84 35.1002C192.751 35.051 191.737 34.8889 190.777 34.0187C190.937 34.7192 191.427 35.3056 191.991 35.6488C192.556 36.0017 193.196 36.1601 193.806 36.1801C194.421 36.2071 195.011 36.1136 195.58 35.9969C196.153 35.878 196.702 35.7375 197.297 35.5802Z" fill="#271018"/>
<path fill-rule="evenodd" clip-rule="evenodd" d="M198.359 33.0142C198.359 33.1338 198.457 33.2308 198.576 33.2308C198.696 33.2308 198.793 33.1338 198.793 33.0142C198.793 32.8947 198.696 32.7976 198.576 32.7976C198.457 32.7976 198.359 32.8947 198.359 33.0142Z" fill="#271018"/>
<path fill-rule="evenodd" clip-rule="evenodd" d="M198.793 17.5086C198.487 17.3349 198.103 17.2808 197.747 17.3761C197.388 17.4644 197.081 17.6863 196.816 17.9293C196.287 18.4284 195.915 19.0561 195.639 19.7185C195.117 21.062 195.043 22.5393 195.296 23.9369C195.542 25.3392 196.085 26.6753 196.823 27.8792C197.007 28.1846 197.224 28.4636 197.342 28.7725C197.467 29.0762 197.468 29.4449 197.207 29.655C196.954 29.8647 196.586 29.9136 196.245 29.9028C195.898 29.8894 195.552 29.8166 195.219 29.7048C195.543 29.8404 195.886 29.9422 196.241 29.973C196.59 30.0003 196.975 29.9808 197.287 29.7542C197.44 29.6424 197.551 29.4596 197.575 29.2681C197.605 29.0762 197.566 28.8869 197.507 28.7136C197.384 28.3614 197.171 28.0737 197.004 27.7735C196.325 26.5613 195.814 25.2504 195.585 23.8879C195.359 22.5289 195.447 21.1139 195.914 19.8264C196.164 19.1935 196.512 18.5843 196.966 18.0783C197.197 17.8297 197.471 17.6208 197.786 17.4982C198.101 17.3739 198.462 17.3878 198.793 17.5086Z" fill="#271018"/>
<path d="M338.405 265.372C335.898 267.228 333.032 268.524 330.25 269.891C328.725 270.644 327.199 271.397 325.674 272.158C324.344 272.824 322.973 273.45 321.704 274.23C320.532 274.95 319.423 275.875 318.85 277.15C318.764 277.334 318.702 277.525 318.641 277.716C319.367 277.369 320.06 277.023 320.593 276.863C322.666 276.229 324.793 275.809 326.921 275.421C331.143 274.648 335.467 273.962 339.301 272.034C343.134 270.106 346.495 266.663 347.098 262.408C347.375 260.471 346.929 258.303 345.611 256.931C345.073 257.95 344.485 258.945 343.798 259.885C342.286 261.966 340.473 263.839 338.396 265.372L338.405 265.372Z" fill="#3F51BA"/>
<path d="M341.18 243.668C336.898 247.594 331.852 250.268 326.533 252.519C325.103 253.122 323.657 253.716 322.297 254.482C320.961 255.23 319.787 256.198 318.664 257.238C317.654 258.177 316.521 259.127 315.798 260.324C315.559 260.717 315.403 261.108 315.314 261.515C316.318 261.063 317.329 260.511 318.05 260.297C320.122 259.663 322.249 259.243 324.377 258.856C328.6 258.082 332.924 257.397 336.757 255.477C340.591 253.549 343.952 250.105 344.555 245.851C344.782 244.245 344.51 242.485 343.671 241.143C342.874 242.02 342.053 242.872 341.18 243.676L341.18 243.668Z" fill="#3F51BA"/>
<path d="M335.463 231.515C332.869 233.159 330.172 234.623 327.535 236.186C324.914 237.739 322.504 239.511 320.097 241.357C319.302 241.969 318.475 242.574 317.774 243.308C318.304 243.056 318.794 242.83 319.187 242.706C321.26 242.072 323.387 241.652 325.515 241.265C329.738 240.491 334.062 239.806 337.895 237.886C341.728 235.966 345.089 232.514 345.693 228.26C345.906 226.786 345.696 225.182 345.014 223.886C344.087 224.815 343.126 225.72 342.131 226.576C340.036 228.382 337.796 230.025 335.463 231.515Z" fill="#3F51BA"/>
<path d="M311.101 278.137C311.973 278.381 313.277 279.11 314.484 279.552C314.431 279.405 314.378 279.258 314.325 279.119C313.766 277.754 313.05 276.393 312.042 275.294C310.054 273.129 307.1 272.033 304.482 270.848C301.631 269.56 298.772 268.298 295.999 266.844C292.074 264.781 288.379 262.317 285.303 259.153C284.32 260.546 284.035 262.475 284.314 264.201C285.005 268.442 288.424 271.82 292.295 273.67C296.166 275.519 300.503 276.121 304.743 276.807C306.879 277.154 309.017 277.533 311.093 278.129L311.101 278.137Z" fill="#3F51BA"/>
<path d="M345.886 204.082C341.387 207.906 335.922 210.268 330.867 213.239C328.336 214.725 325.766 216.327 323.77 218.518C323.054 219.31 322.422 220.182 321.924 221.126C322.259 220.97 322.578 220.839 322.84 220.758C324.912 220.125 327.04 219.705 329.168 219.317C333.39 218.544 337.714 217.858 341.547 215.93C345.389 214.002 348.742 210.558 349.345 206.304C349.572 204.69 349.3 202.922 348.444 201.581C347.656 202.473 346.793 203.31 345.878 204.09L345.886 204.082Z" fill="#3F51BA"/>
<path d="M308.835 206.99C307.085 204.431 305.302 201.89 303.641 199.263C302.083 196.791 300.769 194.189 299.88 191.405C299.809 191.192 299.763 190.979 299.7 190.765C298.942 191.525 298.345 192.471 297.972 193.462C296.456 197.482 297.734 202.114 300.167 205.655C302.6 209.196 306.06 211.872 309.39 214.584C311.063 215.948 312.729 217.345 314.241 218.894C314.579 219.241 314.955 219.769 315.364 220.345C315.201 218.311 314.603 216.32 313.686 214.476C312.354 211.817 310.517 209.442 308.844 206.998L308.835 206.99Z" fill="#3F51BA"/>
<path d="M306.813 256.381C302.598 251.759 296.461 249.664 291.741 245.681C289.596 243.866 287.731 241.714 286.216 239.348C285.831 238.738 285.462 238.112 285.125 237.468C284.293 238.601 283.849 240.079 283.799 241.508C283.65 245.801 286.341 249.782 289.783 252.351C293.225 254.928 297.35 256.36 301.378 257.859C303.4 258.613 305.423 259.408 307.351 260.395C308.086 260.766 309.095 261.609 310.092 262.262C309.947 261.671 309.785 261.098 309.549 260.542C308.903 258.998 307.939 257.617 306.813 256.381Z" fill="#3F51BA"/>
<path d="M299.154 224.365C297.081 221.401 295.17 218.302 293.789 214.976C293.317 215.589 292.928 216.274 292.656 216.99C291.14 221.01 292.418 225.642 294.851 229.183C297.284 232.724 300.745 235.4 304.074 238.112C305.747 239.476 307.413 240.873 308.926 242.422C309.357 242.866 309.852 243.597 310.381 244.336C310.228 242.351 309.547 240.395 308.664 238.6C306.129 233.469 302.413 229.034 299.154 224.365Z" fill="#3F51BA"/>
<path d="M306.944 271.022C308.319 271.601 309.726 272.146 310.99 272.95C312.12 273.658 313.065 274.577 313.849 275.656C314.608 276.703 315.171 277.903 315.62 279.114C315.823 279.662 316.009 280.227 316.162 280.793C316.326 281.119 316.499 281.445 316.688 281.762C317.168 282.568 318.467 281.994 318.19 281.084C318.154 280.961 318.118 280.838 318.074 280.716C317.808 280.268 317.657 279.768 317.62 279.241C317.522 278.938 317.432 278.627 317.334 278.324C317.441 278.28 317.555 278.228 317.661 278.184C317.697 277.944 317.749 277.703 317.818 277.471C318.256 276.05 319.228 274.939 320.413 274.061C321.589 273.185 322.936 272.584 324.258 271.952C325.801 271.223 327.343 270.486 328.877 269.75C331.839 268.32 334.919 267.003 337.64 265.126C340.831 262.924 343.42 259.993 345.315 256.641C345.147 256.496 344.97 256.352 344.777 256.224C342.66 254.92 339.912 255.627 337.633 256.62C332.691 258.755 328.311 262.024 324.572 265.872C322.017 268.497 318.61 272.09 316.573 275.693C315.935 273.455 315.38 271.199 315.021 268.848C314.739 267.006 314.556 265.154 314.439 263.284C314.154 262.4 314.311 261.34 314.664 260.515C315.282 259.065 316.528 258.013 317.659 256.973C318.758 255.957 319.89 254.966 321.185 254.202C322.454 253.455 323.836 252.903 325.209 252.36C328.194 251.186 331.142 249.88 333.927 248.29C337.461 246.278 340.678 243.737 343.482 240.801C343.141 240.347 342.736 239.96 342.242 239.65C340.125 238.346 337.377 239.053 335.098 240.046C330.156 242.181 325.776 245.45 322.037 249.298C319.587 251.813 316.34 255.213 314.283 258.667C314.28 257.834 314.277 257.001 314.3 256.175C314.398 252.213 314.762 248.294 315.307 244.396C315.504 244.333 315.708 244.263 315.913 244.184C316.642 242.888 317.833 241.928 319.009 241.06C321.532 239.203 324.174 237.484 326.868 235.896C329.571 234.307 332.341 232.808 335.001 231.146C338.514 228.945 341.788 226.361 344.782 223.487C344.415 222.926 343.958 222.442 343.38 222.084C341.263 220.779 338.515 221.486 336.237 222.479C331.294 224.614 326.914 227.883 323.175 231.732C320.918 234.053 318.002 237.123 315.947 240.289C316.5 237.1 317.162 233.933 317.906 230.772C318.589 227.852 319.322 224.94 320.072 222.035C320.236 221.965 320.407 221.879 320.57 221.801C321.155 220.335 322.106 218.977 323.112 217.889C325.124 215.714 327.703 214.104 330.268 212.659C333.037 211.093 335.901 209.699 338.679 208.167C342.117 206.264 345.473 204.033 348.179 201.183C347.856 200.777 347.485 200.415 347.025 200.137C344.907 198.832 342.16 199.539 339.881 200.532C334.939 202.667 330.559 205.936 326.819 209.785C325.296 211.346 323.476 213.261 321.815 215.304C323.201 209.95 324.555 204.59 325.659 199.185C325.806 199.083 325.943 198.972 326.089 198.862C326.577 197.489 327.431 196.207 328.387 195.088C330.242 192.908 332.417 190.969 334.45 188.958C336.603 186.83 338.757 184.701 340.911 182.572C343.872 179.65 347.196 176.776 349.633 173.321C349.046 172.534 348.288 171.9 347.349 171.583C344.996 170.788 342.476 172.091 340.472 173.565C336.132 176.759 332.598 180.916 329.808 185.509C329.029 186.79 328.147 188.27 327.292 189.833C327.739 186.663 328.061 183.479 328.226 180.257C328.453 180.071 328.67 179.818 328.887 179.557C328.904 179.219 328.921 178.88 328.946 178.541C329.051 176.996 329.188 175.458 329.409 173.927C329.823 171.145 330.553 168.414 331.781 165.878C332.994 163.358 334.607 161.069 336.113 158.716C338.613 154.814 340.871 150.736 342.845 146.532C342.269 146.273 341.647 146.106 340.995 146.104C338.511 146.095 336.537 148.137 335.107 150.167C332.007 154.57 329.971 159.641 328.788 164.874C328.504 166.143 328.19 167.578 327.903 169.078C327.429 164.988 326.528 160.966 325.241 157.019C324.757 156.412 324.281 155.804 323.821 155.179C322.859 153.898 321.938 152.591 321.049 151.258C319.468 148.885 317.985 146.445 316.623 143.943C315.159 141.262 313.866 138.487 312.54 135.729C311.231 132.987 309.906 130.254 308.63 127.503C308.092 126.344 307.594 125.167 307.187 123.964C306.108 124.772 305.261 125.972 304.779 127.245C303.263 131.265 304.541 135.897 306.974 139.438C309.125 142.556 312.069 145.005 315.012 147.404C314.065 146.791 313.025 146.41 311.888 146.461C310.52 146.534 309.324 147.255 308.39 148.266C309.21 149.823 310.087 151.354 311.02 152.834C312.621 155.379 314.36 157.806 316.254 160.13C318.139 162.446 320.105 164.703 321.787 167.181C323.427 169.601 324.84 172.209 325.492 175.082C325.804 176.436 325.976 177.834 325.909 179.23C325.905 179.387 325.875 179.536 325.862 179.685C326.031 179.854 326.207 179.999 326.383 180.118C326.009 184.648 325.297 189.177 324.368 193.613C323.946 190.331 323.051 186.944 322.321 184.279C320.898 179.106 318.631 174.134 315.332 169.879C314.804 169.198 314.203 168.527 313.554 167.931C315.079 169.307 316.685 170.598 318.274 171.89C319.947 173.254 321.613 174.651 323.125 176.2C323.607 176.701 324.18 177.57 324.785 178.398C324.74 176.815 324.456 175.237 323.975 173.714C322.17 168.046 317.955 163.787 314.384 159.192C311.867 155.958 309.708 152.452 307.997 148.737C307.524 149.35 307.128 150.044 306.855 150.76C305.339 154.78 306.617 159.412 309.05 162.953C310.262 164.707 311.717 166.249 313.293 167.698C312.123 166.702 310.771 166.015 309.263 166.083C308.002 166.145 306.886 166.765 305.991 167.66C306.684 169.121 307.525 170.512 308.43 171.861C309.968 174.136 311.733 176.256 313.433 178.412C315.277 180.754 317.015 183.164 318.535 185.736C320.071 188.333 321.638 191.135 322.374 194.079C322.755 195.58 322.908 197.211 322.779 198.798C322.889 198.919 322.991 199.04 323.101 199.153C322.678 200.854 322.23 202.548 321.774 204.208C320.615 208.352 319.366 212.506 318.134 216.676C317.712 213.402 316.817 210.023 316.088 207.359C314.665 202.186 312.397 197.213 309.098 192.958C307.576 190.996 305.51 189.047 303.029 189.171C301.925 189.229 300.921 189.714 300.088 190.435C300.346 191.237 300.628 192.031 300.943 192.808C302.107 195.685 303.767 198.27 305.541 200.812C307.325 203.378 309.165 205.893 311.054 208.382C312.832 210.726 314.54 213.219 315.593 215.983C316.102 217.316 316.432 218.736 316.531 220.161C316.569 220.721 316.557 221.283 316.52 221.844C316.554 221.885 316.588 221.925 316.614 221.966C316.545 222.207 316.477 222.456 316.408 222.697C316.363 222.912 316.302 223.128 316.233 223.336C314.83 228.352 313.544 233.397 312.58 238.485C312.114 235.773 311.392 233.084 310.789 230.895C309.366 225.722 307.098 220.75 303.799 216.494C302.277 214.533 300.211 212.584 297.73 212.707C296.313 212.781 295.076 213.544 294.128 214.622C294.693 215.887 295.324 217.127 296.02 218.324C298.942 223.388 302.797 227.82 306.142 232.594C307.779 234.924 309.362 237.363 310.446 240.003C311.171 241.777 311.612 243.713 311.408 245.599C311.425 245.624 311.45 245.648 311.467 245.664C311.079 248.882 310.857 252.121 310.849 255.38C310.846 256.321 310.868 257.286 310.899 258.25C309.427 254.869 307.178 251.464 305.427 248.872C302.421 244.428 298.683 240.439 294.192 237.465C292.122 236.094 289.538 234.907 287.224 235.819C286.537 236.09 285.962 236.541 285.479 237.08C286.082 238.188 286.726 239.279 287.467 240.301C289.248 242.76 291.434 244.904 293.917 246.654C296.542 248.507 299.414 249.984 302.111 251.729C304.59 253.33 306.893 255.183 308.64 257.585C309.756 259.126 310.696 260.903 311.028 262.777C311.078 262.8 311.136 262.832 311.187 262.856C311.557 266.758 312.283 270.685 313.482 274.403C311.465 271.718 308.948 269.186 306.955 267.21C303.139 263.437 298.693 260.256 293.713 258.217C291.414 257.272 288.652 256.618 286.562 257.961C286.196 258.192 285.89 258.496 285.617 258.816C287.102 260.251 288.724 261.55 290.426 262.715C295.531 266.211 301.287 268.636 306.969 271.013L306.944 271.022ZM324.946 164.633C323.523 159.46 321.255 154.487 317.956 150.232C317.574 149.738 317.15 149.244 316.702 148.784C318.199 150.012 319.68 151.273 321.032 152.661C321.961 153.613 323.187 155.945 324.441 156.658C325.858 161.584 326.544 166.667 326.662 171.796C326.19 169.232 325.522 166.707 324.954 164.624L324.946 164.633Z" fill="#3F51BA"/>
<path d="M318.137 144.445C319.529 146.855 321.026 149.196 322.622 151.478C323.432 152.631 324.251 153.775 325.085 154.903C325.363 150.499 323.934 145.037 322.853 141.11C321.431 135.937 319.163 130.965 315.864 126.709C314.342 124.748 312.275 122.799 309.795 122.922C308.987 122.965 308.243 123.238 307.568 123.658C308.226 125.375 309.081 127.031 309.919 128.653C312.614 133.929 315.172 139.307 318.137 144.445Z" fill="#3F51BA"/>
<path d="M335.04 189.514C333.081 191.506 330.98 193.428 329.224 195.605C328.791 196.143 328.391 196.721 328.05 197.323C328.164 197.246 328.294 197.153 328.4 197.092C330.273 196.01 332.257 195.131 334.242 194.268C338.188 192.569 342.242 190.941 345.554 188.199C348.865 185.458 351.361 181.35 350.998 177.076C350.897 175.882 350.514 174.662 349.872 173.654C349.002 174.936 348.015 176.139 346.969 177.293C343.139 181.498 339.031 185.47 335.048 189.522L335.04 189.514Z" fill="#3F51BA"/>
<path d="M336.198 159.564C334.693 161.908 333.105 164.222 332.009 166.797C330.882 169.446 330.346 172.346 330.09 175.207C330.005 176.141 329.968 177.074 329.932 178.015C330.362 177.345 330.769 176.709 331.131 176.305C332.57 174.687 334.161 173.215 335.778 171.776C338.98 168.913 342.313 166.081 344.581 162.431C346.848 158.782 347.912 154.096 346.212 150.15C345.593 148.721 344.507 147.401 343.162 146.681C342.346 148.515 341.488 150.317 340.564 152.096C339.229 154.659 337.768 157.151 336.207 159.58L336.198 159.564Z" fill="#3F51BA"/>
<path d="M316.572 184.305C315.064 181.914 313.346 179.668 311.628 177.431C309.357 174.48 307.084 171.414 305.643 167.982C305.033 168.68 304.54 169.5 304.221 170.357C302.705 174.377 303.983 179.009 306.416 182.55C308.849 186.091 312.31 188.767 315.64 191.479C317.313 192.843 318.978 194.24 320.491 195.79C320.821 196.128 321.196 196.656 321.596 197.216C321.535 195.633 321.276 194.072 320.788 192.565C319.838 189.65 318.215 186.89 316.588 184.304L316.572 184.305Z" fill="#3F51BA"/>
<circle cx="47" cy="93" r="5" fill="#27255C"/>
<circle cx="77" cy="87" r="2" fill="#27255C"/>
<circle cx="29" cy="84" r="2" fill="#27255C"/>
<circle cx="50" cy="113" r="2" fill="#27255C"/>
<circle cx="31" cy="104" r="2" fill="#27255C"/>
<circle cx="61" cy="93" r="2" fill="#27255C"/>
</svg>
