<svg width="360" height="405" viewBox="0 0 360 405" fill="none" xmlns="http://www.w3.org/2000/svg">
<path d="M0 -1H155.5L316 226.196V394H0V-1Z" fill="#2528A1"/>
<path d="M0 -1H155.5L316 226.196V394H0V-1Z" fill="#2528A1"/>
<mask id="mask0_108_4" style="mask-type:alpha" maskUnits="userSpaceOnUse" x="-3" y="-1" width="316" height="395">
<path d="M-3 -1H152.5L313 226.196V394H-3V-1Z" fill="#2528A1"/>
<path d="M-3 -1H152.5L313 226.196V394H-3V-1Z" fill="#2528A1"/>
</mask>
<g mask="url(#mask0_108_4)">
<path d="M79.3372 328.065C85.03 323.244 90.3255 318.06 95.0671 312.386C94.9025 313.836 94.67 315.282 94.4223 316.719C93.5016 321.83 92.1347 326.854 90.7109 331.861C89.2146 337.082 87.5936 342.284 85.7564 347.402C83.8719 352.643 81.7601 357.815 79.2575 362.828C77.463 366.414 75.3832 369.825 73.3642 373.278C69.0486 377.045 64.4353 380.562 59.3241 383.275C56.6804 384.67 53.9234 385.789 51.0931 386.791C43.7893 379.457 41.0214 368.463 44.9083 358.856C47.6759 352.022 53.9287 347.321 59.8884 342.969C66.5241 338.136 73.1334 333.306 79.3594 328.037L79.3372 328.065Z" fill="#3F51BA"/>
<path d="M152.413 250.326C147.93 258.863 143.679 267.493 139.401 276.127C139.99 274.31 140.523 272.475 141.071 270.651C144.048 260.44 146.362 250.059 148.151 239.603C157.504 228.605 167.333 218.045 177.456 207.621C177.835 207.222 178.4 207.126 178.865 207.248C178.087 208.253 177.298 209.273 176.55 210.299C167.403 223.023 159.633 236.562 152.428 250.336L152.413 250.326Z" fill="#3F51BA"/>
<path d="M126.028 317.659C121.467 321.653 117.17 325.938 113.056 330.349C111.796 331.705 110.525 333.076 109.284 334.468C110.163 333.091 111.03 331.729 111.894 330.342C120.131 317.014 127.319 303.141 134.208 289.172C141.222 274.981 148.001 260.672 155.406 246.64C159.165 239.52 163.099 232.476 167.326 225.567C171.106 219.386 175.217 213.41 179.389 207.476C179.732 207.756 179.912 208.188 179.693 208.742C172.203 227.469 168.232 247.231 163.536 266.692C160.976 277.3 158.484 287.91 155.98 298.535C155.185 298.869 154.375 299.192 153.595 299.536C143.387 304.069 134.249 310.416 126.013 317.649L126.028 317.659Z" fill="#3F51BA"/>
<path d="M139.275 271.947C138.549 275.057 137.622 278.095 136.896 281.205C135.032 284.941 133.167 288.676 131.273 292.391C124.183 306.288 116.687 320.016 107.933 333.076C99.2419 346.026 89.4034 358.406 77.8454 369.208C77.8009 369.265 77.7412 369.312 77.6815 369.359C79.1846 366.783 80.4979 364.121 81.7514 361.506C86.6252 351.257 89.9746 340.444 92.7682 329.534C94.2949 323.52 95.6539 317.389 96.0466 311.211C96.2689 310.924 96.5217 310.657 96.7593 310.381C101.897 303.923 106.35 296.993 110.81 290.114C119.772 276.272 129.324 262.814 139.66 249.851C141.951 246.981 144.277 244.157 146.633 241.354C145.248 248.06 143.723 254.737 142.016 261.376C141.104 264.908 140.067 268.42 139.222 271.955L139.275 271.947Z" fill="#3F51BA"/>
<path d="M89.3526 375.274C82.5198 377.617 75.8514 380.381 69.1167 382.99C65.9464 384.22 62.7262 385.395 59.466 386.41C61.4921 385.36 63.4338 384.209 65.2718 382.92C71.6753 378.477 77.4673 373.195 82.9213 367.747C90.6334 360.044 97.4414 351.61 103.633 342.795C107.645 338.667 111.367 334.25 115.349 330.1C123.34 321.797 132.052 314.099 141.842 307.694C146.215 304.848 150.804 302.238 155.583 300.045C153.463 308.997 151.344 317.949 149.168 326.885C146.77 336.68 144.346 346.479 141.751 356.226C140.858 359.552 139.924 362.871 138.891 366.166C136.336 366.059 133.766 366.03 131.195 366.155C116.783 366.828 102.807 370.619 89.3221 375.253L89.3526 375.274Z" fill="#3F51BA"/>
<path d="M71.2848 384.261C84.809 378.641 98.3184 372.769 112.766 369.545C121.212 367.652 130.031 366.543 138.774 366.679C136.916 372.488 134.733 378.205 131.881 383.639C124.176 398.301 110.505 412.315 92.5143 414.687C83.8615 415.822 75.0215 414.364 67.8287 409.57C61.3174 405.224 56.8201 398.697 56.075 391.274C52.747 393.101 49.3721 394.807 45.9044 396.361C44.8735 396.819 44.2685 395.368 45.2081 394.848C47.9296 393.353 50.5972 391.776 53.2454 390.164C55.6463 389.747 58.0059 389.081 60.331 388.369C64.0795 387.206 67.7146 385.767 71.3264 384.267L71.2848 384.261Z" fill="#3F51BA"/>
<path d="M28.4524 219.332C24.3247 226.366 20.4727 233.577 17.192 241.003C6.72281 264.653 0.2062 289.855 -1.64995 315.437C-1.64995 315.437 -1.63082 315.385 -1.62126 315.358C0.214107 311.198 2.15053 307.1 4.22529 303.047C8.27064 295.14 12.7671 287.438 17.9073 280.093C26.9736 267.108 38.0384 255.767 51.553 247.034C46.4025 232.452 42.1806 217.617 41.6677 202.211C41.6343 201.12 40.8554 200.458 39.95 200.308C38.5143 203.548 36.3135 206.509 34.4085 209.508C32.3621 212.724 30.4168 216.002 28.4896 219.315L28.4524 219.332Z" fill="#3F51BA"/>
<path d="M-14.9592 294.897C-10.6831 304.348 -7.19181 314.419 -5.56314 324.671C-5.51533 324.541 -5.46752 324.41 -5.41014 324.254C-5.30764 322.623 -5.2424 321.01 -5.11224 319.388C-3.89811 305.099 -1.48193 290.91 2.079 276.978C5.69834 262.802 10.7657 249.068 16.7916 235.676C19.6717 229.258 22.8379 222.904 26.3351 216.745C28.2825 213.292 30.3958 209.894 32.5825 206.549C33.3841 205.292 34.2037 204.07 35.0787 202.867C9.6047 220.313 -15.8556 239.75 -34.7784 263.652C-26.6239 273.083 -20.0007 283.649 -14.8942 294.889L-14.9592 294.897Z" fill="#3F51BA"/>
<path d="M5.81969 305.96C3.90545 309.745 2.06463 313.582 0.334453 317.456C-0.52107 319.366 -1.2936 321.304 -2.14912 323.215C-2.38872 330.202 -2.29536 337.209 -1.91479 344.194C-1.50008 351.423 -0.863075 358.637 -1.95678 365.842C-3.01769 372.619 -4.76263 379.32 -4.87143 386.203C-4.90596 387.564 -4.79158 388.857 -4.63999 390.132C-0.564175 391.432 3.47437 392.748 7.71378 393.516C12.3872 394.368 17.087 394.557 21.8206 394.231C31.4272 393.538 40.6817 390.511 48.6642 385.463C66.9602 373.91 73.9924 352.876 74.2457 332.932C74.5083 312.202 68.2405 291.884 61.0179 272.481C58.0211 264.44 54.8765 256.379 51.9456 248.242C39.1451 257.645 28.4253 269.566 19.6206 282.344C14.4315 289.908 9.91385 297.836 5.792 305.951L5.81969 305.96Z" fill="#3F51BA"/>
<path d="M-6.88309 364.499C-5.61076 357.061 -5.81164 349.755 -5.91797 342.276C-5.93606 342.241 -5.9914 342.223 -5.99994 342.162C-8.2937 326.292 -10.8374 310.428 -17.2518 295.492C-21.9455 284.562 -28.2388 274.278 -35.7454 264.855C-37.8037 267.512 -39.844 270.204 -41.7373 273.003C-51.5509 287.35 -58.8841 303.294 -61.7949 320.182C-64.3279 334.859 -63.5095 351.036 -55.4449 364.174C-54.5007 365.737 -53.4353 367.223 -52.2486 368.632C-49.4276 373.521 -45.5823 377.898 -40.7313 380.968C-36.6337 383.559 -31.9514 385.231 -27.0526 385.806C-24.1409 386.142 -21.207 386.163 -18.2868 386.561C-17.2517 386.694 -16.2369 386.966 -15.2028 387.186C-16.852 391.261 -18.6396 395.291 -20.2431 399.41C-23.4309 407.597 -24.9693 417.196 -21.0949 425.378C-19.912 427.895 -16.4437 428.908 -13.8752 427.731C-11.0089 426.417 -10.4101 423.518 -11.3793 420.925C-14.0086 413.908 -11.7344 406.271 -10.7161 399.187C-10.3428 396.565 -9.88648 393.969 -9.31951 391.41C-9.58277 390.185 -9.78113 388.953 -9.88696 387.722C-10.6275 379.861 -8.14888 372.173 -6.81815 364.491L-6.88309 364.499Z" fill="#3F51BA"/>
<path d="M37.3264 78.5723C36.6689 71.3647 36.7485 64.1068 35.8646 56.9103C35.0179 50.0488 33.1678 43.3204 29.9119 37.0923C28.7737 34.9349 27.4907 32.7692 26.0493 30.687C29.229 33.3202 32.3426 36.0052 35.3925 38.7642C46.4121 48.7763 56.4704 59.7303 65.4476 71.4122C74.4272 83.1165 82.3284 95.5711 89.0182 108.552C94.4559 119.104 99.0228 130.013 102.944 141.145C98.8881 142.81 93.9203 143.595 90.1552 141.945C86.9331 140.547 84.191 137.001 82.7314 134.107C82.5158 133.677 82.3296 133.187 82.1565 132.707C81.9146 135.058 81.1341 137.303 79.4259 138.962C73.4035 144.809 65.0973 142.287 60.3164 136.672C55.935 131.526 52.5561 124.407 51.6176 117.905C51.1875 114.898 50.7942 111.899 50.5406 108.864C50.5357 108.819 50.5438 108.785 50.5388 108.74C49.1489 111.215 49.0525 114.657 46.1657 116.275C45.4103 116.7 44.6195 116.913 43.8113 116.971C42.4851 111.399 41.2406 105.808 40.2437 100.181C38.9545 93.0017 37.9709 85.7698 37.3084 78.5176L37.3264 78.5723Z" fill="#739DDC"/>
<path d="M63.3587 65.7691C54.0104 54.0899 43.5649 43.208 32.1392 33.3151C27.4194 29.2192 22.5567 25.239 17.6116 21.3798C17.4938 21.2898 17.3735 21.1775 17.2662 21.0752C17.2401 21.0552 17.2294 21.0675 17.2033 21.0475C15.2871 19.5429 13.3497 18.063 11.391 16.6077C15.287 18.3572 19.2717 19.8268 23.5129 20.6951C31.9088 22.4065 40.5681 22.0704 49.0835 21.6243C57.7435 21.1865 66.3449 20.8675 74.988 21.7865C87.9094 23.1524 100.687 26.7798 111.935 32.9184C112.37 34.3548 112.495 35.6976 111.965 36.642C110.405 39.4161 104.943 39.7412 102.091 40.0569C97.9147 40.526 92.636 40.5619 87.6781 39.8208C94.6226 42.1612 101.405 45.5226 105.099 51.4929C106.849 54.3013 108.822 59.5495 105.781 62.2553C105.236 62.7383 104.483 63.0837 103.626 63.349C111.107 65.4445 117.658 69.5289 120.241 75.9589C123.197 83.3686 119.881 89.4217 111.267 90.9165C109.634 91.2021 106.85 91.1609 103.921 90.784C104.754 91.7067 105.567 92.6541 106.236 93.7173C109.723 99.1207 111.695 105.758 112.978 111.91C115.024 121.691 116.25 132.829 106.761 139.175C105.913 139.733 104.944 140.281 103.896 140.768C99.8619 127.649 94.2495 114.878 87.7358 102.727C80.7958 89.76 72.6047 77.3906 63.3374 65.7938L63.3587 65.7691Z" fill="#739DDC"/>
<path d="M-2.37844 63.5344C-2.37115 60.0442 -3.32113 54.0852 -0.332172 51.3394C-6.75484 58.4334 -13.4594 55.2337 -16.7693 47.2266C-19.9653 39.4906 -17.1568 32.2116 -11.3455 26.838C-16.8809 29.0901 -21.7596 31.1079 -26.7016 25.9836C-32.485 19.9714 -24.7939 12.8649 -18.0973 11.6838C-20.9042 10.7867 -27.3515 12.0561 -27.6587 7.56933C-27.9509 3.2166 -21.2368 2.1919 -16.154 2.3334C-21.7132 -0.584243 -27.4134 -3.2621 -33.2652 -5.68782C-33.9816 -5.9897 -33.6792 -7.14889 -32.8674 -6.95807C-30.4082 -6.38795 -27.9815 -5.67911 -25.616 -4.87388C-18.0585 -1.3293 -10.9037 3.01171 -4.1431 7.68526C-4.14377 7.78696 -4.12074 7.88631 -4.02911 7.95631C-2.68574 8.94157 -1.25254 9.87276 0.199387 10.757C5.62836 14.6586 10.9537 18.7061 16.213 22.8052C17.5482 23.8251 18.8647 24.8921 20.1918 25.9468C21.4763 27.4799 22.7159 29.04 23.8576 30.6889C26.0467 33.8943 27.9002 37.3136 29.4531 40.8303C35.2836 54.0541 34.782 68.6149 36.376 82.6299C37.6993 94.2098 39.8358 105.777 43.0768 117.043C39.8753 116.908 36.5889 114.5 34.6937 112.214C28.3268 104.509 26.6854 91.6842 25.7689 82.255C24.988 86.5443 22.4755 90.4514 18.4635 92.7224C11.6015 96.6189 7.11425 91.1673 3.84553 85.6858C-0.243192 78.8624 -2.37224 71.3485 -2.35475 63.5321L-2.37844 63.5344Z" fill="#739DDC"/>
<path d="M73.4674 20.1749C64.8161 19.2906 56.1699 19.6367 47.4949 19.9404C38.9622 20.2301 30.2543 20.3451 21.9397 18.2869C17.3818 17.1563 12.972 15.5254 8.77491 13.546C7.15643 12.7799 5.55419 11.9445 3.95196 11.109C0.369432 8.51553 -3.24491 5.95909 -6.8886 3.46201C-10.5977 0.914933 -14.4472 -1.49405 -18.4166 -3.68793C-18.6523 -6.2394 -18.2999 -8.99579 -17.7565 -10.7886C-16.7235 -14.2107 -13.9504 -19.3293 -9.35906 -17.6825C-5.12998 -16.1693 -6.06206 -11.3003 -3.33109 -9.2551C-2.41817 -14.4045 -1.5725 -28.8863 8.22862 -24.0163C14.6438 -20.8332 18.9631 -12.2596 19.6522 -5.84559C20.9788 -10.2905 22.3348 -21.1526 29.3966 -19.0497C35.245 -17.3012 43.6766 -7.07864 38.9703 -1.67869C46.5888 -5.77408 59.5817 -6.45928 67.2154 -2.12045C71.0139 0.0451363 75.6452 5.60663 71.6237 9.30145C68.6691 12.0326 63.0643 13.2301 59.3544 14.7711C68.0282 14.2416 76.3397 13.5785 84.9619 15.2788C92.7511 16.8129 102.932 19.4998 107.967 25.7781C108.857 26.8872 110.394 29.1858 111.384 31.516C107.226 29.2391 102.852 27.2884 98.3261 25.6916C90.3218 22.8687 81.916 21.068 73.4356 20.212L73.4674 20.1749Z" fill="#739DDC"/>
<path d="M87.9416 -12.9154C79.8988 -12.4155 71.7917 -10.0531 65.052 -5.82951C62.7689 -4.39738 60.6219 -2.74625 58.4417 -1.1762C56.2615 0.39384 54.1308 2.09604 52.1538 3.88701C48.2546 7.43253 44.5025 11.6951 42.6372 16.5515C40.0195 15.7259 37.3821 14.9546 34.7292 14.2503C29.317 12.8092 23.848 11.6069 18.3118 10.6811C16.238 10.335 14.1492 10.0349 12.0463 9.75973C12.2664 9.73227 12.4865 9.70481 12.6978 9.67289C20.1453 9.59885 27.5947 7.51292 34.4346 4.90343C42.4341 1.85467 49.9432 -2.50302 55.8186 -8.51439C58.3862 -11.1405 61.8302 -14.7243 61.7645 -18.5266C61.7524 -19.2608 61.5587 -19.7767 61.2261 -20.149C59.898 -18.6389 58.3219 -17.3511 56.6768 -16.1412C54.7065 -14.7001 52.6584 -13.3414 50.5853 -12.0382C43.1649 -7.37855 35.2583 -3.45825 27.29 0.291582C23.315 2.16044 19.361 4.07207 15.407 5.9837C13.4936 6.90759 11.5586 7.80977 9.73876 8.88818C9.47869 9.04525 9.22268 9.21508 8.96667 9.38492C8.19524 9.30383 7.41906 9.23104 6.65169 9.16272C4.88466 9.01522 3.12102 8.90157 1.3682 8.86836C0.670597 8.85686 0.560877 9.90399 1.25509 10.0208C2.76409 10.2622 4.27375 10.4825 5.78342 10.7028C3.88294 15.4021 3.78131 20.7896 4.27978 25.743C4.53037 28.2472 4.95909 30.7776 5.50632 33.2396C6.05356 35.7016 6.52359 38.1994 7.25099 40.6244C9.37493 47.7627 13.7671 54.35 19.3635 59.525C20.7885 60.848 22.2778 62.1179 23.8512 63.2806C24.5108 63.7761 25.1475 64.1528 25.7787 64.2805C25.1624 56.4513 22.7378 48.7856 19.8458 41.4608C16.8136 33.7651 13.0919 26.3618 9.543 18.8748C8.58803 16.8482 7.58363 14.8287 6.80543 12.7312C6.57109 12.0876 6.36859 11.4281 6.19317 10.7609C6.72755 10.8394 7.26192 10.9179 7.80511 11.0009C7.89586 11.3789 7.99136 11.7486 8.118 12.1234C8.73298 14.0095 9.55588 15.8299 10.3429 17.6534C11.9711 21.4243 13.5992 25.1952 15.2769 28.9592C18.6369 36.4787 21.8234 44.1029 24.1567 51.9685C24.8062 54.1719 25.4103 56.3952 25.8885 58.6401C26.2935 60.516 26.5861 62.4097 26.5515 64.3195C27.0507 64.2409 27.5424 63.9766 28.0382 63.4467C30.6416 60.6782 30.5198 55.9802 30.3897 52.5093C30.0904 44.5627 27.4876 36.8707 23.6468 29.8352C20.3633 23.8321 16.2698 17.8354 10.8265 13.327C10.1431 12.5946 9.45498 11.8706 8.75806 11.1421C11.1848 11.5066 13.6061 11.9006 16.0057 12.412C20.8896 13.4458 25.764 14.4961 30.5815 15.7852C34.3256 16.7864 38.0262 17.8833 41.7059 19.0767C39.5251 22.8948 38.6764 27.4428 38.3824 31.7156C38.2246 33.9803 38.2178 36.2789 38.3418 38.5475C38.4569 40.8115 38.4955 43.0903 38.7718 45.3506C39.5785 51.9915 42.4853 58.4352 46.671 63.7934C47.7411 65.1611 48.8708 66.484 50.0831 67.7419C50.5985 68.2712 51.1085 68.6907 51.6476 68.9001C52.2904 61.8492 51.2894 54.7135 49.838 47.8094C48.3128 40.5575 46.1245 33.4721 44.1123 26.337C43.5657 24.4106 42.9792 22.4747 42.6176 20.5031C42.5451 20.113 42.4862 19.719 42.436 19.3295C42.9054 19.4821 43.3748 19.6347 43.8394 19.7956C43.8536 19.9099 43.8543 20.028 43.8773 20.1468C44.134 21.9046 44.5884 23.6342 45.0205 25.3633C45.899 28.9356 46.7727 32.5163 47.6917 36.0772C49.5292 43.22 51.2169 50.426 52.096 57.7354C52.3432 59.7882 52.5322 61.8435 52.627 63.9045C52.6968 65.6317 52.6818 67.3479 52.35 69.0425C52.8065 69.0386 53.2772 68.8707 53.8048 68.464C56.5437 66.3532 57.1438 62.1608 57.557 59.0514C58.5011 51.9501 57.3545 44.7511 54.9996 37.9773C52.9888 32.192 50.2607 26.3102 46.109 21.5687C45.8143 21.1301 45.5197 20.6914 45.2251 20.2528C49.8496 21.8401 54.4247 23.5736 58.9367 25.4572C62.08 26.7744 65.1942 28.1625 68.2799 29.6004C66.0441 33.4549 65.1711 38.0655 64.8663 42.397C64.7085 44.6617 64.7105 46.9648 64.8256 49.2289C64.9408 51.493 64.9794 53.7717 65.2557 56.032C66.0623 62.6729 68.9692 69.1166 73.1548 74.4748C74.2249 75.8425 75.3546 77.1654 76.567 78.4233C77.0824 78.9526 77.5924 79.3721 78.1315 79.5815C78.7743 72.5306 77.7733 65.3949 76.3219 58.4908C74.7966 51.2389 72.6084 44.1535 70.5962 37.0184C70.0496 35.092 69.4631 33.1561 69.1014 31.1845C69.0256 30.7605 68.9585 30.341 68.9097 29.9094C69.3859 30.1297 69.8573 30.3583 70.3287 30.5869C70.3395 30.6673 70.3415 30.7433 70.3524 30.8237C70.609 32.5815 71.0635 34.3112 71.4956 36.0402C72.374 39.6126 73.2477 43.1932 74.1668 46.7541C76.0042 53.8969 77.692 61.1029 78.5711 68.4124C78.8183 70.4651 79.0072 72.5204 79.102 74.5815C79.1718 76.3086 79.1569 78.0249 78.825 79.7194C79.2815 79.7156 79.7522 79.5477 80.2798 79.1409C83.0188 77.0301 83.6189 72.8378 84.032 69.7283C84.9762 62.627 83.8296 55.428 81.4747 48.6543C79.4638 42.8689 76.7357 36.9871 72.584 32.2457C72.3964 31.9577 72.1952 31.6736 72.0076 31.3856C81.5228 36.023 90.7379 41.2255 99.6672 46.8289C98.7725 50.7218 99.3611 54.9607 100.374 58.7942C100.88 60.732 101.539 62.6616 102.275 64.5343C103.011 66.4069 103.697 68.3077 104.565 70.1294C107.135 75.492 111.396 80.1607 116.44 83.599C117.723 84.475 119.048 85.2974 120.429 86.0412C121.009 86.3573 121.552 86.5795 122.066 86.6152C120.597 80.5374 117.738 74.8038 114.544 69.3811C111.197 63.6883 107.352 58.2892 103.631 52.8135C102.628 51.3296 101.583 49.8573 100.712 48.3013C100.5 47.9156 100.303 47.5261 100.114 47.12C100.759 47.5223 101.39 47.9284 102.03 48.3389C102.668 49.5086 103.383 50.6426 104.099 51.7766C105.853 54.5515 107.602 57.3346 109.388 60.0936C112.969 65.6159 116.426 71.2359 119.247 77.1541C120.039 78.8091 120.786 80.4838 121.447 82.1899C122.005 83.6188 122.473 85.0663 122.68 86.5737C123.055 86.4537 123.408 86.1939 123.736 85.7182C125.431 83.2485 124.739 79.5887 124.209 76.8783C122.981 70.6766 119.971 64.9302 116.072 59.8459C114.758 58.1296 113.349 56.4401 111.821 54.8401C111.917 54.9103 112.009 54.9678 112.106 55.038C114.903 56.9611 117.663 58.9296 120.385 60.9434C124.367 63.8748 128.279 66.8885 132.126 69.9762C136.069 73.691 140.04 77.377 144.242 80.8376C149.83 85.4303 155.857 89.7529 162.598 92.704C162.678 92.1664 162.546 91.5426 162.317 90.8696C161.778 89.2683 161.122 87.6932 160.402 86.1499C157.572 80.1091 153.123 74.5747 147.465 70.6422C145.543 69.3135 143.482 68.1495 141.467 66.9447C139.457 65.7315 137.355 64.6001 135.217 63.6111C130.993 61.6599 126.199 60.0508 121.447 60.0585C116.444 56.0519 111.302 52.189 106.02 48.512C111.64 50.5832 117.844 51.3552 123.805 51.5761C131.295 51.845 138.891 50.9147 145.817 48.1347C148.849 46.9223 152.926 45.2335 154.316 42.2026C154.581 41.6196 154.628 41.1401 154.506 40.7359C152.885 41.4868 151.151 41.9772 149.384 42.3864C147.279 42.8704 145.142 43.2522 143.005 43.5919C135.37 44.7909 127.615 45.2442 119.896 45.5341C116.044 45.6771 112.186 45.8705 108.332 46.0557C106.544 46.1438 104.748 46.2064 102.973 46.4298C102.465 46.0863 101.948 45.7383 101.436 45.4031C101.885 45.3316 102.326 45.2767 102.77 45.2346C104.866 45.0245 106.978 45.0258 109.077 44.9888C116.845 44.8522 124.606 44.8841 132.361 44.2916C139.74 43.7221 147.236 42.6667 154.193 40.1702C153.836 39.7424 153.274 39.3932 152.6 39.0829C151 38.3243 149.348 37.6782 147.675 37.0863C141.11 34.7813 133.804 33.9315 126.87 35.0156C124.514 35.3827 122.199 35.9746 119.874 36.486C117.549 36.9975 115.225 37.627 112.972 38.3893C108.634 39.8598 104.152 41.9208 100.861 45.0366C97.4749 42.793 94.037 40.6195 90.5381 38.5329C85.1781 35.3302 79.6826 32.3051 74.0686 29.4874C74.3179 29.5282 74.5671 29.5691 74.8163 29.61C81.9407 31.6525 89.7173 31.7777 97.0591 31.2324C105.657 30.5965 114.209 28.5674 121.74 24.5099C125.036 22.7355 129.45 20.2971 130.615 16.6481C130.834 15.9458 130.816 15.4012 130.62 14.9485C128.868 16.0077 126.955 16.7924 124.995 17.4788C122.656 18.2935 120.27 19.0099 117.873 19.6669C109.315 22.0037 100.511 23.4984 91.7221 24.8079C87.3299 25.4585 82.9492 26.1685 78.5692 26.8574C76.4466 27.1933 74.3158 27.5036 72.2366 28.022C71.9887 28.0782 71.7489 28.16 71.5139 28.2334C70.8664 27.9154 70.2142 27.6057 69.562 27.2961C70.3896 27.0202 71.2511 26.8044 72.0937 26.6218C74.45 26.1155 76.8699 25.8557 79.2736 25.5447C88.1332 24.4101 97.0225 23.462 105.796 21.802C114.156 20.2102 122.574 18.0592 130.174 14.3368C129.714 13.8892 129.013 13.5655 128.195 13.289C126.265 12.6307 124.278 12.0931 122.284 11.627C114.445 9.82134 105.968 9.76897 98.1956 11.8836C95.5596 12.6013 92.9873 13.5654 90.4041 14.4491C87.821 15.3327 85.2425 16.3473 82.7894 17.5004C77.8791 19.7938 72.882 22.8356 69.5579 27.0049C69.5064 27.0751 69.4678 27.1626 69.4252 27.2373C62.101 23.755 54.5723 20.6506 46.8492 18.0257C47.3884 17.9568 47.9363 17.8923 48.4801 17.815C55.9276 17.741 63.3771 15.6551 70.217 13.0456C78.2164 9.99682 85.7255 5.63914 91.6009 -0.372239C94.1685 -2.99835 97.6126 -6.58218 97.5469 -10.3844C97.5347 -11.1187 97.341 -11.6346 97.0084 -12.0068C95.6803 -10.4968 94.1042 -9.20894 92.4591 -7.999C90.4889 -6.55794 88.4408 -5.19924 86.3676 -3.89608C78.9472 0.763599 71.0406 4.68391 63.0723 8.43374C59.0973 10.3026 55.1433 12.2142 51.1893 14.1259C49.276 15.0497 47.341 15.9519 45.5211 17.0303C45.3294 17.1472 45.1466 17.2685 44.9637 17.3898C44.3616 17.1912 43.7683 16.9971 43.1614 16.8068C43.7419 16.4269 44.3264 16.0598 44.923 15.731C47.0138 14.576 49.2407 13.64 51.4196 12.6688C59.5084 9.06584 67.6765 5.64228 75.512 1.56809C82.9791 -2.31838 90.3209 -6.76098 96.3745 -12.4678C95.7934 -12.7628 95.0274 -12.8732 94.1605 -12.9064C92.1049 -12.9863 90.0453 -12.9397 87.9965 -12.8126L87.9416 -12.9154Z" fill="#27255C"/>
<path d="M9.91894 375.903C12.711 379.788 15.6562 383.671 19.2108 386.961C21.3944 388.978 23.8329 390.761 26.5548 392.038C26.5753 392.552 26.6094 393.058 26.6524 393.576C23.3662 392.049 20.5569 389.391 18.1662 386.953C11.4302 380.086 6.71707 371.811 0.703859 364.418C-2.2273 360.826 -5.47821 357.445 -9.36079 354.751C-13.4851 351.886 -18.2081 350.27 -22.9511 348.539C-22.9658 348.702 -22.9357 348.874 -22.8335 349.04C-19.8686 353.791 -19.6733 359.074 -19.6348 364.424C-19.6082 367.067 -19.2245 369.441 -18.0651 371.866C-17.0841 373.899 -15.9303 375.846 -14.5325 377.656C-8.53998 385.488 0.435673 390.074 10.2689 392.256C13.1082 392.881 15.9897 393.327 18.8859 393.609C21.8967 393.904 24.6125 394.204 26.846 396.31C26.8659 396.325 26.8859 396.34 26.917 396.358C27.2137 398.902 27.6773 401.437 28.3351 403.945C28.4663 404.438 29.3564 404.302 29.2799 403.777C28.7152 399.969 28.4481 396.145 28.4512 392.322C28.4946 392.187 28.5717 392.059 28.7061 391.987C28.747 391.863 28.8278 391.769 28.9236 391.711C28.9697 389.56 28.9436 387.416 28.7619 385.283C28.805 384.849 28.8369 384.412 28.8824 383.967C28.9932 383.946 29.1015 383.935 29.2085 383.88C32.0656 382.625 34.7344 383.225 37.6735 383.927C40.5004 384.604 43.3671 385.113 46.2509 385.448C56.2821 386.586 66.3764 385.199 74.875 379.789C76.8382 378.536 78.6368 377.082 80.3033 375.49C82.287 373.598 83.5097 371.493 84.5016 369.017C86.4979 364.014 88.6001 359.111 93.1242 355.61C93.2822 355.487 93.3642 355.338 93.4151 355.172C88.338 355.266 83.3105 355.249 78.3868 356.594C73.7617 357.869 69.4588 359.975 65.4103 362.401C57.0582 367.387 49.6226 373.628 40.7816 377.892C37.3074 379.573 33.2345 381.35 29.1908 381.449C29.2525 380.986 29.3142 380.522 29.3847 380.071C32.9739 379.955 36.4987 378.961 39.7889 377.563C44.3336 375.629 48.5162 372.932 52.5557 370.194C60.2439 364.981 67.827 359.214 76.9335 356.324C82.2292 354.647 87.758 354.38 93.3048 354.539C93.2412 354.459 93.1664 354.377 93.053 354.309C87.676 351.271 81.5822 349.635 75.3208 349.416C64.7464 349.041 53.64 351.636 44.9439 357.437C40.7639 360.223 37.2295 363.764 34.4167 367.788C32.6678 370.283 31.325 372.951 30.1852 375.705C30.5393 373.995 30.9358 372.304 31.402 370.617C34.4708 359.587 39.5472 349.12 45.5631 339.258C49.4837 332.816 53.818 326.616 58.328 320.518C58.4562 320.523 58.5957 320.53 58.7338 320.492C61.4622 319.886 63.6546 320.864 66.0762 321.967C68.4019 323.028 70.7909 323.969 73.2308 324.744C81.7224 327.433 90.7494 327.941 99.1545 324.683C101.096 323.924 102.94 322.979 104.679 321.878C106.761 320.572 108.223 318.949 109.555 316.977C112.246 312.972 115.007 309.07 119.595 306.801C119.754 306.723 119.865 306.602 119.931 306.472C115.505 305.694 111.149 304.819 106.614 305.159C102.353 305.479 98.2138 306.589 94.2388 307.999C86.0437 310.913 78.3915 315.069 69.9055 317.268C66.7764 318.079 63.1817 318.87 59.8284 318.482C60.1044 318.107 60.3779 317.743 60.6538 317.368C63.4642 317.666 66.325 317.397 69.1069 316.814C73.4224 315.907 77.5664 314.277 81.5946 312.59C89.2628 309.367 96.9415 305.648 105.397 304.684C110.324 304.126 115.168 304.825 119.945 305.91C119.906 305.824 119.854 305.747 119.765 305.673C115.671 302.127 110.698 299.672 105.304 298.414C96.1938 296.305 86.0585 296.664 77.4059 300.224C75.2978 301.093 73.3095 302.152 71.4234 303.377C76.671 296.691 81.8524 289.836 85.1953 282.199C85.2812 282.183 85.3695 282.157 85.4492 282.119C87.2907 281.184 89.0765 281.489 91.0365 281.854C92.9294 282.204 94.8358 282.446 96.7607 282.559C103.426 282.962 110.037 281.691 115.424 277.816C116.668 276.923 117.803 275.896 118.837 274.792C120.063 273.474 120.799 272.043 121.343 270.372C122.463 267.003 123.664 263.685 126.509 261.231C126.612 261.141 126.659 261.04 126.684 260.935C123.337 261.168 120.017 261.34 116.829 262.405C113.819 263.407 111.071 264.951 108.487 266.695C103.168 270.274 98.5084 274.656 92.8508 277.777C90.7842 278.92 88.3852 280.126 85.9192 280.466C85.9315 280.413 85.9639 280.375 85.9762 280.322C86.0855 280.057 86.1723 279.787 86.2729 279.509C88.3305 279.206 90.3181 278.501 92.1771 277.592C95.1012 276.151 97.7497 274.232 100.311 272.283C105.177 268.576 109.955 264.496 115.847 262.278C119.277 260.987 122.915 260.615 126.58 260.525C126.534 260.471 126.488 260.417 126.4 260.388C122.724 258.569 118.647 257.708 114.505 257.776C107.516 257.904 100.288 259.999 94.7687 264.135C92.4575 265.87 90.5164 267.981 88.9217 270.319C89.9781 265.364 90.5363 260.327 90.8517 255.273C90.9663 255.286 91.0833 255.288 91.2053 255.269L91.8569 254.596C91.4264 253.775 91.1777 252.88 91.026 251.973C91.1267 249.689 91.1801 247.406 91.2335 245.123C92.0686 239.357 94.19 233.87 95.3974 228.171C96.0278 225.232 96.3891 222.238 96.1267 219.246C95.8504 216.063 94.6543 213.143 93.5068 210.167C93.4197 210.237 93.3301 210.318 93.2892 210.443C92.0668 213.901 89.3567 216.284 86.5506 218.625C85.1612 219.787 84.0769 221.001 83.3043 222.591C82.6585 223.942 82.1334 225.329 81.774 226.761C80.2336 232.978 81.7173 239.183 84.8312 244.753C85.7245 246.358 86.7497 247.901 87.8594 249.385C89.0153 250.923 90.0366 252.332 89.8932 254.297C89.8884 254.418 89.8972 254.531 89.9334 254.627C89.1664 262.158 87.8577 269.643 85.2102 276.771C84.7969 277.882 84.33 278.971 83.8432 280.044C84.504 277.577 84.8148 275.049 84.6824 272.506C84.3088 265.878 81.1901 259.376 76.6637 254.366C73.9872 251.392 70.5894 249.088 66.7083 247.692C66.6323 247.665 66.5514 247.659 66.4792 247.666C68.8453 250.309 70.9488 253.119 72.2001 256.406C74.3355 262.037 74.2641 268.107 74.5497 274.006C74.6927 277.106 74.9204 280.246 75.7182 283.26C76.2971 285.453 77.2109 287.572 78.6223 289.373C78.4384 289.656 78.2569 289.929 78.0643 290.199C76.365 288.171 75.6483 285.362 75.1313 282.905C73.8632 276.833 74.2458 270.641 73.5777 264.517C73.2518 261.545 72.6558 258.573 71.4636 255.787C70.194 252.829 68.1257 250.37 66.0947 247.852C66.0275 247.938 65.9779 248.049 65.973 248.17C65.9062 251.813 64.0646 254.854 62.1221 257.874C61.1601 259.369 60.5119 260.829 60.2786 262.576C60.0873 264.043 60.0243 265.515 60.1367 266.991C60.6308 273.355 64.0049 278.868 68.7349 283.312C70.1034 284.594 71.5639 285.785 73.0803 286.888C74.6678 288.039 76.0884 289.1 76.5699 291.007C76.64 291.31 76.8431 291.496 77.091 291.592C73.3471 296.929 69.0912 301.993 65.0818 307.109C63.452 309.196 61.811 311.281 60.1874 313.392C60.4432 312.803 60.6791 312.198 60.8925 311.588C62.3146 307.529 62.9958 303.272 62.7518 298.999C62.2623 290.108 58.0741 281.4 51.9906 274.657C48.3992 270.673 43.8363 267.572 38.6412 265.713C38.5316 265.679 38.4395 265.671 38.3337 265.671C41.4976 269.223 44.3281 272.994 46.0015 277.388C48.8724 284.946 48.7747 293.082 49.141 300.994C49.3425 305.147 49.6461 309.366 50.7078 313.411C51.4343 316.178 52.543 318.869 54.2426 321.196C53.9828 321.552 53.723 321.908 53.4632 322.264C51.4469 319.583 50.5589 316.051 49.9117 312.946C48.2104 304.811 48.7263 296.496 47.8304 288.286C47.3913 284.293 46.5962 280.315 44.9921 276.579C43.2893 272.611 40.5229 269.319 37.8011 265.937C37.7153 266.052 37.647 266.193 37.641 266.369C37.5407 271.258 35.0802 275.333 32.4828 279.391C31.2015 281.396 30.3173 283.361 30.0062 285.69C29.7458 287.653 29.6584 289.63 29.8163 291.613C30.4822 300.152 35.0026 307.544 41.3528 313.5C43.1849 315.212 45.1365 316.816 47.1875 318.296C49.3182 319.837 51.2198 321.253 51.8626 323.825C51.8977 323.977 51.9713 324.114 52.0499 324.23C46.9236 331.351 42.1349 338.687 38.1111 346.371C38.7658 341.875 38.6497 337.307 37.61 332.868C35.3254 323.06 28.9792 314.08 20.8966 307.641C16.1126 303.829 10.4484 301.163 4.29293 299.991C4.16964 299.965 4.04768 299.984 3.95058 299.997C8.17138 303.404 12.0526 307.105 14.7683 311.716C19.4238 319.635 20.9045 328.71 22.8518 337.45C23.8792 342.042 25.0362 346.682 27.022 350.997C28.3487 353.911 30.0837 356.689 32.3834 358.964C32.1997 359.446 32.0384 359.934 31.8634 360.429C29.0716 357.797 27.3902 353.989 26.0529 350.618C22.5705 341.857 21.5389 332.522 18.9327 323.534C17.664 319.169 16.002 314.877 13.4913 310.996C10.826 306.872 7.0935 303.689 3.41069 300.395C3.3399 300.546 3.28903 300.713 3.31415 300.906C4.15207 306.356 2.19933 311.324 0.107147 316.285C-0.927146 318.741 -1.5333 321.074 -1.42816 323.734C-1.34094 325.969 -1.04829 328.18 -0.489273 330.357C1.9169 339.747 8.37713 347.189 16.6006 352.726C18.9779 354.319 21.4622 355.756 24.0259 357.056C26.6968 358.399 29.0949 359.652 30.3082 362.399C30.4455 362.716 30.6686 362.917 30.9314 363.05C30.4599 364.459 30.0308 365.887 29.6241 367.321C28.6557 370.798 27.8729 374.337 27.3192 377.901C26.1056 373.802 24.2261 369.886 21.6623 366.382C15.6182 358.118 6.12671 352.073 -3.93037 348.99C-9.88492 347.162 -16.2027 346.731 -22.3618 347.83C-22.4838 347.849 -22.5908 347.905 -22.6754 347.965C-17.4058 349.606 -12.325 351.651 -7.96239 354.954C-0.473321 360.616 4.54317 368.499 9.85169 375.889L9.91894 375.903Z" fill="#27255C"/>
<path d="M93.3487 237.507C92.5167 240.503 91.7371 243.577 91.5402 246.672C91.3936 249.102 91.6018 251.572 92.5531 253.832C92.6402 253.761 92.7248 253.701 92.8119 253.631L92.8877 253.558L92.899 253.56C95.2276 251.752 97.4415 249.83 99.2118 247.495C101.183 244.903 102.662 242.008 103.502 238.925C105.245 232.495 104.318 225.42 101.569 219.35C99.9411 215.763 97.4375 212.604 94.1728 210.184C94.1017 210.136 94.037 210.111 93.9585 210.095C95.374 213.282 96.5107 216.556 96.6566 220.044C96.9225 226.028 94.9345 231.798 93.3375 237.505L93.3487 237.507Z" fill="#27255C"/>
<path d="M50.0764 376.679C52.4956 377.3 54.8983 377.985 57.2646 378.733C61.9086 380.213 66.4376 382.042 70.6646 384.384C74.8536 386.704 78.7362 389.48 82.8542 391.907C86.4318 394.012 90.702 396.424 95.0796 396.034C95.1512 396.022 95.2237 395.999 95.2952 395.987C95.4174 393.744 95.8092 391.516 96.2111 389.288C97.2761 383.313 96.937 377.318 95.5437 371.419C94.1352 365.472 91.77 359.753 89.3675 354.106C87.0316 348.598 84.6033 343.11 82.8383 337.415C81.1495 331.964 79.9209 326.127 80.3469 320.418C80.3108 320.376 80.2738 320.345 80.2476 320.305C78.7103 321.93 78.5508 325.258 78.0089 327.379C77.0744 331.027 75.9716 334.651 75.5691 338.403C74.8477 345.166 76.3257 351.526 78.8195 357.872C81.9148 365.748 87.5325 372.597 90.8117 380.442C92.1994 383.765 93.3249 387.301 93.9731 390.89C93.9927 392.312 93.9923 393.732 93.9721 395.151C92.5928 391.743 90.1674 388.452 88.1864 385.541C84.6076 380.311 80.7337 376.031 74.7207 373.266C68.9962 370.631 61.452 368.621 55.0084 368.981C48.6763 369.331 42.4922 372.441 36.6557 374.577C36.0095 374.813 35.5164 375.026 35.1555 375.221C37.6004 375.077 40.0497 374.99 42.498 375.215C45.0659 375.451 47.5884 376.043 50.0764 376.679Z" fill="#739DDC"/>
<path d="M144.905 392.608C143.406 391.415 141.709 390.404 139.877 389.731C137.832 388.982 135.671 388.697 133.493 388.581C129.067 388.342 124.658 388.549 120.396 389.793C116.156 391.028 112.047 392.654 108.026 394.411C104.456 395.971 100.559 397.389 96.5889 396.612C96.8449 397.979 97.2369 399.292 97.9151 400.554C98.7294 402.065 99.8628 403.396 101.053 404.656C103.169 406.917 105.398 409.054 107.349 411.451C109.185 413.706 110.847 416.087 112.318 418.565C113.738 420.953 114.978 423.439 116.04 425.994C116.565 423.134 118.015 420.876 117.838 417.802C117.608 413.843 115.212 410.459 112.428 407.639C111.361 406.55 103.327 399.564 98.5875 397.726C101.984 398.319 107.149 400.318 108.375 400.814C114.333 403.224 122.181 403.386 128.438 401.864C132.689 400.828 136.476 398.596 140.574 397.178C143.518 396.159 145.793 396.303 148.691 396.454C147.573 395.068 146.346 393.767 144.904 392.617L144.905 392.608Z" fill="#739DDC"/>
<path d="M84.3238 340.055C88.3877 351.53 94.6102 362.304 97.1201 374.257C97.7259 377.16 98.0971 380.1 98.125 383.056C98.1525 386.221 97.5744 389.314 97.0153 392.417C96.813 393.545 96.5789 394.689 96.4454 395.833C96.5776 395.816 96.6688 395.909 96.6974 396.025C101.666 396.871 106.22 394.394 110.619 392.576C112.672 391.725 114.782 391.002 116.882 390.288C118.951 389.58 121.048 388.894 123.208 388.478C125.338 388.07 127.513 387.911 129.674 387.894C131.936 387.875 134.229 387.945 136.469 388.247C141.731 388.966 146.199 391.813 149.445 395.64C149.154 394.118 147.776 392.52 147.054 391.292C145.601 388.825 143.777 386.467 141.534 384.575C136.187 380.06 130.01 378.237 122.905 378.586C115.7 378.925 108.84 382.875 103.917 387.648C102.44 389.071 100.569 390.714 98.9434 392.521C100.145 389.417 101.073 386.138 102.152 383.061C104.997 374.942 105.528 365.738 104.601 357.268C103.589 347.937 100.471 339.179 93.7153 332.154C89.7089 327.994 84.518 325.245 80.762 320.89C80.7424 324.022 80.9674 327.119 81.5545 330.21C82.1971 333.552 83.1676 336.829 84.3039 340.054L84.3238 340.055Z" fill="#739DDC"/>
<path d="M82.1546 406.039C84.2326 403.722 86.2491 401.315 88.7235 399.356C89.9557 398.375 91.4188 397.397 92.9824 396.72C91.7061 396.627 90.4323 396.306 89.2103 395.867C86.7176 394.975 84.3764 393.67 82.1285 392.335C77.9833 389.877 74.0736 387.071 69.833 384.765C65.4775 382.402 60.7964 380.588 56.0221 379.107C51.0812 377.582 45.968 376.175 40.7239 376.29C38.7111 376.33 36.7043 376.513 34.6976 376.696C35.4709 377.304 37.2264 377.932 38.4531 378.93C42.4945 382.231 44.429 387.534 48.2032 391.199C57.4384 400.157 69.8604 399.671 81.9892 398.8C82.0698 398.797 82.1422 398.775 82.2228 398.773C79.146 400.225 76.2343 402.543 74.0232 404.886C71.0021 408.104 68.1264 413.399 68.0378 417.936C68.1775 417.844 68.3252 417.772 68.4649 417.68C73.5992 414.421 78.1668 410.497 82.1736 406.05L82.1546 406.039Z" fill="#739DDC"/>
</g>
<path d="M279.009 350.072C278.916 347.253 278.985 344.437 279.125 341.626C279.38 336.611 279.87 331.595 279.952 326.575C280.023 321.9 279.839 317.223 279.281 312.579C278.725 308.018 277.804 303.493 276.36 299.123C275.643 296.94 274.794 294.8 273.8 292.722C273.301 291.687 272.779 290.668 272.214 289.661C271.878 289.069 271.531 288.486 271.185 287.892C271.038 292.592 269.879 297.192 268.501 301.664C267.126 306.127 266.066 310.646 265.92 315.336C265.778 319.863 266.246 324.406 267.442 328.785C268.664 333.24 270.856 337.307 273.123 341.307C274.404 343.578 275.685 345.85 276.771 348.223C277.28 349.352 277.754 350.503 278.165 351.662C278.606 352.92 278.888 354.205 279.212 355.489C279.246 355.619 279.315 355.725 279.405 355.836C279.353 355.304 279.299 354.782 279.257 354.252C279.13 352.856 279.055 351.461 279.011 350.062L279.009 350.072Z" fill="#96C6F9"/>
<path d="M345.262 315.566C342.986 315.896 340.738 316.385 338.524 317.003C334.095 318.241 329.825 319.992 325.721 322.074C321.547 324.192 317.558 326.646 313.721 329.304C309.595 332.169 305.706 335.368 301.673 338.375C299.409 340.056 297.117 341.68 294.728 343.182C293.541 343.924 292.34 344.632 291.115 345.305C290.654 345.556 290.191 345.816 289.72 346.065C289.849 346.082 289.982 346.079 290.114 346.035C291.362 345.592 292.586 345.113 293.872 344.78C295.071 344.469 296.287 344.224 297.515 344.022C300.086 343.6 302.693 343.401 305.289 343.2C309.88 342.844 314.467 342.407 318.853 340.935C323.159 339.499 327.186 337.35 330.867 334.709C334.679 331.973 337.833 328.578 340.78 324.956C343.728 321.324 346.897 317.809 350.711 315.064C350.038 315.106 349.36 315.128 348.682 315.19C347.538 315.287 346.397 315.416 345.26 315.576L345.262 315.566Z" fill="#96C6F9"/>
<path d="M317.503 369.394C321.315 366.659 324.469 363.264 327.416 359.641C330.364 356.009 333.533 352.495 337.347 349.749C336.674 349.792 335.995 349.813 335.318 349.875C334.174 349.973 333.033 350.101 331.896 350.261C329.62 350.591 327.372 351.08 325.158 351.699C320.729 352.936 316.459 354.687 312.354 356.769C308.191 358.889 304.192 361.341 300.355 364C296.229 366.864 292.339 370.064 288.307 373.07C286.043 374.751 283.751 376.375 281.362 377.877C280.174 378.619 278.973 379.328 277.749 380.001C277.288 380.251 276.825 380.512 276.354 380.76C276.483 380.777 276.616 380.775 276.748 380.731C277.996 380.287 279.22 379.808 280.506 379.475C281.705 379.165 282.921 378.919 284.149 378.717C286.72 378.296 289.327 378.096 291.923 377.895C296.514 377.54 301.101 377.102 305.487 375.631C309.793 374.194 313.82 372.045 317.501 369.404L317.503 369.394Z" fill="#96C6F9"/>
<path d="M302.448 312.656C301.967 310.369 301.614 308.057 301.326 305.728C300.806 301.583 300.484 297.419 299.816 293.294C299.199 289.466 298.371 285.665 297.241 281.944C296.126 278.297 294.717 274.732 292.899 271.367C291.995 269.686 290.989 268.055 289.883 266.505C289.331 265.725 288.744 264.968 288.143 264.229C287.786 263.786 287.416 263.361 287.045 262.936C287.603 266.803 287.322 270.729 286.848 274.594C286.367 278.447 286.165 282.287 286.715 286.142C287.253 289.862 288.296 293.514 289.911 296.918C291.554 300.389 293.938 303.392 296.366 306.333C297.743 308.001 299.118 309.679 300.349 311.46C300.927 312.307 301.48 313.179 301.988 314.072C302.532 315.034 302.944 316.04 303.397 317.045C303.447 317.147 303.523 317.224 303.601 317.292C303.476 316.867 303.36 316.444 303.254 316.023C302.949 314.897 302.685 313.768 302.442 312.635L302.448 312.656Z" fill="#96C6F9"/>
<path d="M311.804 271.746C310.617 270.393 309.504 268.974 308.429 267.523C306.51 264.934 304.72 262.26 302.714 259.744C300.845 257.401 298.852 255.164 296.69 253.096C294.562 251.066 292.265 249.205 289.775 247.631C288.531 246.838 287.239 246.128 285.907 245.512C285.238 245.198 284.562 244.913 283.882 244.647C283.465 244.489 283.057 244.342 282.641 244.183C284.48 246.571 285.793 249.319 286.929 252.091C288.064 254.863 289.377 257.519 291.218 259.898C292.993 262.201 295.066 264.251 297.443 265.924C299.863 267.637 302.595 268.741 305.344 269.808C306.904 270.411 308.463 271.014 309.965 271.748C310.679 272.092 311.376 272.473 312.056 272.882C312.782 273.32 313.448 273.848 314.129 274.348C314.2 274.404 314.278 274.42 314.366 274.439C314.119 274.203 313.884 273.96 313.649 273.716C313.018 273.073 312.408 272.424 311.824 271.75L311.804 271.746Z" fill="#96C6F9"/>
<path d="M327.89 223.643C326.975 224.79 326.128 226.002 325.363 227.262C323.834 229.781 322.597 232.464 321.598 235.228C320.579 238.039 319.778 240.936 319.154 243.861C318.474 247.008 318.06 250.201 317.487 253.371C317.166 255.143 316.805 256.916 316.337 258.657C316.106 259.518 315.852 260.385 315.572 261.235C315.465 261.55 315.366 261.876 315.247 262.199C315.318 262.153 315.372 262.092 315.419 262.01C315.813 261.255 316.167 260.491 316.623 259.78C317.049 259.113 317.512 258.464 317.992 257.829C319.017 256.501 320.142 255.276 321.27 254.041C323.257 251.873 325.213 249.658 326.628 247.053C328.013 244.492 328.961 241.728 329.527 238.884C330.113 235.941 330.104 232.966 329.902 229.981C329.693 226.984 329.633 223.957 330.223 220.996C329.922 221.311 329.621 221.625 329.328 221.952C328.836 222.493 328.36 223.057 327.892 223.633L327.89 223.643Z" fill="#96C6F9"/>
<path d="M309.039 241.473C308.61 239.718 308.275 237.952 307.986 236.164C307.476 232.992 307.118 229.78 306.502 226.627C305.924 223.685 305.194 220.784 304.214 217.952C303.265 215.168 302.076 212.457 300.598 209.909C299.853 208.639 299.038 207.405 298.149 206.238C297.7 205.653 297.236 205.086 296.749 204.534C296.46 204.208 296.159 203.89 295.87 203.563C296.403 206.526 296.288 209.557 296.019 212.545C295.752 215.524 295.691 218.494 296.217 221.445C296.731 224.302 297.619 227.083 298.958 229.663C300.316 232.298 302.225 234.547 304.184 236.756C305.29 238.01 306.396 239.264 307.382 240.605C307.85 241.245 308.305 241.902 308.715 242.58C309.155 243.306 309.505 244.074 309.876 244.837C309.911 244.916 309.979 244.981 310.051 245.027C309.946 244.698 309.839 244.38 309.744 244.053C309.484 243.201 309.247 242.334 309.031 241.462L309.039 241.473Z" fill="#96C6F9"/>
<path d="M274.127 392.156C274.154 392.223 274.185 392.27 274.228 392.31C274.199 392.253 274.158 392.203 274.127 392.156Z" fill="#96C6F9"/>
<path d="M276.236 379.52C276.407 379.433 276.579 379.346 276.752 379.25C277.86 378.644 278.955 378.005 280.024 377.341C282.231 375.975 284.377 374.514 286.507 373.03C290.686 370.105 294.79 367.053 298.977 364.14C306.587 358.839 314.795 354.195 323.693 351.473C326.106 350.733 328.559 350.144 331.046 349.736C332.337 349.526 333.641 349.35 334.95 349.246C335.968 349.164 337.007 349.085 338.028 349.136C338.184 348.78 338.002 348.333 337.635 348.134C336.911 347.737 336.08 347.511 335.312 347.228C334.63 346.972 333.927 346.764 333.217 346.594C331.75 346.235 330.251 346.023 328.746 345.892C326.199 345.664 323.633 345.667 321.093 345.891C311.807 346.712 302.839 350.4 295.42 356.007C291.377 359.062 287.771 362.617 284.6 366.53C284.715 366.37 284.831 366.21 284.922 366.066C284.974 365.965 284.749 366.306 284.68 366.393C282.991 368.502 281.24 370.423 279.793 372.694C278.678 374.453 277.565 376.202 276.497 377.981C276.647 377.072 276.806 376.165 276.966 375.259C277.978 369.8 279.517 364.411 281.655 359.281C283.465 354.94 285.684 350.838 288.102 346.86C288.476 346.244 288.861 345.629 289.233 345.023C289.531 344.871 289.826 344.728 290.116 344.564C291.224 343.959 292.318 343.32 293.388 342.655C295.595 341.289 297.74 339.829 299.87 338.344C304.05 335.42 308.154 332.367 312.341 329.454C319.951 324.153 328.159 319.509 337.057 316.788C339.47 316.047 341.923 315.458 344.41 315.05C345.7 314.84 347.004 314.664 348.313 314.561C349.332 314.478 350.37 314.4 351.392 314.45C351.548 314.095 351.366 313.648 350.999 313.448C350.275 313.051 349.444 312.826 348.676 312.542C347.993 312.287 347.289 312.088 346.581 311.909C345.113 311.55 343.615 311.338 342.11 311.206C339.562 310.978 336.997 310.982 334.457 311.205C325.171 312.027 316.203 315.715 308.784 321.321C304.741 324.376 301.144 327.934 297.964 331.844C298.079 331.685 298.192 331.535 298.276 331.379C298.282 331.349 298.28 331.359 298.262 331.396C298.308 331.324 298.352 331.262 298.398 331.189C303.938 322.798 308.602 313.957 311.659 304.35C312.055 303.095 312.434 301.825 312.771 300.557C312.836 300.54 312.903 300.514 312.96 300.485C313.907 299.917 314.818 299.321 315.809 298.834C316.731 298.384 317.686 297.971 318.641 297.61C320.664 296.828 322.741 296.232 324.828 295.637C328.503 294.579 332.161 293.456 335.48 291.516C338.738 289.624 341.657 287.202 344.209 284.437C346.854 281.569 348.852 278.279 350.637 274.832C352.425 271.375 354.414 267.981 357.061 265.103C356.518 265.255 355.968 265.395 355.425 265.547C354.511 265.815 353.6 266.114 352.704 266.437C350.912 267.093 349.157 267.86 347.46 268.74C344.069 270.491 340.881 272.633 337.899 275.011C334.868 277.431 332.031 280.095 329.355 282.916C326.473 285.939 323.86 289.192 321.079 292.317C319.527 294.066 317.933 295.775 316.235 297.391C315.392 298.195 314.533 298.975 313.649 299.73C313.365 299.967 313.078 300.213 312.792 300.46C312.934 299.927 313.068 299.383 313.201 298.849C313.826 298.306 314.45 297.763 315.05 297.194C316.617 295.714 318.118 294.159 319.59 292.598C322.504 289.52 325.314 286.35 328.238 283.274C333.536 277.693 339.433 272.523 346.218 268.817C348.053 267.812 349.946 266.922 351.903 266.167C352.915 265.777 353.95 265.421 354.994 265.119C355.81 264.882 356.636 264.646 357.48 264.517C357.546 264.204 357.322 263.86 356.995 263.761C356.342 263.563 355.627 263.515 354.953 263.415C354.359 263.321 353.746 263.274 353.148 263.251C351.891 263.202 350.637 263.286 349.393 263.424C347.288 263.667 345.195 264.096 343.167 264.703C335.753 266.929 329.076 271.434 323.985 277.243C321.206 280.41 318.879 283.907 316.955 287.621C317.027 287.472 317.09 287.322 317.138 287.189C317.156 287.101 317.04 287.414 316.992 287.496C316.209 289.038 315.373 290.487 314.673 292.026C315.621 286.677 316.136 281.247 316.175 275.799C316.176 275.697 316.167 275.593 316.168 275.491C316.163 275.418 316.17 275.338 316.164 275.265C316.178 270.916 315.835 266.604 315.199 262.332C315.117 261.794 315.034 261.265 314.941 260.735C315.121 260.17 315.303 259.595 315.453 259.024C315.892 257.42 316.252 255.799 316.593 254.174C317.264 250.974 317.857 247.757 318.536 244.569C319.772 238.769 321.585 232.998 324.56 227.829C325.363 226.434 326.251 225.077 327.233 223.802C327.742 223.132 328.285 222.49 328.844 221.871C329.282 221.391 329.737 220.924 330.235 220.498C330.165 220.248 329.878 220.106 329.609 220.172C329.1 220.31 328.607 220.565 328.125 220.77C327.697 220.956 327.276 221.164 326.871 221.386C326.028 221.853 325.234 222.422 324.477 223.009C323.183 224.015 321.986 225.143 320.894 226.355C316.907 230.801 314.322 236.451 313.306 242.317C312.799 245.225 312.661 248.17 312.803 251.101C312.234 249.04 311.588 247.004 310.889 244.978C310.907 244.941 310.937 244.896 310.947 244.847C311.366 243.188 311.698 241.51 312.049 239.836C312.404 238.143 312.457 236.479 312.614 234.754C312.628 234.686 312.662 234.427 312.648 234.496C312.508 235.018 312.567 235.756 312.437 236.28C312.881 232.603 312.875 228.883 312.309 225.198C311.407 219.318 308.934 213.619 305.028 209.101C303.959 207.865 302.779 206.719 301.514 205.687C300.762 205.08 299.983 204.508 299.146 204.015C298.747 203.778 298.333 203.559 297.901 203.376C297.415 203.162 296.939 202.899 296.428 202.751C296.168 202.676 295.886 202.8 295.806 203.039C296.298 203.469 296.735 203.969 297.163 204.458C297.717 205.085 298.242 205.747 298.744 206.424C299.698 207.718 300.566 209.085 301.341 210.504C304.211 215.724 305.916 221.528 307.044 227.353C307.67 230.56 308.189 233.785 308.802 237C309.114 238.628 309.446 240.261 309.855 241.869C309.987 242.408 310.151 242.943 310.305 243.476C310.073 243.315 309.675 243.507 309.787 243.848C310.114 244.825 310.418 245.809 310.713 246.79C312.33 252.187 313.427 257.771 314.031 263.415C314.051 263.614 314.079 263.824 314.098 264.022C314.373 266.706 314.532 269.406 314.578 272.113C314.292 271.041 313.996 269.968 313.688 268.902C313.219 267.24 312.501 265.741 311.848 264.132C311.821 264.065 311.741 263.814 311.756 263.888C311.871 264.413 312.259 265.046 312.395 265.565C311.1 262.096 309.371 258.79 307.171 255.785C303.653 250.98 298.833 247.068 293.29 244.853C291.772 244.248 290.195 243.775 288.588 243.448C287.639 243.249 286.687 243.11 285.716 243.06C285.252 243.034 284.781 243.038 284.316 243.063C283.788 243.095 283.239 243.082 282.726 243.189C282.469 243.248 282.276 243.483 282.305 243.734C282.947 243.89 283.561 244.131 284.165 244.37C284.948 244.677 285.716 245.012 286.466 245.383C287.91 246.095 289.313 246.91 290.648 247.803C295.604 251.111 299.788 255.473 303.473 260.118C305.501 262.679 307.455 265.296 309.481 267.866C310.516 269.166 311.561 270.468 312.66 271.71C313.197 272.314 313.747 272.909 314.322 273.479C314.407 273.559 314.493 273.638 314.569 273.715C314.567 274.062 314.568 274.399 314.557 274.744C314.473 283.575 313.216 292.395 310.853 300.789C310.759 301.137 310.664 301.495 310.56 301.841C310.548 301.9 310.528 301.947 310.506 302.003C309.089 306.764 307.283 311.33 305.124 315.731C305.579 314.048 305.995 312.358 306.403 310.655C306.931 308.477 307.077 306.321 307.358 304.102C307.377 304.014 307.446 303.681 307.418 303.767C307.378 303.912 307.355 304.071 307.322 304.227C307.835 300.074 307.888 295.876 307.386 291.693C306.471 284.022 303.514 276.536 298.66 270.501C297.33 268.853 295.855 267.308 294.247 265.918C293.305 265.097 292.314 264.317 291.247 263.654C290.733 263.331 290.214 263.028 289.665 262.77C289.054 262.468 288.436 262.104 287.782 261.906C287.458 261.797 287.078 261.952 286.953 262.253C287.578 262.833 288.123 263.499 288.66 264.153C289.352 264.993 289.995 265.874 290.614 266.77C291.796 268.49 292.856 270.306 293.804 272.17C297.303 279.065 299.246 286.656 300.462 294.257C301.127 298.442 301.665 302.652 302.32 306.836C302.651 308.959 303.01 311.098 303.469 313.197C303.692 314.225 303.938 315.247 304.217 316.256C304.295 316.517 304.373 316.779 304.451 317.041C304.243 317.447 304.035 317.853 303.818 318.257C301.921 321.844 299.8 325.333 297.466 328.715C293.207 334.893 288.595 340.853 284.655 347.22C285.431 345.176 285.98 343.094 286.641 340.964C286.673 340.859 286.824 340.482 286.772 340.583C286.688 340.739 286.63 340.921 286.559 341.111C288.04 336.292 288.98 331.319 289.275 326.262C289.801 316.982 287.871 307.474 283.372 299.307C282.145 297.067 280.712 294.938 279.107 292.946C278.156 291.776 277.147 290.644 276.033 289.624C275.492 289.133 274.936 288.669 274.342 288.237C273.677 287.751 273.027 287.195 272.292 286.806C271.923 286.616 271.453 286.712 271.242 287.036C271.856 287.859 272.362 288.762 272.859 289.653C273.498 290.799 274.089 291.975 274.627 293.161C275.669 295.453 276.551 297.825 277.281 300.236C279.981 309.14 280.694 318.557 280.529 327.82C280.44 332.92 280.189 338.017 280.088 343.125C280.034 345.72 280.01 348.32 280.109 350.916C280.16 352.183 280.233 353.445 280.349 354.695C280.362 354.78 280.375 354.864 280.376 354.956C280.172 355.394 279.956 355.839 279.751 356.276C279.651 356.511 279.553 356.735 279.453 356.97C277.277 361.939 275.647 367.176 274.62 372.509C274.216 368.102 273.384 363.738 272.039 359.482C269.251 350.61 264.075 342.403 256.975 336.357C255.033 334.704 252.935 333.211 250.733 331.922C249.431 331.158 248.087 330.457 246.68 329.907C246 329.642 245.314 329.406 244.607 329.217C243.815 329 243.008 328.708 242.191 328.608C241.772 328.561 241.371 328.814 241.291 329.196C242.157 329.745 242.947 330.411 243.739 331.068C244.747 331.913 245.706 332.798 246.634 333.729C248.418 335.503 250.083 337.405 251.616 339.402C257.294 346.775 261.293 355.328 264.418 364.055C266.139 368.86 267.715 373.717 269.426 378.521C270.294 380.961 271.191 383.407 272.202 385.795C272.693 386.961 273.208 388.111 273.766 389.25C274.174 390.081 274.606 390.897 275.024 391.731C275.095 388.129 275.42 384.529 275.922 380.966C275.989 380.5 276.059 380.024 276.126 379.558L276.236 379.52ZM284.315 366.869C283.942 367.332 283.566 367.805 283.211 368.282C283.48 367.828 283.918 367.347 284.315 366.869ZM307.128 306.026C307.2 305.54 307.273 305.044 307.334 304.557C307.279 305.066 307.248 305.601 307.128 306.026ZM316.8 287.925C316.574 288.368 316.348 288.812 316.132 289.257C316.271 288.836 316.552 288.374 316.8 287.925ZM286.509 341.499C286.332 342.095 286.179 342.727 285.957 343.202C286.147 342.639 286.329 342.064 286.509 341.499Z" fill="#96C6F9"/>
<path d="M270.911 385.422C269.833 382.816 268.897 380.167 268.029 377.482C266.487 372.704 265.177 367.841 263.472 363.11C261.891 358.712 260.056 354.404 257.891 350.261C255.761 346.188 253.289 342.287 250.391 338.716C248.946 336.932 247.393 335.227 245.733 333.642C244.909 332.846 244.047 332.083 243.169 331.347C242.648 330.911 242.112 330.492 241.579 330.063C243.099 334.51 243.653 339.224 243.951 343.894C244.25 348.555 244.859 353.158 246.38 357.595C247.853 361.878 249.887 365.963 252.562 369.63C255.282 373.368 258.777 376.389 262.307 379.337C264.307 381.003 266.316 382.681 268.17 384.51C269.05 385.38 269.901 386.294 270.694 387.236C271.553 388.254 272.263 389.354 273.025 390.443C273.105 390.552 273.21 390.635 273.331 390.691C273.094 390.212 272.858 389.734 272.628 389.267C272.024 388.006 271.444 386.73 270.907 385.442L270.911 385.422Z" fill="#96C6F9"/>
<ellipse cx="62.7058" cy="37.5005" rx="62.7058" ry="37.5005" transform="matrix(-1 0 0 1 134.412 207.54)" fill="#BDBBBB"/>
<path d="M99.985 235.204L99.985 254.262H158.549L99.985 235.204Z" fill="#BDBBBB"/>
<line y1="-0.5" x2="76.2351" y2="-0.5" transform="matrix(-1 0 0 1 111.051 238.278)" stroke="#313131"/>
<line y1="-0.5" x2="76.2351" y2="-0.5" transform="matrix(-1 0 0 1 111.051 246.885)" stroke="#313131"/>
<line y1="-0.5" x2="38.1153" y2="-0.5" transform="matrix(-1 0 0 1 111.051 255.492)" stroke="#313131"/>
<g clip-path="url(#clip0_108_4)">
<path fill-rule="evenodd" clip-rule="evenodd" d="M144.445 497.929C153.45 504.465 157.766 506.098 169.223 507.656C169.969 507.805 170.711 507.878 171.457 507.954C190.803 510.405 210.75 509.439 229.648 505.056C230.54 504.835 231.507 504.61 232.403 504.388C239.396 502.682 240.142 500.75 246.764 498.078C249.518 496.963 250.486 431.77 246.986 411.644C243.711 392.34 236.867 369.989 227.414 352.463C227.341 352.314 227.785 349.715 227.713 349.566L179.568 349.493C179.568 349.493 179.79 351.2 179.418 351.497C175.623 354.765 157.391 370.21 147.643 396.646C147.643 396.646 144.147 406.521 142.509 417.141C140.501 429.319 144.445 497.929 144.445 497.929Z" fill="#F6F8FD"/>
<path fill-rule="evenodd" clip-rule="evenodd" d="M250.315 256.07C247.783 252.356 242.496 244.557 238.697 234.605C233.036 219.599 231.322 187.067 231.249 186.697C228.717 172.287 223.354 155.425 203.615 152.307C202.126 152.085 200.635 151.936 199.147 151.936C197.808 151.936 196.541 152.753 195.945 153.94C195.723 154.46 195.497 154.83 195.497 154.83L188.868 157.43C188.42 157.578 187.973 157.8 187.529 157.949C171.738 164.633 161.608 180.158 161.309 197.241C161.16 205.933 161.088 221.454 161.309 225.245C161.906 234.678 157.14 256.814 151.551 265.056C150.656 266.32 149.019 269.809 147.156 272.187C145.518 274.34 160.713 286.227 184.545 288.678C199.816 290.239 209.273 287.044 228.12 281.326C229.907 280.806 237.729 275.756 242.867 270.851C255.38 258.67 252.4 259.116 250.315 256.07Z" fill="#EFAC14"/>
<path fill-rule="evenodd" clip-rule="evenodd" d="M168.754 203.776C169.351 205.112 170.242 206.078 171.585 206.895C171.807 207.044 172.105 207.193 172.331 207.342C174.044 208.231 176.056 208.754 177.097 208.903C177.395 209.941 177.694 210.613 178.141 211.651C179.928 215.961 182.984 220.118 186.335 223.237C186.335 223.237 186.557 236.014 186.186 240.026C185.666 245.301 183.952 247.901 183.876 248.271C183.876 248.271 179.629 255.623 171.363 258.002C171.363 258.002 184.323 263.869 195.868 263.647C206.445 263.426 217.244 257.853 217.244 257.853C215.083 257.108 213.446 256.291 211.212 255.032C209.796 254.215 206.893 251.245 206.893 251.245C206.82 250.947 204.36 247.382 204.288 247.011C204.215 246.862 203.171 245.377 202.352 240.549C201.755 237.132 202.13 231.414 202.13 231.414C202.8 231.486 203.695 231.635 204.364 231.635C210.772 231.857 214.865 228.589 217.623 223.538C218.22 222.424 218.74 221.237 219.26 219.973C220.748 216.11 221.494 211.506 221.865 206.975C222.164 202.814 222.313 196.874 221.938 191.969C221.789 190.408 220.894 182.387 219.777 179.566C219.628 179.196 218.958 177.116 218.882 176.818C217.244 173.18 216.422 171.47 214.188 168.798C211.583 165.976 208.603 164.045 205.474 162.781C198.026 159.884 188.195 163.301 182.981 168.946C182.162 169.836 181.416 170.802 180.746 171.767C179.629 173.478 178.662 175.26 177.843 177.188C177.545 177.933 177.246 178.601 177.024 179.341C176.355 181.494 175.831 183.651 175.536 185.877C175.387 186.842 174.419 192.859 175.238 193.378C175.238 193.378 175.016 193.229 174.939 193.229C173.375 192.412 171.588 192.561 170.62 193.007C169.653 193.454 168.907 194.271 168.459 195.16C168.012 196.05 167.641 197.092 167.641 198.279C167.641 199.913 168.088 202.44 168.758 203.776H168.754Z" fill="#F8BC9A"/>
<path fill-rule="evenodd" clip-rule="evenodd" d="M186.259 223.165C196.316 229.551 200.857 231.857 201.901 231.261C201.901 231.559 201.901 231.929 201.828 232.597C201.755 234.01 201.977 239.877 201.977 239.877C201.977 239.877 195.126 242.106 186.335 230.219C186.335 227.692 186.263 223.237 186.263 223.161L186.259 223.165Z" fill="#F7A77F"/>
<path fill-rule="evenodd" clip-rule="evenodd" d="M176.053 204.964C174.787 204.368 173.819 203.479 173.073 202.437C172.702 201.917 172.403 201.322 172.178 200.654C172.105 200.356 171.956 200.058 171.879 199.688C171.807 199.39 171.807 199.02 171.73 198.722C171.73 199.093 171.73 199.39 171.657 199.761C171.657 200.131 171.73 200.429 171.807 200.799C171.956 201.467 172.254 202.135 172.702 202.731C173.448 203.769 174.637 204.662 176.053 204.96" fill="#3A1F28"/>
<path fill-rule="evenodd" clip-rule="evenodd" d="M206.667 231.185C205.699 231.185 204.804 231.334 203.836 231.185C202.869 231.036 201.752 230.963 200.784 230.738C199.816 230.517 198.921 230.292 197.953 229.921C197.058 229.624 196.166 229.177 195.421 228.509C195.719 228.879 196.09 229.177 196.538 229.475C196.985 229.773 197.433 229.994 197.877 230.219C198.772 230.666 199.739 230.887 200.707 231.109C201.675 231.33 202.643 231.479 203.687 231.479C204.655 231.7 205.699 231.628 206.667 231.181" fill="#3A1F28"/>
<path fill-rule="evenodd" clip-rule="evenodd" d="M225.66 207.342C224.245 210.312 222.757 213.358 220.745 216.034C223.055 206.376 222.382 194.79 221.64 188.327C221.341 185.8 220.894 183.201 220.224 180.75C219.031 176.589 216.648 169.905 211.51 167.008C211.51 167.008 205.477 173.47 203.465 178.521C202.498 180.899 201.304 183.125 199.889 185.132C199.441 185.8 198.921 186.545 198.401 187.213C198.179 187.51 197.953 187.732 197.731 188.03C197.658 188.179 197.509 188.251 197.433 188.4C197.211 188.621 196.985 188.919 196.763 189.144C196.465 189.442 196.167 189.74 195.868 190.034C195.57 190.328 195.348 190.553 195.049 190.851C194.828 191.072 194.529 191.297 194.304 191.519C194.154 191.668 194.005 191.817 193.783 191.965C192.815 192.782 191.771 193.527 190.731 194.195C190.432 194.344 190.134 194.565 189.835 194.714C189.388 195.012 188.868 195.233 188.42 195.531C188.198 195.603 188.049 195.752 187.823 195.829C187.452 196.05 187.005 196.199 186.557 196.424C186.408 196.497 186.259 196.573 186.11 196.645C185.888 196.718 185.662 196.794 185.364 196.943H185.291C185.069 197.016 184.92 197.092 184.694 197.165C184.098 197.386 183.577 197.535 182.981 197.684C182.682 197.756 182.311 197.833 181.936 197.905C181.714 197.978 181.416 197.978 181.19 198.054C180.968 198.127 180.67 198.127 180.444 198.203H180.223C179.924 198.276 179.702 198.276 179.404 198.276C179.182 197.829 178.884 197.386 178.585 197.012C178.138 196.417 177.766 195.974 177.246 195.527C176.875 195.157 176.5 194.859 176.129 194.638C175.907 194.489 175.758 194.416 175.532 194.267C174.488 193.672 173.448 193.45 172.48 193.523C171.883 193.596 171.286 193.744 170.766 194.042C169.871 194.489 169.129 195.306 168.681 196.344C168.234 197.234 168.012 198.348 168.012 199.612C168.012 200.578 168.084 201.543 168.383 202.582C168.383 202.731 168.456 202.879 168.532 203.028C168.605 203.177 168.605 203.326 168.681 203.475C168.754 203.624 168.754 203.696 168.83 203.845C168.979 204.216 169.129 204.513 169.278 204.884C169.875 206.22 170.992 207.186 172.181 207.93C172.403 208.079 172.629 208.228 172.851 208.3C174.565 209.19 176.428 209.636 177.468 209.785C177.767 210.824 178.138 211.789 178.585 212.755C180.448 216.916 183.202 220.775 186.481 223.898C185.811 223.825 185.142 223.676 184.469 223.6C184.396 223.6 184.247 223.6 184.17 223.528C170.166 221.001 160.112 208.522 160.334 194.264V194.115C160.633 176.956 170.762 161.286 186.626 154.525C187.074 154.304 187.521 154.155 187.965 154.006L194.667 151.406C194.667 151.406 194.889 150.96 195.115 150.44C195.712 149.177 196.978 148.436 198.393 148.436C199.958 148.436 201.446 148.585 202.861 148.807C211.503 150.219 218.875 154.899 223.492 162.4C225.577 165.744 227.068 169.458 228.186 173.245C231.613 183.793 230.645 197.016 225.653 207.338" fill="#EFAC14"/>
<path fill-rule="evenodd" clip-rule="evenodd" d="M203.094 310.876L231.217 356.922L234.935 357.96C237.242 357.364 239.472 356.399 241.408 355.063L241.63 354.914L302.557 314.068C302.855 314.289 303.154 314.514 303.525 314.663C305.311 315.702 307.021 316.816 308.139 317.114C316.62 319.637 323.388 320.454 332.167 318.897C336.184 318.229 343.177 315.927 346.303 312.808C345.561 311.693 341.245 312.957 339.161 312.586C340.427 312.067 343.774 309.765 344.888 309.319C346.299 308.8 346.005 306.941 344.516 307.089C343.774 307.162 342.137 307.387 339.979 307.757C340.278 307.609 340.5 307.536 340.721 307.387C342.06 306.792 341.613 304.936 340.201 305.158C338.564 305.456 331.869 307.013 326.142 308.426C324.206 308.128 322.347 307.757 320.415 307.387C323.762 306.719 328.747 305.532 329.267 304.417C330.086 302.711 313.123 303.6 309.183 303.23C307.622 303.157 306.134 303.451 304.646 303.974C303.678 304.345 302.637 304.719 301.746 305.089C301.673 305.161 301.596 305.161 301.447 305.238C300.556 305.833 298.398 306.944 298.398 307.093L240.742 332.047L229.732 301.894C229.732 302.043 229.659 302.192 229.659 302.264L226.534 303.303L223.557 304.192L203.098 310.876H203.094Z" fill="#F8BC9A"/>
<path fill-rule="evenodd" clip-rule="evenodd" d="M167.458 258.818L194.314 287.93C201.009 293.053 204.433 295.431 204.582 295.21C204.804 294.988 207.781 288.525 213.511 275.974L224.743 257.78C220.876 255.257 221.767 255.257 215.294 254.364C209.047 253.547 172.443 253.917 164.708 255.848" fill="#F8BC9A"/>
<path fill-rule="evenodd" clip-rule="evenodd" d="M145.813 391.232L147.374 393.461C147.971 395.317 149.31 397.473 150.052 397.397C152.508 397.027 154.888 396.061 155.706 393.24C156.598 389.9 157.788 386.334 158.755 383.586C160.465 387.075 165.301 393.389 164.781 392.053C164.184 390.419 163.515 386.93 162.7 383.883C165.527 387.151 169.544 391.308 169.023 390.197C168.055 387.895 167.015 383.811 165.676 380.692C168.801 382.845 173.117 385.742 172.371 384.777C170.064 381.879 166.196 376.756 163.74 374.008C164.26 373.786 164.632 373.71 164.781 373.859C166.862 375.939 174.823 376.829 173.335 376.012C171.104 374.748 166.564 370.813 163.067 368.362C162.918 368.213 161.131 369.4 161.131 369.4C159.494 370.736 158.006 372.221 156.743 373.855C156.223 374.6 153.097 378.387 151.98 380.761L124.455 329.814L174.597 280.799C175.864 279.612 176.904 278.127 177.497 276.493C178.09 274.859 178.389 273.076 178.167 271.294C177.647 266.839 174.448 262.678 169.016 260.674C161.724 258.002 153.243 260.376 149.302 266.094L145.064 272.332L107.794 327.066C106.382 328.997 105.713 331.372 105.786 333.823C105.858 336.201 106.826 338.503 108.391 340.358L145.809 391.228L145.813 391.232Z" fill="#F8BC9A"/>
<path fill-rule="evenodd" clip-rule="evenodd" d="M100.877 335.682C101.769 330.41 105.265 322.909 109.73 314.663C119.252 297.359 137.554 276.195 144.249 269.362C146.854 266.69 149.532 264.09 152.432 261.712C156.598 258.296 159.348 256.883 160.913 256.292C161.433 256.07 161.954 255.921 162.55 255.845L162.623 255.918L167.459 254.952L173.113 254.879C172.222 256.292 183.006 276.566 197.513 282.876C198.779 284.063 200.413 284.361 201.606 283.765C202.348 283.395 202.723 282.651 202.872 282.353C205.03 279.975 205.623 279.605 206.071 279.013C207.111 277.677 208.152 276.043 209.047 273.962C210.834 269.95 211.798 266.759 212.322 264.827C212.322 264.827 213.14 262.079 213.588 259.704L213.737 258.96C213.81 258.739 213.81 258.441 213.81 258.365C213.959 257.548 213.737 257.399 213.883 256.658C214.032 255.841 214.33 255.62 214.181 255.024C214.108 254.876 214.032 254.578 214.032 254.578C214.032 254.578 214.105 254.65 214.254 254.876C213.733 254.207 214.105 254.727 213.955 254.505C213.883 254.356 213.733 254.207 213.584 254.059H215.52C215.52 254.059 216.189 254.059 217.157 254.131C217.678 254.131 218.274 254.204 218.944 254.28C219.762 254.131 220.581 254.131 221.4 254.28C225.937 255.024 230.7 258.365 233.676 263.266C236.503 268.168 238.585 273.367 240 278.788C242.976 289.335 245.207 303.146 250.712 324.833L270.425 316.145L280.024 344.366L240.819 359.888C238.81 360.705 236.58 360.705 234.644 359.888C232.636 359.071 230.998 357.586 230.107 355.654C212.624 372.065 181.231 366.053 173.644 357.067L163.231 296.317C155.717 305.005 144.78 315.034 128.49 333.3L146.272 351.199L123.061 370.061L99.6293 340.874C99.9277 339.091 100.372 337.384 100.896 335.674L100.877 335.682Z" fill="#F6F8FD"/>
<path d="M230.099 355.364C230.027 349.275 229.95 343.183 229.877 337.094C229.728 331.005 230.474 324.989 232.184 319.122C232.632 317.637 233.152 316.224 233.672 314.816C234.193 313.407 234.939 312.067 235.459 310.582C236.576 307.685 237.096 304.642 237.169 301.523C237.391 295.286 235.31 289.197 231.515 284.295L231.587 284.368L228.313 274.787L224.965 265.205L228.014 274.859L231.14 284.513V284.586C234.786 289.415 236.718 295.427 236.496 301.444C236.423 304.49 235.826 307.46 234.786 310.281C234.265 311.693 233.596 313.029 232.999 314.514C232.479 315.927 231.882 317.412 231.511 318.897C230.62 321.867 230.023 324.836 229.652 327.883C229.281 330.929 229.204 333.971 229.353 337.018C229.575 343.106 229.801 349.271 230.096 355.36L230.099 355.364Z" fill="#1E0E64"/>
<path fill-rule="evenodd" clip-rule="evenodd" d="M209.345 199.743C209.345 200.487 209.567 201.231 209.938 201.899C210.087 202.27 210.309 202.567 210.459 202.865C210.608 203.163 210.83 203.533 210.903 203.831C211.124 204.499 210.531 204.945 209.866 205.243C209.2 205.541 208.457 205.762 207.792 206.136C208.534 205.915 209.272 205.839 209.938 205.541C210.309 205.392 210.681 205.243 210.975 204.945C211.27 204.648 211.419 204.128 211.27 203.755C211.121 203.384 210.899 203.01 210.75 202.712L210.157 201.747C209.786 201.151 209.491 200.483 209.342 199.739" fill="#271018"/>
<path fill-rule="evenodd" clip-rule="evenodd" d="M211.125 216.255C210.237 215.885 209.272 215.736 208.308 215.66C207.344 215.583 206.456 215.587 205.568 215.587C203.789 215.515 202.163 215.289 200.606 214.099C200.827 215.064 201.643 215.885 202.53 216.331C203.418 216.851 204.455 216.999 205.419 217.076C206.384 217.148 207.344 217.003 208.308 216.854C209.345 216.705 210.233 216.484 211.125 216.259" fill="#271018"/>
<path fill-rule="evenodd" clip-rule="evenodd" d="M200.802 283.896C200.584 283.932 200.438 284.114 200.475 284.296C202.694 294.462 204.695 305.899 205.969 318.497C207.206 330.515 207.642 341.661 207.57 351.682C207.57 351.719 207.606 351.828 207.715 351.937C207.788 352.009 207.897 352.045 208.006 352.009C208.225 351.973 208.37 351.791 208.334 351.61C208.297 341.153 207.788 329.644 206.442 317.226C205.168 305.209 203.313 294.171 201.239 284.223C201.166 284.041 200.984 283.896 200.802 283.896Z" fill="#1E0E64"/>
<path fill-rule="evenodd" clip-rule="evenodd" d="M214.301 254.088H213.537C212.591 261.494 210.881 266.941 209.607 270.426C208.843 272.423 208.261 273.803 207.57 275.146C205.423 279.249 202.803 282.153 200.947 283.969C201.02 284.259 201.129 284.513 201.202 284.804C203.858 282.444 205.677 280.12 206.805 278.414C208.989 275.146 210.116 272.314 210.808 270.245C211.463 268.32 212.045 266.214 212.591 263.963C213.464 260.405 213.973 257.065 214.301 254.088Z" fill="#1E0E64"/>
<path fill-rule="evenodd" clip-rule="evenodd" d="M200.693 284.731C200.766 284.477 200.838 284.223 200.911 283.969C197.054 282.226 194.034 280.338 191.924 278.886C191.924 278.886 182.937 272.604 176.715 262.983C175.769 261.531 174.605 259.28 174.423 258.953C174.059 258.263 173.659 257.464 173.295 256.375C173.076 255.794 172.967 255.249 172.858 254.923C172.531 254.923 172.167 254.886 171.839 254.886C173.295 258.88 175.005 261.966 176.424 264.145C179.189 268.429 181.991 271.188 184.101 273.258C187.048 276.126 189.486 277.978 190.359 278.631C190.796 278.958 192.615 280.265 195.126 281.79C197.345 283.025 199.237 284.005 200.693 284.731Z" fill="#1E0E64"/>
<path fill-rule="evenodd" clip-rule="evenodd" d="M220.41 297.382L221.683 297.141C221.781 290.721 221.272 282.554 219.105 273.321C217.247 265.407 215.53 259.312 213.021 254.018C212.529 253.95 212.233 254.018 211.444 254.018C213.974 259.523 215.751 265.532 217.617 273.476C219.764 282.614 220.101 290.778 220.117 297.382H220.41Z" fill="#313131"/>
<path d="M220.906 308.421C216.987 308.421 213.81 305.244 213.81 301.325C213.81 297.406 216.987 294.229 220.906 294.229C224.825 294.229 228.002 297.406 228.002 301.325C228.002 305.244 224.825 308.421 220.906 308.421Z" fill="#313131"/>
<path d="M220.906 305.267C218.729 305.267 216.964 303.502 216.964 301.325C216.964 299.147 218.729 297.382 220.906 297.382C223.083 297.382 224.848 299.147 224.848 301.325C224.848 303.502 223.083 305.267 220.906 305.267Z" fill="#545454"/>
<path fill-rule="evenodd" clip-rule="evenodd" d="M175.964 282.531H177.61C176.402 279.87 174.395 274.957 174.387 268.563C174.38 262.126 175.541 257.177 176.753 254.512H175.176C173.986 257.315 172.792 262.202 172.811 268.563C172.829 274.812 174.782 279.742 175.964 282.531Z" fill="#313131"/>
<path fill-rule="evenodd" clip-rule="evenodd" d="M172.81 301.667C172.498 291.348 173.922 284.44 176.753 283.979C179.642 283.51 183.602 289.629 186.756 300.367H188.187C185.225 288.839 179.949 281.476 176.667 282.014C173.451 282.54 170.904 290.851 171.395 301.928C171.686 301.841 171.977 301.754 172.268 301.667H172.81Z" fill="#313131"/>
<path fill-rule="evenodd" clip-rule="evenodd" d="M171.446 300.146C171.009 301.278 171.27 302.725 172.024 303.372C172.779 304.028 173.744 303.636 174.176 302.504C174.613 301.372 174.351 299.924 173.597 299.277C172.842 298.622 171.877 299.013 171.446 300.146Z" fill="#313131"/>
<path fill-rule="evenodd" clip-rule="evenodd" d="M185.638 300.146C185.201 301.278 185.462 302.725 186.217 303.372C186.971 304.028 187.936 303.636 188.368 302.504C188.805 301.372 188.544 299.924 187.789 299.277C187.034 298.622 186.069 299.013 185.638 300.146Z" fill="#313131"/>
</g>
<line x1="-3" y1="392.5" x2="324" y2="392.5" stroke="#050324" stroke-width="3"/>
<defs>
<clipPath id="clip0_108_4">
<rect width="257.462" height="247.654" fill="white" transform="matrix(-1 0 0 1 351 146)"/>
</clipPath>
</defs>
</svg>
