<svg width="480" height="390" viewBox="0 0 480 390" fill="none" xmlns="http://www.w3.org/2000/svg">
<path d="M67.573 56.5C38.8438 29.9807 49.073 -2 71.573 -18L491.5 -15L492.5 255C462 262 443.26 274.5 349 274.5C282 274.5 266.5 270 229.5 231.5C202.297 203.194 147.667 220.833 129 231.5L116 239.5L97 234.5L120.192 216.5C149.313 189.5 158.313 176 165.313 160C170.813 147.428 171.313 130.4 161.313 114C143.935 85.5 100.073 86.5 67.573 56.5Z" fill="url(#paint0_linear_129_4)"/>
<circle cx="106" cy="17" r="2" fill="#3F51BA"/>
<circle cx="78" cy="5" r="2" fill="#3F51BA"/>
<circle cx="67" cy="21" r="2" fill="#3F51BA"/>
<rect x="210.5" y="27.3723" width="221.116" height="136.128" fill="url(#paint1_linear_129_4)" stroke="#1E0E64" stroke-width="5"/>
<rect x="211.898" y="27.9912" width="57.6986" height="134.89" fill="#1E0E64"/>
<rect x="215.797" y="33.4492" width="49.9015" height="46.7826" fill="#0B0429"/>
<rect x="215.797" y="88.0289" width="49.9015" height="28.8493" fill="#0B0429"/>
<rect x="216.577" y="127.794" width="49.1218" height="32.7479" fill="#0B0429"/>
<rect x="213.458" y="31.11" width="48.3421" height="45.2232" fill="#FFFDFD"/>
<line x1="230.612" y1="49.3231" x2="250.104" y2="49.3231" stroke="#545454"/>
<line x1="230.612" y1="40.7463" x2="246.206" y2="40.7463" stroke="#545454"/>
<line x1="230.612" y1="59.4593" x2="242.307" y2="59.4593" stroke="#545454"/>
<line x1="216.577" y1="64.1376" x2="256.342" y2="64.1376" stroke="#545454"/>
<line x1="216.577" y1="67.2564" x2="256.342" y2="67.2564" stroke="#545454"/>
<line x1="216.577" y1="70.3753" x2="256.342" y2="70.3753" stroke="#545454"/>
<line x1="216.577" y1="73.4941" x2="237.629" y2="73.4941" stroke="#545454"/>
<line x1="230.612" y1="53.2216" x2="258.681" y2="53.2216" stroke="#545454"/>
<line x1="230.612" y1="56.3405" x2="258.681" y2="56.3405" stroke="#545454"/>
<rect x="213.458" y="84.1304" width="48.3421" height="28.8493" fill="white"/>
<rect x="213.458" y="123.896" width="48.3421" height="32.7479" fill="#FFFDFD"/>
<line x1="230.612" y1="38.4071" x2="258.681" y2="38.4071" stroke="#545454"/>
<line x1="230.612" y1="36.068" x2="258.681" y2="36.068" stroke="#545454"/>
<line x1="230.612" y1="33.7289" x2="258.681" y2="33.7289" stroke="#545454"/>
<line x1="230.612" y1="44.6448" x2="258.681" y2="44.6448" stroke="#545454"/>
<line x1="230.612" y1="46.9839" x2="258.681" y2="46.9839" stroke="#545454"/>
<path d="M215.797 32.6694H228.272V46.7042H215.797V32.6694Z" fill="#EFAC14"/>
<path d="M215.797 46.7042L228.244 32.6694V46.7042L215.797 46.7042Z" fill="#C98B00"/>
<path d="M215.017 49.8231H229.052V61.5187H222.035H215.017V49.8231Z" fill="#1E0E64"/>
<path d="M229.052 49.8231L215.017 61.5187V49.8231H229.052Z" fill="#2528A1"/>
<rect x="215.797" y="86.4695" width="6.23769" height="21.0522" fill="#EFAC14"/>
<rect x="224.374" y="89.5883" width="5.45798" height="17.9333" fill="#2528A1"/>
<rect x="236.07" y="87.2492" width="6.23769" height="20.2725" fill="#0B0429"/>
<rect x="243.867" y="85.6898" width="5.45798" height="21.8319" fill="#1E0E64"/>
<rect x="250.884" y="95.826" width="3.89855" height="11.6957" fill="#C98B00"/>
<line x1="214.238" y1="107.801" x2="231.391" y2="107.801" stroke="black"/>
<line x1="235.29" y1="107.801" x2="256.342" y2="107.801" stroke="black"/>
<line x1="216.577" y1="110.141" x2="259.461" y2="110.141" stroke="#545454"/>
<line x1="218.916" y1="111.7" x2="232.171" y2="111.7" stroke="#545454"/>
<line x1="243.867" y1="111.7" x2="257.901" y2="111.7" stroke="#545454"/>
<circle cx="227.103" cy="136.761" r="11.3058" fill="#A59C9C"/>
<path d="M237.239 132.083L238.019 134.032L238.409 135.981L226.323 137.93L237.239 132.083Z" fill="#FF8500"/>
<path d="M230.222 147.677L226.713 148.067L226.323 137.93L230.222 147.677Z" fill="#C98B00"/>
<line x1="241.528" y1="125.735" x2="258.681" y2="125.735" stroke="black"/>
<line x1="241.528" y1="128.074" x2="258.681" y2="128.074" stroke="black"/>
<line x1="241.528" y1="130.413" x2="258.681" y2="130.413" stroke="black"/>
<line x1="241.528" y1="132.752" x2="258.681" y2="132.752" stroke="black"/>
<line x1="241.528" y1="135.091" x2="258.681" y2="135.091" stroke="black"/>
<line x1="225.933" y1="150.685" x2="258.681" y2="150.685" stroke="black"/>
<line x1="225.933" y1="153.025" x2="258.681" y2="153.025" stroke="black"/>
<line x1="244.646" y1="139.77" x2="257.902" y2="139.77" stroke="black"/>
<line x1="244.646" y1="146.007" x2="257.902" y2="146.007" stroke="black"/>
<line x1="244.646" y1="142.888" x2="257.902" y2="142.888" stroke="black"/>
<line x1="242.807" y1="139.49" x2="242.807" y2="140.27" stroke="#545454"/>
<line x1="242.807" y1="145.728" x2="242.807" y2="146.507" stroke="#545454"/>
<line x1="242.307" y1="142.888" x2="243.087" y2="142.888" stroke="#545454"/>
<ellipse cx="434.116" cy="65.8072" rx="39.7653" ry="23.7812" fill="#BDBBBB"/>
<path d="M416.183 59.5695L416.183 71.655H379.044L416.183 59.5695Z" fill="#BDBBBB"/>
<line x1="409.165" y1="61.0187" x2="457.51" y2="61.0187" stroke="#313131"/>
<line x1="409.165" y1="66.4767" x2="457.51" y2="66.4767" stroke="#313131"/>
<line x1="409.165" y1="71.9347" x2="433.336" y2="71.9347" stroke="#313131"/>
<g clip-path="url(#clip0_129_4)">
<path fill-rule="evenodd" clip-rule="evenodd" d="M387.988 226.178C382.277 230.322 379.541 231.358 372.275 232.346C371.802 232.441 371.331 232.487 370.858 232.535C358.59 234.089 345.941 233.477 333.956 230.698C333.391 230.557 332.777 230.414 332.209 230.274C327.775 229.192 327.302 227.967 323.102 226.272C321.355 225.565 320.742 184.222 322.961 171.46C325.038 159.218 329.378 145.044 335.373 133.93C335.419 133.835 335.137 132.187 335.184 132.092L365.715 132.046C365.715 132.046 365.574 133.128 365.81 133.317C368.216 135.389 379.778 145.184 385.96 161.948C385.96 161.948 388.177 168.211 389.216 174.946C390.489 182.668 387.988 226.178 387.988 226.178Z" fill="#F6F8FD"/>
<path fill-rule="evenodd" clip-rule="evenodd" d="M320.85 72.8015C322.456 70.4461 325.809 65.5004 328.218 59.1893C331.808 49.6732 332.895 29.0432 332.941 28.8083C334.547 19.6698 337.948 8.97719 350.465 6.99938C351.409 6.85893 352.355 6.76453 353.299 6.76453C354.148 6.76453 354.951 7.28258 355.329 8.03549C355.47 8.36474 355.613 8.59959 355.613 8.59959L359.817 10.2482C360.101 10.3426 360.385 10.483 360.666 10.5774C370.681 14.8162 377.104 24.6616 377.293 35.4947C377.388 41.0068 377.434 50.8498 377.293 53.2536C376.915 59.2354 379.938 73.2735 383.482 78.5001C384.05 79.3014 385.088 81.514 386.269 83.0221C387.308 84.3875 377.672 91.9258 362.558 93.4799C352.874 94.47 346.877 92.4438 334.925 88.8175C333.792 88.4882 328.831 85.2855 325.573 82.1748C317.638 74.4501 319.528 74.7333 320.85 72.8015Z" fill="#EFAC14"/>
<path fill-rule="evenodd" clip-rule="evenodd" d="M372.572 39.6391C372.194 40.4864 371.629 41.0989 370.777 41.6169C370.637 41.7113 370.447 41.8057 370.304 41.9001C369.217 42.4642 367.942 42.7958 367.282 42.8902C367.092 43.5487 366.903 43.9747 366.619 44.6332C365.486 47.3662 363.548 50.0025 361.423 51.9803C361.423 51.9803 361.282 60.0827 361.518 62.6269C361.848 65.9724 362.934 67.621 362.983 67.8558C362.983 67.8558 365.676 72.5183 370.918 74.0264C370.918 74.0264 362.699 77.7472 355.378 77.6068C348.67 77.4663 341.822 73.932 341.822 73.932C343.192 73.46 344.231 72.942 345.648 72.143C346.545 71.6249 348.386 69.7415 348.386 69.7415C348.433 69.5527 349.992 67.2917 350.038 67.0569C350.085 66.9625 350.747 66.0207 351.266 62.9585C351.644 60.7919 351.407 57.1655 351.407 57.1655C350.982 57.2115 350.415 57.3059 349.99 57.3059C345.927 57.4464 343.331 55.3741 341.582 52.1714C341.203 51.4646 340.874 50.7117 340.544 49.9104C339.6 47.4606 339.127 44.5411 338.891 41.6676C338.702 39.029 338.608 35.2621 338.845 32.1515C338.94 31.1614 339.508 26.0753 340.216 24.2863C340.311 24.0514 340.735 22.7321 340.784 22.5433C341.822 20.2362 342.343 19.1518 343.76 17.4572C345.412 15.6682 347.302 14.4432 349.286 13.642C354.009 11.8046 360.244 13.9712 363.551 17.5516C364.07 18.1157 364.543 18.7281 364.967 19.3406C365.676 20.425 366.289 21.5556 366.809 22.7782C366.998 23.2502 367.187 23.6738 367.328 24.1435C367.752 25.5089 368.085 26.8766 368.271 28.288C368.366 28.9004 368.98 32.7156 368.461 33.0449C368.461 33.0449 368.601 32.9505 368.65 32.9505C369.642 32.4324 370.775 32.5268 371.389 32.81C372.003 33.0932 372.476 33.6113 372.759 34.1754C373.043 34.7395 373.279 35.4003 373.279 36.1532C373.279 37.1893 372.995 38.7918 372.57 39.6391H372.572Z" fill="#F8BC9A"/>
<path fill-rule="evenodd" clip-rule="evenodd" d="M361.472 51.9343C355.094 55.9843 352.215 57.4464 351.552 57.0688C351.552 57.2576 351.552 57.4924 351.599 57.9161C351.645 58.8117 351.504 62.5325 351.504 62.5325C351.504 62.5325 355.849 63.9462 361.423 56.408C361.423 54.8054 361.47 51.9803 361.47 51.932L361.472 51.9343Z" fill="#F7A77F"/>
<path fill-rule="evenodd" clip-rule="evenodd" d="M367.944 40.392C368.747 40.0144 369.361 39.4503 369.834 38.7895C370.069 38.4602 370.258 38.0826 370.401 37.659C370.447 37.4702 370.542 37.2814 370.59 37.0465C370.637 36.8577 370.637 36.6229 370.685 36.4341C370.685 36.6689 370.685 36.8577 370.731 37.0926C370.731 37.3274 370.685 37.5162 370.637 37.7511C370.542 38.1747 370.353 38.5984 370.069 38.976C369.596 39.6345 368.841 40.2009 367.944 40.3897" fill="#3A1F28"/>
<path fill-rule="evenodd" clip-rule="evenodd" d="M348.53 57.0204C349.143 57.0204 349.711 57.1148 350.325 57.0204C350.938 56.926 351.647 56.88 352.261 56.7372C352.874 56.5968 353.442 56.454 354.056 56.2192C354.623 56.0304 355.189 55.7472 355.662 55.3235C355.472 55.5584 355.237 55.7472 354.953 55.936C354.67 56.1248 354.386 56.2652 354.104 56.408C353.537 56.6912 352.923 56.8316 352.309 56.9721C351.695 57.1125 351.082 57.2069 350.419 57.2069C349.806 57.3474 349.143 57.3013 348.53 57.0181" fill="#3A1F28"/>
<path fill-rule="evenodd" clip-rule="evenodd" d="M336.485 41.9001C337.383 43.7835 338.326 45.7153 339.602 47.4122C338.137 41.2877 338.564 33.9405 339.035 29.8421C339.224 28.2396 339.508 26.591 339.932 25.0369C340.689 22.3983 342.2 18.1594 345.458 16.3221C345.458 16.3221 349.284 20.4204 350.56 23.6232C351.174 25.1313 351.931 26.5427 352.828 27.816C353.112 28.2396 353.442 28.7116 353.772 29.1353C353.913 29.3241 354.056 29.4645 354.197 29.6533C354.243 29.7477 354.337 29.7938 354.386 29.8882C354.526 30.0286 354.67 30.2174 354.81 30.3602C354.999 30.549 355.189 30.7378 355.378 30.9243C355.567 31.1108 355.708 31.2535 355.897 31.4423C356.038 31.5828 356.227 31.7255 356.37 31.866C356.465 31.9604 356.559 32.0548 356.7 32.1492C357.314 32.6672 357.976 33.1393 358.636 33.5629C358.825 33.6573 359.014 33.7978 359.204 33.8922C359.487 34.081 359.817 34.2214 360.101 34.4102C360.242 34.4563 360.336 34.5507 360.48 34.599C360.715 34.7395 360.999 34.8339 361.283 34.9766C361.377 35.0227 361.472 35.071 361.566 35.1171C361.707 35.1631 361.85 35.2115 362.039 35.3059H362.085C362.226 35.3519 362.321 35.4003 362.464 35.4463C362.842 35.5868 363.172 35.6812 363.551 35.7756C363.74 35.8216 363.975 35.87 364.213 35.916C364.354 35.9621 364.543 35.9621 364.686 36.0104C364.827 36.0565 365.016 36.0565 365.159 36.1048H365.3C365.489 36.1509 365.63 36.1509 365.819 36.1509C365.96 35.8677 366.149 35.5868 366.338 35.3496C366.622 34.972 366.857 34.6911 367.187 34.4079C367.422 34.1731 367.66 33.9843 367.895 33.8438C368.036 33.7494 368.131 33.7034 368.274 33.609C368.936 33.2314 369.596 33.0909 370.21 33.137C370.588 33.183 370.967 33.2774 371.297 33.4662C371.864 33.7494 372.335 34.2675 372.619 34.926C372.903 35.4901 373.043 36.1969 373.043 36.9982C373.043 37.6106 372.997 38.2231 372.808 38.8816C372.808 38.976 372.762 39.0704 372.713 39.1648C372.667 39.2592 372.667 39.3536 372.619 39.448C372.573 39.5424 372.573 39.5885 372.524 39.6829C372.43 39.9177 372.335 40.1065 372.24 40.3414C371.862 41.1887 371.154 41.8011 370.399 42.2731C370.258 42.3675 370.115 42.4619 369.974 42.508C368.888 43.0721 367.706 43.3553 367.046 43.4497C366.857 44.1082 366.622 44.7206 366.338 45.3331C365.157 47.9717 363.41 50.4192 361.331 52.3994C361.756 52.3533 362.18 52.2589 362.607 52.2106C362.653 52.2106 362.748 52.2106 362.796 52.1645C371.677 50.562 378.053 42.6484 377.912 33.6067V33.5123C377.723 22.6308 371.299 12.6934 361.239 8.40618C360.955 8.26573 360.671 8.17133 360.39 8.07693L356.139 6.42837C356.139 6.42837 355.999 6.14516 355.856 5.81591C355.477 5.01465 354.674 4.54495 353.777 4.54495C352.784 4.54495 351.841 4.63935 350.943 4.7798C345.463 5.67546 340.788 8.64334 337.86 13.4002C336.538 15.5208 335.592 17.8762 334.884 20.2777C332.71 26.9663 333.324 35.3519 336.49 41.8978" fill="#EFAC14"/>
<path fill-rule="evenodd" clip-rule="evenodd" d="M350.795 107.557L332.961 136.757L330.603 137.416C329.14 137.038 327.726 136.426 326.498 135.578L326.358 135.484L287.721 109.581C287.531 109.722 287.342 109.864 287.107 109.959C285.974 110.617 284.889 111.324 284.181 111.513C278.802 113.113 274.511 113.631 268.943 112.643C266.396 112.22 261.961 110.76 259.979 108.782C260.449 108.075 263.186 108.877 264.508 108.642C263.705 108.312 261.582 106.853 260.876 106.569C259.981 106.24 260.168 105.061 261.112 105.156C261.582 105.202 262.621 105.345 263.989 105.579C263.8 105.485 263.659 105.439 263.518 105.345C262.669 104.967 262.953 103.79 263.848 103.931C264.887 104.12 269.132 105.107 272.764 106.003C273.992 105.814 275.171 105.579 276.396 105.345C274.273 104.921 271.112 104.168 270.782 103.461C270.263 102.379 281.02 102.943 283.519 102.708C284.509 102.662 285.452 102.849 286.396 103.18C287.01 103.415 287.67 103.652 288.235 103.887C288.281 103.933 288.33 103.933 288.424 103.981C288.99 104.359 290.358 105.064 290.358 105.158L326.921 120.983L333.903 101.861C333.903 101.955 333.949 102.05 333.949 102.096L335.931 102.754L337.819 103.318L350.793 107.557H350.795Z" fill="#F8BC9A"/>
<path fill-rule="evenodd" clip-rule="evenodd" d="M373.394 74.5445L356.363 93.0056C352.118 96.2544 349.946 97.7625 349.852 97.6221C349.711 97.4816 347.823 93.3832 344.189 85.4236L337.066 73.886C339.519 72.2858 338.954 72.2858 343.059 71.7193C347.02 71.2013 370.233 71.4361 375.138 72.6611" fill="#F8BC9A"/>
<path fill-rule="evenodd" clip-rule="evenodd" d="M387.12 158.515L386.131 159.929C385.752 161.106 384.903 162.473 384.432 162.425C382.875 162.19 381.366 161.578 380.847 159.789C380.281 157.67 379.527 155.409 378.913 153.666C377.829 155.879 374.762 159.883 375.092 159.036C375.47 158 375.895 155.787 376.412 153.855C374.619 155.927 372.072 158.564 372.402 157.859C373.015 156.399 373.675 153.809 374.524 151.831C372.542 153.197 369.806 155.034 370.279 154.422C371.742 152.584 374.194 149.335 375.752 147.592C375.422 147.452 375.187 147.404 375.092 147.498C373.772 148.817 368.724 149.381 369.667 148.863C371.082 148.062 373.961 145.566 376.179 144.012C376.273 143.918 377.406 144.671 377.406 144.671C378.445 145.518 379.388 146.46 380.189 147.496C380.519 147.968 382.501 150.369 383.209 151.875L400.665 119.567L368.867 88.4836C368.064 87.7307 367.404 86.789 367.028 85.7529C366.652 84.7168 366.462 83.5863 366.603 82.4557C366.933 79.6306 368.961 76.992 372.406 75.721C377.03 74.0264 382.409 75.5322 384.908 79.1586L387.596 83.1143L411.23 117.824C412.126 119.049 412.55 120.555 412.504 122.109C412.458 123.617 411.844 125.077 410.852 126.253L387.123 158.513L387.12 158.515Z" fill="#F8BC9A"/>
<path fill-rule="evenodd" clip-rule="evenodd" d="M415.617 123.288C415.051 119.944 412.834 115.188 410.003 109.959C403.964 98.9851 392.358 85.5641 388.113 81.2308C386.46 79.5362 384.762 77.8877 382.923 76.3795C380.281 74.2129 378.537 73.3173 377.545 72.942C377.215 72.8015 376.885 72.7071 376.506 72.6588L376.46 72.7048L373.394 72.0923L369.808 72.0463C370.373 72.942 363.534 85.7989 354.335 89.8006C353.532 90.5535 352.496 90.7423 351.739 90.3647C351.268 90.1299 351.03 89.6578 350.936 89.469C349.568 87.9609 349.192 87.7261 348.908 87.3508C348.248 86.5035 347.588 85.4674 347.02 84.148C345.887 81.6038 345.276 79.58 344.944 78.355C344.944 78.355 344.424 76.6121 344.141 75.1063L344.046 74.6343C344 74.4938 344 74.305 344 74.2567C343.905 73.7386 344.046 73.6442 343.954 73.1745C343.859 72.6565 343.67 72.516 343.765 72.1384C343.811 72.044 343.859 71.8552 343.859 71.8552C343.859 71.8552 343.813 71.9012 343.718 72.044C344.048 71.6203 343.813 71.9496 343.908 71.8091C343.954 71.7147 344.048 71.6203 344.143 71.5259H342.915C342.915 71.5259 342.491 71.5259 341.877 71.572C341.547 71.572 341.169 71.618 340.744 71.6664C340.225 71.572 339.706 71.572 339.187 71.6664C336.309 72.1384 333.289 74.2567 331.402 77.365C329.609 80.4733 328.289 83.7704 327.391 87.208C325.504 93.8967 324.089 102.655 320.598 116.408L308.097 110.898L302.01 128.795L326.872 138.638C328.146 139.156 329.56 139.156 330.788 138.638C332.061 138.12 333.1 137.178 333.665 135.953C344.752 146.361 364.66 142.548 369.471 136.849L376.075 98.3243C380.84 103.834 387.776 110.194 398.106 121.777L386.83 133.128L401.549 145.09L416.408 126.58C416.219 125.45 415.937 124.367 415.605 123.283L415.617 123.288Z" fill="#F6F8FD"/>
<path d="M333.67 135.769C333.716 131.908 333.764 128.045 333.81 124.183C333.905 120.322 333.432 116.507 332.348 112.786C332.064 111.844 331.734 110.949 331.404 110.055C331.074 109.162 330.601 108.312 330.271 107.371C329.563 105.533 329.233 103.604 329.186 101.626C329.046 97.6704 330.366 93.8092 332.772 90.7009L332.726 90.7469L334.803 84.6707L336.925 78.5945L334.992 84.7168L333.01 90.839V90.8851C330.698 93.9473 329.473 97.7602 329.613 101.575C329.66 103.507 330.038 105.391 330.698 107.18C331.028 108.075 331.452 108.923 331.831 109.864C332.161 110.76 332.539 111.702 332.774 112.643C333.34 114.527 333.718 116.41 333.954 118.342C334.189 120.274 334.237 122.203 334.143 124.135C334.002 127.996 333.859 131.906 333.672 135.767L333.67 135.769Z" fill="#1E0E64"/>
<path fill-rule="evenodd" clip-rule="evenodd" d="M346.831 37.0811C346.831 37.5531 346.691 38.0251 346.455 38.4487C346.361 38.6836 346.22 38.8724 346.125 39.0612C346.031 39.25 345.89 39.4848 345.844 39.6736C345.703 40.0973 346.079 40.3805 346.501 40.5693C346.924 40.7581 347.394 40.8986 347.817 41.1357C347.346 40.9953 346.877 40.9469 346.455 40.7581C346.22 40.6637 345.984 40.5693 345.798 40.3805C345.611 40.1917 345.516 39.8624 345.611 39.6253C345.705 39.3904 345.846 39.1533 345.941 38.9645L346.317 38.352C346.552 37.9744 346.739 37.5508 346.834 37.0788" fill="#271018"/>
<path fill-rule="evenodd" clip-rule="evenodd" d="M345.703 47.5527C346.266 47.3178 346.877 47.2234 347.489 47.1751C348.1 47.1267 348.663 47.129 349.226 47.129C350.355 47.083 351.386 46.9402 352.374 46.185C352.233 46.7975 351.716 47.3178 351.153 47.601C350.59 47.9303 349.932 48.0247 349.321 48.073C348.709 48.1191 348.1 48.027 347.489 47.9326C346.831 47.8382 346.268 47.6977 345.703 47.555" fill="#271018"/>
<path fill-rule="evenodd" clip-rule="evenodd" d="M352.249 90.4476C352.388 90.4706 352.48 90.5858 352.457 90.7009C351.049 97.1478 349.78 104.401 348.973 112.39C348.188 120.011 347.911 127.08 347.957 133.435C347.957 133.458 347.934 133.527 347.865 133.596C347.819 133.642 347.75 133.665 347.68 133.642C347.542 133.619 347.45 133.504 347.473 133.389C347.496 126.757 347.819 119.459 348.673 111.584C349.48 103.963 350.657 96.9636 351.972 90.6548C352.018 90.5397 352.134 90.4476 352.249 90.4476Z" fill="#1E0E64"/>
<path fill-rule="evenodd" clip-rule="evenodd" d="M343.689 71.5444H344.173C344.773 76.2414 345.858 79.6951 346.665 81.9055C347.15 83.1718 347.519 84.0467 347.957 84.8987C349.319 87.5004 350.98 89.3424 352.157 90.4936C352.111 90.6778 352.041 90.839 351.995 91.0232C350.311 89.5266 349.157 88.053 348.442 86.9709C347.058 84.8987 346.342 83.1027 345.904 81.7903C345.488 80.57 345.119 79.2346 344.773 77.8071C344.219 75.5506 343.896 73.4324 343.689 71.5444Z" fill="#1E0E64"/>
<path fill-rule="evenodd" clip-rule="evenodd" d="M352.318 90.9772C352.272 90.816 352.226 90.6548 352.18 90.4936C354.626 89.3885 356.541 88.1912 357.879 87.2702C357.879 87.2702 363.578 83.2869 367.524 77.1854C368.124 76.2644 368.862 74.8369 368.978 74.6297C369.208 74.1922 369.462 73.6857 369.693 72.9949C369.831 72.6265 369.901 72.2812 369.97 72.0739C370.178 72.0739 370.408 72.0509 370.616 72.0509C369.693 74.5836 368.609 76.5407 367.709 77.9222C365.955 80.6391 364.178 82.389 362.84 83.7014C360.971 85.5203 359.425 86.6946 358.871 87.109C358.594 87.3162 357.441 88.1451 355.849 89.1122C354.441 89.895 353.241 90.5167 352.318 90.9772Z" fill="#1E0E64"/>
<path fill-rule="evenodd" clip-rule="evenodd" d="M339.814 99L339.007 98.8467C338.945 94.7759 339.268 89.5964 340.642 83.7416C341.82 78.7226 342.909 74.8572 344.5 71.5C344.812 71.4569 345 71.5 345.5 71.5C343.896 74.9913 342.769 78.8016 341.586 83.8398C340.224 89.6347 340.01 94.8119 340 99H339.814Z" fill="#313131"/>
<path d="M339.5 106C341.985 106 344 103.985 344 101.5C344 99.0147 341.985 97 339.5 97C337.015 97 335 99.0147 335 101.5C335 103.985 337.015 106 339.5 106Z" fill="#313131"/>
<path d="M339.5 104C340.881 104 342 102.881 342 101.5C342 100.119 340.881 99 339.5 99C338.119 99 337 100.119 337 101.5C337 102.881 338.119 104 339.5 104Z" fill="#545454"/>
<path fill-rule="evenodd" clip-rule="evenodd" d="M368 89.5819H366.956C367.722 87.8942 368.995 84.7789 369 80.7243C369.005 76.642 368.268 73.5038 367.5 71.8137H368.5C369.254 73.5912 370.011 76.6904 370 80.7243C369.988 84.6868 368.75 87.8136 368 89.5819Z" fill="#313131"/>
<path fill-rule="evenodd" clip-rule="evenodd" d="M370 101.717C370.198 95.1734 369.295 90.7924 367.5 90.5C365.668 90.203 363.156 94.0829 361.156 100.893H360.249C362.127 93.5824 365.473 88.913 367.554 89.2538C369.594 89.5876 371.209 94.858 370.897 101.883C370.713 101.828 370.528 101.772 370.344 101.717H370Z" fill="#313131"/>
<path fill-rule="evenodd" clip-rule="evenodd" d="M370.866 100.752C371.143 101.47 370.977 102.388 370.498 102.798C370.02 103.214 369.408 102.966 369.134 102.248C368.857 101.53 369.023 100.612 369.502 100.202C369.98 99.7859 370.592 100.034 370.866 100.752Z" fill="#313131"/>
<path fill-rule="evenodd" clip-rule="evenodd" d="M361.866 100.752C362.143 101.47 361.977 102.388 361.498 102.798C361.02 103.214 360.408 102.966 360.134 102.248C359.857 101.53 360.023 100.612 360.502 100.202C360.98 99.7859 361.592 100.034 361.866 100.752Z" fill="#313131"/>
</g>
<line x1="446" y1="18.5" x2="403" y2="18.5" stroke="#0B0429"/>
<path fill-rule="evenodd" clip-rule="evenodd" d="M43.3303 370.13L74.4347 282.174C74.9428 280.58 73.6725 278.463 71.6116 277.465L71.2592 277.293C69.1982 276.299 67.0958 276.786 66.5877 278.376L40.7147 368.865C40.2295 370.385 42.8451 371.651 43.3303 370.13Z" fill="#3A1F28"/>
<path fill-rule="evenodd" clip-rule="evenodd" d="M123.618 370.13L92.5132 282.174C92.0051 280.58 93.2754 278.463 95.3364 277.465L95.6887 277.293C97.7497 276.299 99.8518 276.786 100.36 278.376L126.233 368.865C126.718 370.385 124.103 371.651 123.618 370.13Z" fill="#3A1F28"/>
<path fill-rule="evenodd" clip-rule="evenodd" d="M103.516 275.066H62.7263C61.5181 275.066 60.5388 276.08 60.5388 277.329V288.377C60.5388 289.626 61.5181 290.64 62.7263 290.64H103.516C104.724 290.64 105.703 289.626 105.703 288.377V277.329C105.703 276.08 104.724 275.066 103.516 275.066Z" fill="#3A1F28"/>
<path fill-rule="evenodd" clip-rule="evenodd" d="M62.5847 180.33C62.2958 179.886 62.05 179.419 61.8574 178.932C61.4921 178.004 61.3095 177.007 61.3526 175.973C61.4124 174.578 61.8707 173.279 62.6342 172.156C62.5747 171.97 62.5083 171.791 62.4253 171.615C61.6482 172.587 61.0866 173.759 60.8641 175.032C60.5789 176.669 60.901 178.173 61.6615 179.306C61.9205 179.694 62.2294 180.038 62.5847 180.33ZM91.739 167.209C91.7091 167.235 91.6789 167.265 91.6493 167.291C91.7091 167.368 91.7619 167.444 91.8184 167.52C93.1703 166.552 93.5954 164.969 92.7419 163.666C92.5294 163.342 92.2537 163.06 91.9349 162.828C91.8685 162.778 91.8051 162.735 91.7353 162.693C91.5693 162.586 91.3936 162.49 91.211 162.411C91.211 162.447 91.2043 162.484 91.201 162.52C91.3601 162.623 91.5128 162.746 91.656 162.881C91.6759 162.901 91.6958 162.918 91.7124 162.938C91.7656 162.987 91.8154 163.043 91.8619 163.096C92.9345 164.316 92.9046 166.099 91.739 167.209ZM100.131 185.516C100.088 186.579 99.8221 187.584 99.3867 188.484C99.1908 188.889 99.1845 189.336 99.3303 189.717C101.011 187.616 101.432 184.711 100.174 182.189C99.4037 180.645 98.1318 179.498 96.6374 178.843C98.8358 180.238 100.247 182.732 100.131 185.516ZM54.1094 188.335C54.2356 185.241 56.3942 182.616 59.5294 181.225C60.1867 180.933 60.7449 180.506 61.1866 179.985C60.0542 178.812 59.5059 177.026 59.8546 175.049C60.1302 173.454 60.9375 172.013 62.0397 170.933C61.1633 169.598 62.2725 167.053 62.339 165.423C62.5316 160.833 68.8845 153.07 74.2873 153.289C74.985 153.183 75.7057 153.13 76.4426 153.13C78.6115 153.13 80.6306 153.597 82.3176 154.402C84.008 153.372 86.2958 153.391 88.3713 154.674C91.0183 156.304 92.4762 159.448 92.0541 162.232C92.5891 162.51 93.0441 162.898 93.3596 163.378C94.3293 164.856 93.6552 166.688 91.8582 167.583C92.6224 168.71 93.0009 170.065 92.8678 171.446C92.9877 171.612 93.1072 171.775 93.2268 171.937C93.9205 172.885 94.764 173.789 94.9835 175.002C95.1429 175.893 94.9702 176.751 94.8009 177.603C97.5038 177.63 100.077 179.084 101.323 181.589C102.791 184.532 101.974 187.994 99.5432 190.091C99.7125 190.317 99.9546 190.496 100.254 190.589C101.645 191.026 102.575 192.353 103.384 193.602C104.92 195.975 103.69 198.645 101.109 201.744C101.408 200.005 99.1377 199.184 98.9484 198.946C100.103 200.401 100.073 201.429 99.9477 202.415C99.8465 203.215 96.7557 208.51 91.3558 209.655C82.9665 211.433 71.6193 210.486 68.2548 209.095C67.2214 208.668 63.5846 208.738 58.576 204.293C60.9528 206.565 59.5188 207.111 63.216 208.242C62.5352 208.382 63.1801 208.186 62.5256 208.345C59.7407 208.38 56.6804 205.474 55.265 203.05C53.0616 199.277 54.4883 195.072 55.5942 193.014C54.5879 191.639 54.04 190.032 54.1094 188.335Z" fill="#2B121A"/>
<path fill-rule="evenodd" clip-rule="evenodd" d="M66.6482 174.585C66.9168 175.17 67.2971 175.597 67.9012 175.981C67.9998 176.044 68.1273 176.121 68.2306 176.174C69.0074 176.575 69.903 176.801 70.3716 176.884C70.5111 177.338 70.6346 177.65 70.8209 178.094C71.6259 180.015 72.9692 181.869 74.4693 183.256C74.4693 183.256 74.5772 188.943 74.3976 190.758C74.1651 193.11 73.386 194.265 73.3545 194.431C73.3545 194.431 71.4672 197.722 67.766 198.756C67.7577 198.759 73.555 201.368 78.6825 201.264C83.3943 201.168 88.2189 198.681 88.197 198.674C87.2409 198.346 86.5053 197.978 85.5104 197.419C84.8834 197.067 83.5736 195.721 83.5736 195.721C83.547 195.585 82.4435 193.991 82.4232 193.848C82.3927 193.789 81.9327 193.111 81.5654 190.962C81.3041 189.432 81.4575 186.874 81.4575 186.874C81.763 186.918 82.1446 186.965 82.4468 186.975C85.3055 187.073 87.113 185.627 88.3454 183.366C88.6138 182.874 88.8416 182.335 89.0618 181.774C89.7369 180.056 90.054 178.005 90.2334 175.991C90.3546 174.131 90.4323 171.475 90.2719 169.297C90.2198 168.589 89.8083 165.008 89.3238 163.753C89.2607 163.589 88.9708 162.653 88.9239 162.527C88.199 160.91 87.8363 160.128 86.8165 158.952C85.7704 157.749 84.4264 156.861 83.0283 156.32C79.6941 155.031 75.3145 156.54 73.0061 159.058C72.6408 159.456 72.3054 159.883 72.0032 160.33C71.4918 161.083 71.067 161.894 70.7216 162.736C70.5885 163.057 70.4692 163.382 70.3596 163.71C70.0471 164.661 69.828 165.645 69.6955 166.636C69.6354 167.057 69.2036 169.748 69.549 169.977C69.5394 169.97 69.4381 169.925 69.4178 169.915C68.7105 169.548 67.9317 169.615 67.5073 169.819C67.0826 170.024 66.7392 170.385 66.5373 170.789C66.3354 171.192 66.1876 171.661 66.1776 172.195C66.165 172.864 66.3799 174 66.6482 174.585Z" fill="#F8BC9A"/>
<path fill-rule="evenodd" clip-rule="evenodd" d="M74.4683 183.264C78.9415 186.102 80.9925 187.124 81.4575 186.874C81.4555 187.008 81.4412 187.188 81.4269 187.458C81.3924 188.103 81.4927 190.711 81.4927 190.711C81.4927 190.711 78.4487 191.689 74.5118 186.409C74.5061 185.278 74.4696 183.277 74.4683 183.264Z" fill="#F7A77F"/>
<path fill-rule="evenodd" clip-rule="evenodd" d="M69.9006 175.119C69.35 174.853 68.8901 174.467 68.5606 173.98C68.3939 173.74 68.2611 173.476 68.1578 173.2C68.1083 173.061 68.0632 172.919 68.0323 172.773C68.0051 172.626 67.9848 172.477 67.9509 172.326C67.9373 172.478 67.9373 172.631 67.9303 172.787C67.9376 172.942 67.9625 173.097 68.0007 173.248C68.0774 173.551 68.2116 173.839 68.3873 174.099C68.74 174.616 69.2932 175.012 69.9006 175.119Z" fill="#3A1F28"/>
<path fill-rule="evenodd" clip-rule="evenodd" d="M83.5537 186.838C83.1273 186.833 82.7398 186.904 82.3074 186.847C81.875 186.79 81.3848 186.746 80.9617 186.647C80.536 186.564 80.1182 186.445 79.7121 186.299C79.3056 186.152 78.9117 185.965 78.5723 185.684C78.7088 185.858 78.8838 185.998 79.0642 186.129C79.2518 186.249 79.4477 186.357 79.6506 186.448C80.0571 186.631 80.4868 186.751 80.9179 186.852C81.3529 186.936 81.791 187.004 82.2323 187.027C82.6733 187.052 83.13 187.029 83.5537 186.838Z" fill="#3A1F28"/>
<path fill-rule="evenodd" clip-rule="evenodd" d="M92.7404 163.668C92.5278 163.344 92.2522 163.062 91.9331 162.83C91.867 162.78 91.8039 162.737 91.7341 162.694C91.5681 162.588 91.3921 162.492 91.2094 162.412C91.2094 162.449 91.2028 162.485 91.1995 162.522C91.3589 162.625 91.5116 162.747 91.6541 162.883C91.6744 162.903 91.6946 162.919 91.7106 162.939C91.764 162.989 91.8138 163.045 91.8607 163.098C92.933 164.318 92.9031 166.101 91.7371 167.21C91.7076 167.237 91.6777 167.267 91.6478 167.293C91.7076 167.37 91.7607 167.445 91.8172 167.522C93.1688 166.554 93.5935 164.971 92.7404 163.668ZM92.2887 168.328C92.9144 169.605 92.0101 171.152 90.5857 171.14H90.3761C90.3505 170.59 90.3432 170.005 90.2881 169.447C90.2184 168.768 90.1802 168.16 90.0706 167.54C89.9444 167.606 89.9175 167.645 89.778 167.691C89.778 167.694 89.7744 167.697 89.7714 167.697C89.7179 167.714 89.6651 167.727 89.612 167.744C89.5887 167.75 89.5655 167.757 89.5422 167.764C89.4592 167.784 89.3729 167.8 89.2832 167.814C89.2666 167.817 89.2533 167.82 89.2367 167.823C89.1437 167.836 89.0474 167.84 88.9548 167.846C88.6423 167.867 88.3331 167.846 88.0309 167.784C87.8585 167.747 87.6892 167.704 87.5264 167.641C87.5696 167.638 87.6128 167.631 87.6559 167.624C88.0677 167.565 88.4231 167.403 88.712 167.174C89.1537 166.816 89.4263 166.296 89.4423 165.719C89.4459 165.643 89.4459 165.564 89.4393 165.484C89.4293 165.378 89.4124 165.272 89.3858 165.166C89.3762 165.129 89.3662 165.093 89.3529 165.056C89.3433 165.02 89.333 164.984 89.3197 164.947C89.3098 164.918 89.2965 164.891 89.2869 164.864C89.2699 164.821 89.2533 164.775 89.2334 164.735C89.2198 164.709 89.2038 164.682 89.1902 164.655C89.1803 164.636 89.1703 164.619 89.1603 164.599C89.147 164.576 89.1367 164.553 89.1238 164.533C89.1072 164.506 89.0906 164.483 89.074 164.457C89.0474 164.421 89.0208 164.38 88.9943 164.344L88.9345 164.274C88.9179 164.252 88.9013 164.231 88.8847 164.212C88.8814 164.205 88.8747 164.199 88.8717 164.195C88.8249 164.132 88.7817 164.069 88.7386 164.013C88.7452 164.033 88.7482 164.052 88.7519 164.073C88.8312 164.387 88.8548 164.722 88.8083 165.037C88.8017 165.093 88.7917 165.146 88.7851 165.202C88.7286 165.527 88.6323 165.852 88.4726 166.163C88.4065 166.293 88.3268 166.422 88.2338 166.545C88.0711 166.753 87.8685 166.938 87.6294 167.061C87.3006 167.24 86.9121 167.287 86.5896 167.177C86.5866 167.181 86.5866 167.181 86.5833 167.177C86.5434 167.164 86.5066 167.148 86.4704 167.131C86.829 167.028 87.0947 166.833 87.2837 166.607C87.4633 166.376 87.5796 166.117 87.6626 165.829C87.7456 165.547 87.7888 165.246 87.822 164.931C87.8253 164.928 87.8253 164.921 87.8253 164.918C87.8552 164.639 87.8286 164.371 87.7456 164.102C87.6988 163.96 87.636 163.817 87.5563 163.675C87.4168 164.076 87.0608 164.443 86.9144 164.569C86.3591 165.046 85.6006 165.187 85.581 165.192C85.5614 165.197 85.672 165.027 85.8886 164.766C86.1047 164.503 86.4053 164.107 86.4969 163.579C86.2678 164.033 85.9819 164.467 85.6435 164.875C84.8664 165.819 83.817 166.637 82.5749 167.264H82.5716C82.545 167.26 82.4683 167.303 82.4554 167.326C82.0668 167.518 81.6617 167.691 81.2399 167.84V167.843C80.8909 167.972 78.1714 168.602 77.1386 168.648C76.9094 168.659 76.677 168.665 76.4412 168.665C75.6076 168.665 74.7973 168.595 74.0202 168.463C74.0169 168.466 74.0106 168.463 74.007 168.459C73.5819 168.393 73.1668 168.3 72.7616 168.194C72.735 168.3 72.7151 168.403 72.6952 168.509C72.6982 168.512 72.6982 168.512 72.7018 168.516C73.4822 169.394 73.7977 170.517 73.6679 171.607C73.5849 172.31 73.3162 172.999 72.8679 173.595C72.7849 173.616 72.7018 173.635 72.6188 173.652C73.0037 172.976 73.1867 172.217 73.1535 171.465C73.1269 170.782 72.9243 170.107 72.5391 169.51C72.5358 169.533 72.5321 169.556 72.5291 169.58C72.5225 169.649 72.5125 169.716 72.5056 169.781C72.7218 170.295 72.8546 170.842 72.8612 171.365C72.8642 171.73 72.8078 172.081 72.6822 172.406C72.4959 172.883 72.1074 173.278 71.9181 173.751C71.8849 173.831 71.8583 173.914 71.8384 174C71.8185 174.092 71.8085 174.185 71.8115 174.278C71.8185 174.864 72.2203 175.441 72.7882 175.614C72.0709 175.395 71.1244 175.083 70.7358 174.374C70.6761 174.265 70.6362 174.159 70.613 174.053C70.5864 173.933 70.5798 173.817 70.5897 173.705C70.6395 173.095 71.141 172.528 71.483 172.021C71.596 171.856 71.6391 171.683 71.6325 171.508C71.3104 171.193 70.9484 170.858 70.8056 170.805C70.3735 170.647 69.972 170.375 69.6233 170.007C68.916 169.639 68.0296 169.533 67.5179 169.811C67.0061 170.09 66.8055 170.31 66.5993 170.666C66.5917 170.679 66.4509 170.957 66.4376 170.99C66.2755 171.363 66.1961 171.701 66.1792 172.166C66.1639 172.165 66.1765 172.299 66.1613 172.297C63.4139 172.009 61.6169 169.403 62.1569 166.7C62.2486 166.243 62.3216 165.808 62.3372 165.425C62.5298 160.835 68.8828 153.072 74.2859 153.291C74.9833 153.184 75.7039 153.131 76.4412 153.131C78.6098 153.131 80.6289 153.598 82.3159 154.404C84.0063 153.373 86.2944 153.393 88.3699 154.675C91.0168 156.306 92.4747 159.45 92.053 162.234C92.5876 162.512 93.0426 162.9 93.3581 163.38C94.3278 164.858 93.6536 166.69 91.857 167.585C92.0184 167.823 92.1629 168.071 92.2887 168.328Z" fill="#2B121A"/>
<path fill-rule="evenodd" clip-rule="evenodd" d="M133.053 365.078C133.361 364.905 133.661 364.701 133.947 364.474C133.959 364.462 133.971 364.447 133.983 364.443C134.034 364.409 134.07 364.379 134.114 364.341C134.122 364.329 134.134 364.322 134.142 364.311C133.513 362.472 132.823 360.351 132.332 358.815C135.6 340.83 138.279 317.532 141.389 299.519C141.873 296.713 144.624 276.34 145.187 270.504C145.445 267.825 144.267 265.21 142.093 263.616C139.792 261.929 123.846 254.567 117.641 252.484C109.89 249.882 101.176 247.456 93.5523 242.3C93.543 242.298 86.9048 242.923 86.8247 242.924C77.6344 243.035 82.4229 256.744 84.4971 265.678C85.0215 267.936 85.5582 269.957 86.0649 271.378C86.568 272.789 87.9396 273.697 89.439 273.622C89.4476 273.621 89.4559 273.621 89.4649 273.621C90.3828 273.571 91.2984 273.526 92.2146 273.484C92.2222 273.482 92.2372 273.479 92.2498 273.48C107.977 272.716 130.919 271.441 130.919 271.441C126.291 292.588 128.804 356.804 128.804 356.804L127.395 359.286C127.464 359.338 127.545 359.402 127.625 359.466C128.513 360.496 130.857 363.192 132.745 365.243C132.848 365.191 132.95 365.139 133.053 365.078Z" fill="#F8BC9A"/>
<path fill-rule="evenodd" clip-rule="evenodd" d="M127.746 362.021C127.746 362.021 129.206 363.821 130.815 365.777C131.008 366.009 131.202 366.246 131.395 366.483C131.597 366.717 131.785 366.955 131.981 367.183C135.185 367.47 139.899 367.272 139.872 367.255C140.041 367.252 140.021 367.165 139.752 366.983C138.757 366.292 136.463 366.092 134.309 364.176C134.255 364.223 134.202 364.27 134.142 364.312C134.135 364.321 134.122 364.331 134.115 364.34C134.069 364.378 134.033 364.409 133.985 364.445C133.971 364.449 133.961 364.461 133.946 364.474C133.566 364.773 133.161 365.037 132.745 365.246C130.86 363.196 128.514 360.498 127.625 359.466C127.543 359.4 127.462 359.339 127.396 359.285C127.151 359.092 127.014 358.977 127.014 358.977L126.291 367.416C126.291 367.416 126.623 367.043 127.3 367.255L127.746 362.021Z" fill="#1C195C"/>
<path fill-rule="evenodd" clip-rule="evenodd" d="M68.149 269.946C70.4819 274.025 74.6417 276.815 79.3707 277.589C80.7373 277.815 89.9243 275.791 100.592 275.794C106.048 275.791 110.762 275.802 112.731 275.857L113.846 275.764C110.44 291.608 110.096 357.005 110.096 357.005L108.845 359.168C109.773 360.261 111.96 362.82 113.733 364.777C114.146 364.574 114.543 364.32 114.92 364.032C114.936 364.02 114.945 364.006 114.96 364.002C115.006 363.968 115.042 363.939 115.087 363.897C115.09 363.892 115.1 363.886 115.104 363.885C114.551 362.21 113.975 360.377 113.549 359.012C113.881 357.278 126.614 293.902 127.975 289.424C129.223 285.315 130.069 278.197 131.334 274.095C132.015 271.88 131.505 269.471 129.989 267.722L129.747 267.444L129.743 267.442C129.656 267.377 129.569 267.308 129.483 267.247L129.486 267.242C127.21 265.488 124.944 263.731 122.267 262.678C120.124 261.831 117.975 260.994 115.818 260.17C112.24 258.808 108.636 257.484 104.999 256.228C100.851 254.798 100.972 255.623 96.7415 254.656C93.8137 249.386 87.8653 246.219 81.5263 246.673C80.5855 246.742 79.6404 246.891 78.6926 247.123C74.3966 248.174 70.903 250.764 68.7132 254.124C68.4581 254.508 68.225 254.901 68.0068 255.307C66.6336 257.868 65.9767 260.786 66.2242 263.758C66.2916 264.529 66.4168 265.309 66.6074 266.085C66.9474 267.471 67.4692 268.761 68.149 269.946Z" fill="#F8BC9A"/>
<path fill-rule="evenodd" clip-rule="evenodd" d="M108.688 359.435C108.755 359.485 108.834 359.549 108.913 359.612C109.78 360.634 112.059 363.304 113.899 365.34C114 365.288 114.102 365.235 114.203 365.179C114.509 365.01 114.805 364.815 115.089 364.592C115.102 364.581 115.111 364.567 115.126 364.563C115.176 364.527 115.209 364.499 115.255 364.461C115.26 364.452 115.274 364.444 115.28 364.435L115.284 364.434C115.224 364.256 115.163 364.073 115.102 363.887C115.098 363.888 115.092 363.894 115.089 363.899C115.043 363.937 115.007 363.966 114.96 364.001C114.945 364.005 114.937 364.018 114.92 364.031C114.545 364.319 114.145 364.575 113.733 364.778C111.96 362.819 109.772 360.261 108.844 359.168L108.688 359.435Z" fill="#F8BC9A"/>
<path fill-rule="evenodd" clip-rule="evenodd" d="M106.986 364.821C106.986 364.821 107.384 364.944 108.048 365.159L108.844 361.564C108.844 361.564 113.037 367.03 113.227 367.256C113.227 367.256 120.71 367.256 120.675 366.961C120.647 366.944 120.623 366.923 120.599 366.909C120.764 366.904 120.747 366.822 120.481 366.638C119.51 365.95 117.382 365.643 115.279 363.742C115.227 363.786 115.175 363.83 115.114 363.873C115.111 363.877 115.105 363.883 115.102 363.887C115.098 363.888 115.092 363.894 115.089 363.899C115.043 363.937 115.007 363.966 114.96 364.001C114.945 364.005 114.937 364.018 114.92 364.031C114.545 364.319 114.145 364.575 113.733 364.778C111.96 362.819 109.772 360.261 108.844 359.168C108.81 359.129 108.777 359.09 108.749 359.054C108.669 358.986 108.587 358.927 108.522 358.872C108.285 358.678 108.15 358.565 108.15 358.565L106.986 364.821Z" fill="#1C195C"/>
<path fill-rule="evenodd" clip-rule="evenodd" d="M130.794 257.416C132.546 257.028 97.1534 244.46 97.1534 244.46C97.1534 244.46 93.342 239.509 93.2118 238.79C93.2118 238.79 85.6136 239.334 78.0216 239.819L73.545 240.251C71.5156 240.537 70.9122 241.715 69.8159 243.443C65.3685 250.453 63.7087 263.953 65.9683 268.666C73.8924 285.189 104.304 276.3 104.87 275.796C118.884 263.303 126.557 258.355 130.794 257.416Z" fill="#3655F6"/>
<path fill-rule="evenodd" clip-rule="evenodd" d="M129.191 285.024C129.339 284.547 132.797 273.309 131.421 270.403C130.053 267.515 124.411 263.679 124.172 263.518L123.985 263.792C124.043 263.831 129.791 267.738 131.121 270.545C132.442 273.334 128.909 284.81 128.874 284.926L129.191 285.024Z" fill="#462831"/>
<path fill-rule="evenodd" clip-rule="evenodd" d="M84.0642 209.642V209.646C84.0678 209.674 84.0741 209.705 84.0811 209.733C85.4689 217.331 88.7038 224.373 90.5898 231.854C91.0683 233.761 91.5993 235.661 91.9879 237.595C92.1775 238.536 92.3598 239.467 92.5591 240.346C92.7554 241.222 92.9709 242.042 93.2365 242.761C93.2365 242.765 93.2366 242.768 93.2402 242.772C93.2598 242.931 93.293 243.087 93.3365 243.246C93.3428 243.274 93.3531 243.305 93.3594 243.332C94.1598 246.187 96.7601 248.073 99.6064 247.852C100.377 247.793 101.15 247.71 101.921 247.606C111.273 246.339 113.803 246.533 125.938 243.893C127.688 243.512 130.836 243.004 133.659 242.578C133.716 242.516 133.775 242.454 133.832 242.391C133.984 242.422 134.124 242.44 134.247 242.443C138.169 242.585 141.138 242.152 144.651 240.505C146.279 239.74 148.925 237.948 149.872 236.239C149.403 235.841 147.756 236.868 146.83 236.955C147.285 236.599 148.424 235.214 148.852 234.889C149.367 234.495 149.005 233.723 148.414 233.948C148.122 234.055 147.441 234.363 146.574 234.758C146.671 234.671 146.764 234.588 146.856 234.508C147.345 234.079 146.933 233.332 146.358 233.599C145.704 233.903 143.064 235.37 140.809 236.633L140.802 236.637C139.959 236.72 139.112 236.792 138.262 236.827C139.603 236.142 141.553 235.059 141.643 234.502C141.782 233.65 134.712 235.969 132.975 236.28C132.44 236.374 131.852 236.668 131.291 237.038C128.01 237.46 123.74 239.114 121.076 239.014C114.71 238.775 109.024 237.384 102.588 238.097C101.984 238.163 101.373 238.235 100.759 238.311C100.752 237.242 100.686 236.142 100.586 235.045V235.041C100.539 234.561 100.489 234.079 100.433 233.602C100.058 230.335 99.46 227.235 99.2408 225.276C98.477 218.511 97.7002 211.743 96.6906 205.013C96.2221 201.888 94.09 199.611 91.6362 198.749C90.5967 198.386 89.5005 198.275 88.4511 198.466C88.4478 198.462 88.4445 198.462 88.4415 198.466H88.4381L85.9571 204.812L84.0642 209.642Z" fill="#F8BC9A"/>
<path fill-rule="evenodd" clip-rule="evenodd" d="M64.793 199.048L82.2245 217.038L83.6628 214.254L87.2713 205.407C87.2713 205.407 90.7702 198.652 89.9297 198.462C89.0892 198.272 87.1165 198.16 86.5898 198.118C83.4977 197.876 69.4798 197.605 66.7168 198.702L64.793 199.048Z" fill="#F8BC9A"/>
<path fill-rule="evenodd" clip-rule="evenodd" d="M59.293 201.158L60.0701 203.698L65.8053 222.432C67.4956 217.667 69.1498 212.888 70.6771 208.065C70.9162 207.31 71.0391 206.552 71.0593 205.812L63.119 199.594C62.139 199.698 61.9198 198.555 60.9305 199.262C60.2494 199.749 59.7214 200.407 59.293 201.158Z" fill="#F8BC9A"/>
<path fill-rule="evenodd" clip-rule="evenodd" d="M86.7575 253.489C87.156 253.461 87.5545 253.433 87.953 253.409C88.0659 253.399 88.1788 253.392 88.2917 253.385C88.212 253.347 88.129 253.309 88.046 253.274C87.7637 253.146 87.4615 253.028 87.1493 252.914L86.7575 253.489Z" fill="#F8BC9A"/>
<path fill-rule="evenodd" clip-rule="evenodd" d="M86.7567 253.489C87.1552 253.461 87.5538 253.433 87.9523 253.409C88.0652 253.399 88.1781 253.392 88.291 253.385C91.7149 253.163 95.152 252.97 98.5759 253.07C99.612 253.087 100.605 254.368 100.761 254.222C99.2268 255.682 97.3704 256.766 95.3546 257.655L111.013 255.613L114.55 255.087C114.765 255.073 114.985 255.032 115.197 254.956C115.732 254.776 116.213 254.399 116.572 253.88L124.15 244.277L129.633 237.329L135.451 229.955C136.116 228.983 136.195 227.82 135.85 226.886C135.767 226.661 135.664 226.449 135.534 226.256C135.508 226.214 135.481 226.173 135.451 226.135C134.993 225.515 134.299 225.117 133.456 225.162L106.486 226.54C105.703 226.578 104.959 227.02 104.461 227.747L100.432 233.602L96.8656 238.789L93.5746 243.578L93.4783 243.713L90.3599 248.246C90.3599 248.25 90.3566 248.25 90.3566 248.25L88.633 250.758L87.1486 252.914L86.7567 253.489Z" fill="#1C195C"/>
<path fill-rule="evenodd" clip-rule="evenodd" d="M58.6849 199.168L59.2926 201.158L60.0697 203.698L65.8049 222.432L66.6684 225.256L71.2845 240.346L71.2579 240.391C71.2878 240.36 71.8271 242.33 71.8271 242.33L92.8256 241.971L93.4221 227.84C95.5375 225.716 96.8755 222.57 96.8755 219.065C96.8755 216.21 95.9888 213.601 94.5176 211.58C94.4811 211.528 94.4449 211.476 94.4017 211.428L91.6354 198.749L91.4524 197.908L88.6097 198.033L88.4407 198.462V198.466C88.4407 198.466 86.7756 201.672 79.3015 201.838C71.8271 202.003 66.5853 198.466 66.5853 198.466L65.8717 197.69L58.6849 199.168Z" fill="#3655F6"/>
<path fill-rule="evenodd" clip-rule="evenodd" d="M80.7824 204.489C80.973 204.489 81.1281 204.643 81.1281 204.834C81.1281 205.023 80.973 205.178 80.7824 205.178C80.5921 205.178 80.437 205.023 80.437 204.834C80.437 204.643 80.5921 204.489 80.7824 204.489ZM80.7824 205.509C81.156 205.509 81.4602 205.206 81.4602 204.834C81.4602 204.461 81.156 204.157 80.7824 204.157C80.4088 204.157 80.1049 204.461 80.1049 204.834C80.1049 205.206 80.4088 205.509 80.7824 205.509Z" fill="#1C195C"/>
<path fill-rule="evenodd" clip-rule="evenodd" d="M81.4465 207.139C81.6371 207.139 81.7922 207.294 81.7922 207.484C81.7922 207.674 81.6371 207.829 81.4465 207.829C81.2562 207.829 81.1011 207.674 81.1011 207.484C81.1011 207.294 81.2562 207.139 81.4465 207.139ZM81.4465 208.16C81.8201 208.16 82.1243 207.857 82.1243 207.484C82.1243 207.112 81.8201 206.808 81.4465 206.808C81.0729 206.808 80.769 207.112 80.769 207.484C80.769 207.857 81.0729 208.16 81.4465 208.16Z" fill="#1C195C"/>
<path fill-rule="evenodd" clip-rule="evenodd" d="M100.761 254.222C99.2268 255.682 97.3704 256.765 95.3546 257.655L111.013 255.613L114.55 255.087C114.765 255.073 114.985 255.032 115.197 254.956C115.732 254.775 116.213 254.398 116.572 253.88L124.15 244.277L129.633 237.329L135.451 229.955C136.116 228.982 136.195 227.82 135.85 226.886C135.767 226.661 135.664 226.449 135.534 226.256C135.14 225.979 134.661 225.827 134.12 225.854L107.151 227.231C106.367 227.27 105.623 227.712 105.125 228.439L100.585 235.041V235.045L98.1076 238.643L94.0926 244.481L93.9266 244.72L88.0452 253.274L87.9523 253.409C88.0655 253.398 88.1781 253.391 88.291 253.384C91.7149 253.163 95.152 252.969 98.5759 253.07C99.612 253.087 100.605 254.367 100.761 254.222Z" fill="#81ACF8"/>
<path fill-rule="evenodd" clip-rule="evenodd" d="M54.4984 247.561C55.2091 247.876 55.9327 248.17 56.6637 248.447C65.5368 251.769 67.7057 253.146 79.6611 256.568C81.3846 257.063 84.4067 258.108 87.1032 259.074C87.1099 259.07 87.1165 259.07 87.1228 259.067C87.887 259.558 88.8796 259.97 89.6401 259.728C91.5931 259.108 93.5392 258.461 95.3554 257.655C97.3715 256.766 99.2276 255.682 100.762 254.222C100.606 254.368 99.6132 253.087 98.5767 253.07C95.1532 252.97 91.7157 253.163 88.2921 253.385C88.1792 253.392 88.0663 253.399 87.9531 253.409C87.5549 253.433 87.1564 253.461 86.7579 253.489L87.1494 252.914C87.093 252.893 87.0335 252.873 86.9737 252.852C87.5449 252.17 88.0995 251.471 88.6342 250.759L90.3574 248.25C90.3574 248.25 90.3607 248.25 90.3607 248.246C90.4175 248.094 90.4272 247.935 90.3411 247.803C89.8164 247.793 89.3479 248.115 88.9165 248.426C87.3357 249.579 85.7945 250.793 84.3001 252.07C81.7732 251.419 79.0899 250.862 77.4726 249.918C71.913 246.675 67.4633 242.731 61.4255 240.301C60.8577 240.073 60.2835 239.848 59.7056 239.623C61.7443 235.381 63.086 230.038 64.066 227.304C64.2686 226.737 64.4708 226.169 64.6767 225.602C65.0556 224.547 65.4309 223.488 65.8062 222.432L60.0706 203.698L59.2935 201.158C58.7857 202.04 58.4101 203.047 58.078 204.044C58.0186 204.224 57.9621 204.404 57.9024 204.58C55.3187 212.501 55.2121 220.913 53.4889 229.041C53.0801 230.965 52.7184 232.906 52.2169 234.813C51.7321 236.665 51.224 238.474 51.0579 240.018V240.021C51.0078 240.17 50.9683 240.322 50.9381 240.481C50.9351 240.509 50.9284 240.54 50.9215 240.571C50.3805 243.488 51.8716 246.405 54.4984 247.561Z" fill="#F8BC9A"/>
<path fill-rule="evenodd" clip-rule="evenodd" d="M111.733 240.434C113.033 240.77 115.158 240.067 116.479 238.865C117.8 237.663 117.817 236.416 116.517 236.08C115.217 235.745 113.093 236.448 111.772 237.65C110.45 238.852 110.433 240.099 111.733 240.434Z" fill="#1C195C"/>
<path fill-rule="evenodd" clip-rule="evenodd" d="M85.9624 180.343C85.5341 180.121 85.0654 180.049 84.6202 180.02C84.1715 179.989 83.7376 179.993 83.3213 179.976C82.489 179.938 81.7141 179.814 80.981 179.148C81.1031 179.684 81.4776 180.133 81.9079 180.395C82.3398 180.665 82.8293 180.786 83.2952 180.802C83.7647 180.822 84.2158 180.751 84.6508 180.661C85.0886 180.571 85.5081 180.463 85.9624 180.343Z" fill="#271018"/>
<path fill-rule="evenodd" clip-rule="evenodd" d="M86.7739 178.38C86.7739 178.472 86.8486 178.546 86.9399 178.546C87.0316 178.546 87.106 178.472 87.106 178.38C87.106 178.289 87.0316 178.215 86.9399 178.215C86.8486 178.215 86.7739 178.289 86.7739 178.38Z" fill="#271018"/>
<path fill-rule="evenodd" clip-rule="evenodd" d="M87.106 166.521C86.8718 166.388 86.5783 166.347 86.3066 166.42C86.0323 166.487 85.7975 166.657 85.5953 166.843C85.1908 167.224 84.9068 167.705 84.6956 168.211C84.2971 169.239 84.2407 170.369 84.4336 171.438C84.6212 172.51 85.0364 173.532 85.6006 174.453C85.7407 174.686 85.9068 174.9 85.9971 175.136C86.0927 175.368 86.0931 175.65 85.8942 175.811C85.7005 175.971 85.4193 176.009 85.1589 176.001C84.8939 175.99 84.6292 175.935 84.3745 175.849C84.6222 175.953 84.8843 176.031 85.1556 176.054C85.4226 176.075 85.7165 176.06 85.9549 175.887C86.0722 175.801 86.1565 175.662 86.1751 175.515C86.198 175.368 86.1678 175.223 86.123 175.091C86.0286 174.822 85.8659 174.602 85.7387 174.372C85.2197 173.445 84.8291 172.442 84.6544 171.4C84.4818 170.361 84.5488 169.278 84.9062 168.294C85.0971 167.81 85.3628 167.344 85.7095 166.957C85.8862 166.766 86.0957 166.607 86.3362 166.513C86.5769 166.418 86.8529 166.429 87.106 166.521Z" fill="#271018"/>
<path d="M126 196C126 198.761 123.761 201 121 201C118.239 201 116 198.761 116 196C116 193.239 118.239 191 121 191C123.761 191 126 193.239 126 196Z" fill="url(#paint2_linear_129_4)"/>
<path d="M152.5 158.5C150.5 171.7 137.5 183.5 132.5 185.5C128 187 126.5 185.5 132.5 173C137.3 163 133.5 149.5 130.5 144.5C129.9 143.5 109.7 113.5 128.5 115.5C152 118 155 142 152.5 158.5Z" fill="url(#paint3_linear_129_4)"/>
<line x1="201.5" y1="161" x2="201.5" y2="177" stroke="#0B0429"/>
<path d="M48.1856 61.777C31.6265 34.8516 31.3337 11.1574 37.3671 -1.65849L5.41913 0.327335C2.05136 24.9741 8.1703 44.5881 24.3072 64.5942C35.5829 78.5737 62.0601 84.3372 48.1856 61.777Z" fill="url(#paint4_linear_129_4)"/>
<path d="M259.352 286.56C265.014 284.244 271.022 271.127 256.281 268.662C245.785 266.907 239.173 262.302 237.844 261.204C231.095 255.629 231.252 253.935 225.22 246.489C216.507 235.734 204.004 231.117 209.352 254.347C216.612 285.882 250.809 290.055 259.352 286.56Z" fill="url(#paint5_linear_129_4)"/>
<circle cx="91" cy="11" r="4" fill="#3F51BA"/>
<circle cx="122" cy="7" r="2" fill="#3F51BA"/>
<line x1="240" y1="172.5" x2="197" y2="172.5" stroke="#0B0429"/>
<line x1="442.393" y1="14.0356" x2="442.393" y2="30.0736" stroke="#0B0429"/>
<defs>
<linearGradient id="paint0_linear_129_4" x1="202.5" y1="189" x2="350" y2="98.5" gradientUnits="userSpaceOnUse">
<stop stop-color="#C7E5FC"/>
<stop offset="1" stop-color="#4780D6"/>
</linearGradient>
<linearGradient id="paint1_linear_129_4" x1="288.31" y1="24.8723" x2="429.438" y2="158.983" gradientUnits="userSpaceOnUse">
<stop stop-color="#2528A1"/>
<stop offset="1" stop-color="#1E0E64"/>
</linearGradient>
<linearGradient id="paint2_linear_129_4" x1="126" y1="196" x2="116" y2="196" gradientUnits="userSpaceOnUse">
<stop offset="0.0001" stop-color="#C7E5FC"/>
<stop offset="1" stop-color="#4780D6"/>
</linearGradient>
<linearGradient id="paint3_linear_129_4" x1="148" y1="151" x2="121" y2="155" gradientUnits="userSpaceOnUse">
<stop stop-color="#C7E5FC"/>
<stop offset="0.9999" stop-color="#4780D6"/>
</linearGradient>
<linearGradient id="paint4_linear_129_4" x1="35.4495" y1="41.1152" x2="4.01552" y2="49.0614" gradientUnits="userSpaceOnUse">
<stop stop-color="#C7E5FC"/>
<stop offset="1" stop-color="#4780D6"/>
</linearGradient>
<linearGradient id="paint5_linear_129_4" x1="232" y1="263" x2="219.5" y2="278.5" gradientUnits="userSpaceOnUse">
<stop stop-color="#C7E5FC"/>
<stop offset="1" stop-color="#4780D6"/>
</linearGradient>
<clipPath id="clip0_129_4">
<rect width="163.271" height="157.051" fill="white" transform="translate(257 3)"/>
</clipPath>
</defs>
</svg>
